<svg width="20" height="21" viewBox="0 0 20 21" fill="none" xmlns="http://www.w3.org/2000/svg">
<path d="M16 5.7189V8.7189M16 8.7189V11.7189M16 8.7189H19M16 8.7189H13M10.75 4.5939C10.75 6.45786 9.23896 7.9689 7.375 7.9689C5.51104 7.9689 4 6.45786 4 4.5939C4 2.72994 5.51104 1.2189 7.375 1.2189C9.23896 1.2189 10.75 2.72994 10.75 4.5939ZM1.00092 17.4532C1.00031 17.4169 1 17.3804 1 17.3439C1 13.8231 3.85418 10.9689 7.375 10.9689C10.8958 10.9689 13.75 13.8231 13.75 17.3439V17.3464C13.75 17.3821 13.7497 17.4177 13.7491 17.4532C11.8874 18.5741 9.70647 19.2189 7.375 19.2189C5.04353 19.2189 2.86264 18.5741 1.00092 17.4532Z" stroke="#8D8E8D" stroke-width="2" stroke-linecap="round" stroke-linejoin="round"/>
</svg>
