<svg width="25" height="25" viewBox="0 0 25 25" fill="none" xmlns="http://www.w3.org/2000/svg">
<rect width="24" height="24" transform="translate(0.189941 0.858887)" fill="white"/>
<path d="M12.9399 7.23392C12.9399 9.09788 11.4289 10.6089 9.56494 10.6089C7.70098 10.6089 6.18994 9.09788 6.18994 7.23392C6.18994 5.36996 7.70098 3.85892 9.56494 3.85892C11.4289 3.85892 12.9399 5.36996 12.9399 7.23392Z" fill="#11453B"/>
<path d="M3.19086 20.0932C3.19025 20.0569 3.18994 20.0204 3.18994 19.9839C3.18994 16.4631 6.04413 13.6089 9.56494 13.6089C13.0858 13.6089 15.9399 16.4631 15.9399 19.9839V19.9865C15.9399 20.0221 15.9396 20.0577 15.939 20.0932C14.0773 21.2142 11.8964 21.8589 9.56494 21.8589C7.23347 21.8589 5.05258 21.2142 3.19086 20.0932Z" fill="#11453B"/>
<path d="M18.1899 8.35892V11.3589M18.1899 11.3589V14.3589M18.1899 11.3589H21.1899M18.1899 11.3589H15.1899M12.9399 7.23392C12.9399 9.09788 11.4289 10.6089 9.56494 10.6089C7.70098 10.6089 6.18994 9.09788 6.18994 7.23392C6.18994 5.36996 7.70098 3.85892 9.56494 3.85892C11.4289 3.85892 12.9399 5.36996 12.9399 7.23392ZM3.19086 20.0932C3.19025 20.0569 3.18994 20.0204 3.18994 19.9839C3.18994 16.4631 6.04413 13.6089 9.56494 13.6089C13.0858 13.6089 15.9399 16.4631 15.9399 19.9839V19.9865C15.9399 20.0221 15.9396 20.0577 15.939 20.0932C14.0773 21.2142 11.8964 21.8589 9.56494 21.8589C7.23347 21.8589 5.05258 21.2142 3.19086 20.0932Z" stroke="#11453B" stroke-width="2" stroke-linecap="round" stroke-linejoin="round"/>
</svg>
