<svg width="21" height="22" viewBox="0 0 21 22" fill="none" xmlns="http://www.w3.org/2000/svg">
<g clip-path="url(#clip0_614_1406)">
<path d="M12.3917 0C12.8308 0.0861057 13.2786 0.142074 13.7091 0.266928C16.2708 0.990215 18.1866 3.25479 18.5009 5.89824C18.9056 9.32524 16.7702 12.4595 13.4637 13.2904C9.76116 14.2204 5.9639 11.7577 5.30089 7.99491C4.72398 4.74012 6.42457 1.64892 9.47702 0.460665C10.0238 0.249706 10.6222 0.176517 11.1991 0.0387476C11.2551 0.0258317 11.3111 0.0129159 11.3627 0C11.7028 0 12.0473 0 12.3917 0ZM17.2653 6.73777C17.2567 3.71546 14.8328 1.27867 11.8449 1.29159C8.87427 1.3002 6.45901 3.76282 6.46762 6.7636C6.47623 9.76438 8.91302 12.2098 11.8837 12.2012C14.85 12.1926 17.2739 9.73425 17.2653 6.73777Z" fill="#8D8E8D" stroke="#8D8E8D" stroke-width="0.4"/>
<path d="M2.8426 15.671C2.88565 15.4945 2.91149 15.3395 2.96315 15.1932C3.26021 14.3536 3.89309 13.9403 4.73693 13.7509C6.17489 13.428 7.54397 13.5744 8.86569 14.2503C9.33927 14.4914 9.83869 14.7024 10.3467 14.8746C10.6524 14.9779 10.9882 15.0166 11.3154 15.0296C11.9655 15.0511 12.6199 15.0339 13.27 15.0382C13.7436 15.0382 13.9976 15.3008 13.9847 15.7744C13.9675 16.4159 13.7651 16.9928 13.3776 17.5568C13.6962 17.5568 13.9847 17.5654 14.2688 17.5525C14.3248 17.5481 14.3808 17.4706 14.4324 17.419C15.0352 16.8162 15.6336 16.2092 16.2406 15.6151C17.416 14.4656 19.263 14.4311 20.4857 15.529C20.8731 15.8777 20.886 16.2523 20.5201 16.6182C19.0132 18.1294 17.5021 19.6362 15.9952 21.1431C15.414 21.7243 14.7123 22.0084 13.8943 22.0084C9.56315 22.0084 5.23203 22.0084 0.900918 22.0084C0.38859 21.9998 0.143188 21.7544 0.143188 21.2464C0.143188 19.6362 0.143188 18.026 0.143188 16.4116C0.143188 15.9078 0.384284 15.671 0.896613 15.671C1.5381 15.6667 2.18389 15.671 2.8426 15.671ZM4.1428 20.7125C4.24612 20.7125 4.32362 20.7125 4.40111 20.7125C7.53536 20.7125 10.6739 20.7082 13.8082 20.7168C14.3334 20.7168 14.7639 20.5446 15.1342 20.1701C16.4172 18.8785 17.7044 17.5955 18.9917 16.3082C19.0348 16.2652 19.0692 16.2178 19.1209 16.1618C19.0692 16.1403 19.0391 16.1188 19.0046 16.1102C18.277 15.882 17.6356 16.0327 17.0888 16.5708C16.4387 17.2166 15.7843 17.8581 15.1471 18.5168C14.9189 18.7493 14.6735 18.8526 14.3506 18.8483C12.3401 18.8397 10.3252 18.8397 8.31462 18.8397C8.04769 18.8397 7.78507 18.844 7.51814 18.8311C7.26843 18.8182 7.08761 18.6804 6.98428 18.4566C6.88526 18.237 6.90679 18.0217 7.04886 17.8237C7.19955 17.6084 7.41912 17.5438 7.66882 17.5438C8.62029 17.5481 9.57176 17.5481 10.5275 17.5481C10.7127 17.5481 10.9021 17.5481 11.0829 17.5309C11.7416 17.4577 12.3917 16.9239 12.5553 16.3168C12.1635 16.3168 11.7804 16.3125 11.3972 16.3168C10.7902 16.3254 10.196 16.2307 9.63634 15.9982C9.11971 15.7873 8.60738 15.5677 8.10796 15.318C7.03595 14.7885 5.9381 14.754 4.80581 15.064C4.34084 15.1888 4.1428 15.4558 4.1428 15.9337C4.1428 17.0703 4.1428 18.2112 4.1428 19.3478C4.1428 19.7955 4.1428 20.2389 4.1428 20.7125ZM2.8426 20.6996C2.8426 19.4468 2.8426 18.2112 2.8426 16.9712C2.36902 16.9712 1.91266 16.9712 1.44338 16.9712C1.44338 18.2198 1.44338 19.4554 1.44338 20.6996C1.91266 20.6996 2.36902 20.6996 2.8426 20.6996Z" fill="#8D8E8D" stroke="#8D8E8D" stroke-width="0.4"/>
<g clip-path="url(#clip1_614_1406)">
<path d="M12.9272 4.81472C12.9272 4.64857 12.9313 4.48201 12.9272 4.31586C12.924 4.22794 12.9571 4.20415 13.0406 4.20536C13.2773 4.2098 13.5144 4.21141 13.7507 4.20536C13.8516 4.20254 13.8802 4.23641 13.8786 4.33441C13.8733 4.64655 13.8814 4.95909 13.8745 5.27163C13.8721 5.38616 13.8991 5.43294 14.0238 5.4281C14.2956 5.42165 14.296 5.4281 14.296 5.70798C14.296 5.87413 14.2923 6.04069 14.296 6.20684C14.2984 6.28749 14.277 6.31975 14.1879 6.32137C13.8758 6.32782 13.8758 6.33185 13.8758 6.65165C13.8758 6.80772 13.8798 6.96419 13.8758 7.12026C13.8729 7.20576 13.902 7.23157 13.9875 7.23439C14.296 7.24326 14.296 7.24649 14.296 7.55258C14.296 7.70865 14.2923 7.86512 14.296 8.02119C14.2988 8.10588 14.2706 8.13209 14.1843 8.1337C13.8753 8.14016 13.8758 8.14379 13.8758 8.45189C13.8758 8.68862 13.8721 8.92574 13.8758 9.16207C13.8758 9.25563 13.8447 9.28305 13.7548 9.28103C13.493 9.27579 13.2305 9.27539 12.9688 9.28103C12.9319 9.2846 12.8949 9.27681 12.8626 9.25872C12.8303 9.24063 12.8043 9.21309 12.7881 9.17981C12.601 8.86929 12.4058 8.5636 12.2203 8.25227C12.1687 8.16516 12.1134 8.12604 12.007 8.12806C11.6492 8.13572 11.2915 8.13411 10.9338 8.12806C10.8346 8.12806 10.8056 8.15669 10.8076 8.25509C10.8137 8.55231 10.8052 8.84952 10.812 9.14674C10.8145 9.25482 10.7794 9.28386 10.6749 9.28023C10.4483 9.27297 10.2212 9.27135 9.995 9.28023C9.87603 9.28547 9.85143 9.2399 9.85345 9.13303C9.8599 8.84589 9.85062 8.55876 9.85788 8.27163C9.86071 8.16113 9.83288 8.12362 9.71633 8.12644C9.44815 8.1329 9.44775 8.12645 9.44775 7.86149C9.44775 7.68526 9.45098 7.50862 9.44775 7.33239C9.44775 7.25173 9.47557 7.23116 9.5526 7.22834C9.85708 7.21624 9.85708 7.21342 9.85708 6.90572C9.85708 6.74965 9.85264 6.59318 9.85708 6.43711C9.8603 6.34677 9.83248 6.31612 9.73851 6.31612C9.44775 6.3133 9.44775 6.30927 9.44775 6.01286C9.44775 5.85679 9.45259 5.70032 9.44775 5.54425C9.44372 5.4523 9.47275 5.42326 9.56631 5.42326C9.85788 5.41883 9.85788 5.41439 9.85788 5.11516C9.85788 4.85303 9.86071 4.5909 9.85788 4.32917C9.85788 4.24085 9.87966 4.20334 9.97645 4.20576C10.2333 4.21181 10.4902 4.21101 10.7471 4.20576C10.7817 4.203 10.8163 4.21086 10.8463 4.2283C10.8763 4.24574 10.9002 4.27193 10.9149 4.30336C11.1165 4.63969 11.327 4.972 11.5287 5.30914C11.5779 5.38979 11.6299 5.43012 11.7303 5.43012C12.088 5.42367 12.4457 5.42447 12.8034 5.43012C12.9018 5.43012 12.9361 5.40149 12.9317 5.30147C12.924 5.14016 12.9317 4.97885 12.9317 4.81754L12.9272 4.81472ZM12.1469 6.31895C12.3344 6.62504 12.5062 6.90693 12.6804 7.18761C12.7284 7.26464 12.8087 7.23036 12.8744 7.22794C12.9551 7.22471 12.9252 7.15374 12.9256 7.10978C12.9285 6.88313 12.9256 6.65649 12.9256 6.42985C12.9256 6.375 12.9361 6.31693 12.8478 6.31814C12.6248 6.32096 12.4002 6.31895 12.1469 6.31895ZM11.5851 7.23116L11.0512 6.36573C11.0028 6.28709 10.9242 6.31935 10.8592 6.32217C10.7786 6.32621 10.8116 6.39759 10.8112 6.44033C10.808 6.66657 10.8112 6.89281 10.8112 7.11905C10.8112 7.17229 10.7967 7.23318 10.8866 7.23197C11.1093 7.22955 11.3331 7.23116 11.5851 7.23116Z" fill="#8D8E8D"/>
</g>
</g>
<defs>
<clipPath id="clip0_614_1406">
<rect width="20.6352" height="22" fill="white" transform="translate(0.143188)"/>
</clipPath>
<clipPath id="clip1_614_1406">
<rect width="4.84984" height="5.07769" fill="white" transform="translate(9.44482 4.20467)"/>
</clipPath>
</defs>
</svg>
