<svg width="23" height="23" viewBox="0 0 23 23" fill="none" xmlns="http://www.w3.org/2000/svg">
<path d="M8.49458 0.908691C8.6587 0.961634 8.82812 1.00399 8.99225 1.06752C9.97169 1.42224 10.6494 2.33815 10.6547 3.38112C10.6652 5.11235 10.6705 6.84888 10.6547 8.58011C10.6388 9.92486 9.53756 11.0314 8.19281 11.042C6.46158 11.0578 4.72505 11.0578 2.99382 11.042C1.64907 11.0261 0.542566 9.92486 0.526683 8.58011C0.5108 6.84888 0.5108 5.11235 0.526683 3.38112C0.537271 2.22697 1.3473 1.25282 2.49086 0.972222C2.5544 0.956339 2.61793 0.929869 2.68675 0.908691C4.61917 0.908691 6.55687 0.908691 8.49458 0.908691ZM5.58802 2.59757C4.76741 2.59757 3.95209 2.59757 3.13147 2.59757C2.55439 2.59757 2.21027 2.9364 2.20497 3.51348C2.20497 5.16 2.20497 6.80652 2.20497 8.45305C2.20497 9.00895 2.55439 9.35837 3.11559 9.35837C4.76211 9.35837 6.40863 9.35837 8.05516 9.35837C8.61635 9.35837 8.96577 9.01424 8.96577 8.45305C8.97107 6.80652 8.96577 5.16 8.96577 3.51348C8.96577 2.9417 8.61635 2.59757 8.04457 2.59757C7.22395 2.59757 6.40863 2.59757 5.58802 2.59757Z" fill="#8D8E8D"/>
<path d="M22.4876 8.887C22.4452 9.02994 22.4082 9.16759 22.3605 9.31054C22.027 10.327 21.0846 11.0418 20.0151 11.0471C18.2839 11.0629 16.5474 11.0629 14.8162 11.0471C13.4714 11.0312 12.3649 9.92468 12.3543 8.58522C12.3384 6.85399 12.3384 5.11747 12.3543 3.38623C12.3649 2.23208 13.1749 1.25793 14.3185 0.977335C14.382 0.961452 14.4456 0.93498 14.5144 0.913803C16.4521 0.913803 18.3898 0.913803 20.3222 0.913803C20.3699 0.929686 20.4175 0.956157 20.4652 0.966746C21.4023 1.18911 22.0323 1.75559 22.3605 2.66092C22.4082 2.79857 22.4452 2.94151 22.4876 3.08446C22.4876 5.01158 22.4876 6.94929 22.4876 8.887ZM17.4209 9.35819C18.2469 9.35819 19.0781 9.36348 19.904 9.35819C20.4493 9.35819 20.7987 9.00876 20.7987 8.46875C20.804 6.81164 20.804 5.15982 20.7987 3.50271C20.7987 2.94681 20.444 2.59739 19.8881 2.59739C18.2416 2.59739 16.595 2.59739 14.9485 2.59739C14.3873 2.59739 14.0379 2.94152 14.0379 3.50271C14.0379 5.14923 14.0379 6.79575 14.0379 8.44228C14.0379 9.01406 14.3873 9.35819 14.9644 9.35819C15.785 9.36348 16.6003 9.35819 17.4209 9.35819Z" fill="#8D8E8D"/>
<path d="M22.4877 18.3372C22.4347 18.5649 22.3924 18.7978 22.3341 19.0255C21.7729 21.3338 19.6658 22.9327 17.2622 22.8744C14.9274 22.8215 12.8997 21.1009 12.4497 18.8031C11.8091 15.5472 14.3662 12.5876 17.6804 12.7412C20.0893 12.8524 22.1382 14.7424 22.4347 17.1248C22.4453 17.1937 22.4665 17.2625 22.4824 17.326C22.4876 17.6702 22.4877 18.0037 22.4877 18.3372ZM20.7988 17.8025C20.7988 15.9601 19.2846 14.4353 17.4475 14.4301C15.568 14.4248 14.0433 15.9336 14.0433 17.8025C14.0433 19.6767 15.5574 21.1909 17.4369 21.1909C19.2899 21.1909 20.7988 19.6714 20.7988 17.8025Z" fill="#8D8E8D"/>
<path d="M5.56175 22.8795C4.75173 22.8795 3.9417 22.8795 3.13167 22.8795C1.61751 22.8742 0.521594 21.7783 0.5163 20.2641C0.511006 18.6282 0.511006 16.9923 0.5163 15.3563C0.521594 13.8422 1.61751 12.7463 3.13167 12.741C4.76761 12.7357 6.40354 12.7357 8.03948 12.741C9.55364 12.7463 10.6496 13.8369 10.6549 15.3563C10.6601 16.9923 10.6601 18.6282 10.6549 20.2641C10.6496 21.7836 9.55894 22.8742 8.03948 22.8795C7.21886 22.8848 6.38766 22.8795 5.56175 22.8795ZM5.59881 14.4298C4.7782 14.4298 3.96288 14.4298 3.14226 14.4298C2.5493 14.4298 2.21047 14.7687 2.21047 15.3669C2.21047 16.9976 2.21047 18.6229 2.21047 20.2535C2.21047 20.8465 2.5493 21.1906 3.14226 21.1906C4.7729 21.1906 6.39825 21.1906 8.02889 21.1906C8.63773 21.1906 8.97127 20.8518 8.97656 20.243C8.97656 18.6229 8.97656 17.0029 8.97656 15.3828C8.97656 14.7687 8.64303 14.4298 8.03418 14.4298C7.21357 14.4298 6.40354 14.4298 5.59881 14.4298Z" fill="#8D8E8D"/>
</svg>
