<svg width="18" height="20" viewBox="0 0 18 20" fill="none" xmlns="http://www.w3.org/2000/svg">
<g clip-path="url(#clip0_614_1396)">
<path d="M16.0431 19.9995C11.4882 19.9995 6.92945 19.9995 2.37457 19.9995C2.35109 19.9878 2.32761 19.976 2.30413 19.9682C1.2515 19.7647 0.605835 19.0017 0.605835 17.9451C0.605835 12.6428 0.605835 7.33663 0.605835 2.03434C0.605835 0.833008 1.44716 -0.000488281 2.64849 -0.000488281C5.58333 0.00342485 8.51818 0.0190774 11.453 0.0229905C11.9343 0.0229905 12.3335 0.191255 12.6778 0.527784C14.1883 1.99912 15.7027 3.46654 17.2249 4.92614C17.5888 5.27441 17.7532 5.67355 17.7532 6.17443C17.7453 8.90188 17.7492 11.6293 17.7492 14.3568C17.7492 15.562 17.7532 16.7634 17.7492 17.9686C17.7453 18.8921 17.2288 19.6395 16.4149 19.9017C16.2936 19.9369 16.1683 19.9643 16.0431 19.9995ZM11.0343 1.59607C10.9482 1.59215 10.8856 1.58433 10.823 1.58433C8.14252 1.5765 5.45811 1.56476 2.77762 1.55694C2.26891 1.55694 2.16717 1.65868 2.16717 2.15565C2.16717 7.37185 2.16717 12.5841 2.16717 17.8003C2.16717 17.8669 2.16717 17.9295 2.16717 17.996C2.175 18.2386 2.33544 18.4069 2.58196 18.4264C2.64066 18.4303 2.69936 18.4264 2.75806 18.4264C7.05467 18.4264 11.3513 18.4264 15.6479 18.4264C16.0783 18.4264 16.1879 18.313 16.1879 17.8825C16.1879 14.1768 16.1879 10.475 16.1879 6.76922C16.1879 6.69879 16.1879 6.63226 16.1879 6.55009C16.0862 6.55009 16.0157 6.55009 15.9453 6.55009C14.9866 6.55009 14.0318 6.55009 13.0731 6.55009C11.8756 6.54618 11.0343 5.70485 11.0304 4.51135C11.0265 3.61133 11.0304 2.71522 11.0304 1.8152C11.0343 1.75259 11.0343 1.68216 11.0343 1.59607ZM12.5957 2.62131C12.5957 3.28654 12.5957 3.89699 12.5957 4.50744C12.5957 4.84005 12.7483 4.99266 13.0848 4.99266C13.6835 4.99658 14.2822 4.99266 14.8809 4.99266C14.9201 4.99266 14.9592 4.98092 15.0257 4.96918C14.2157 4.18656 13.4292 3.42741 12.5957 2.62131Z" fill="#8D8E8D" stroke="#8D8E8D" stroke-width="0.308277"/>
<path d="M9.19993 14.882C10.593 14.882 11.9822 14.882 13.3752 14.882C13.8722 14.882 14.2166 14.5377 14.2009 14.072C14.1892 13.7355 13.9465 13.4302 13.6178 13.352C13.5239 13.3285 13.4261 13.3207 13.3283 13.3207C10.5773 13.3207 7.82642 13.3207 5.07549 13.3207C4.62157 13.3207 4.31634 13.5476 4.22634 13.9429C4.1246 14.3772 4.44547 14.8272 4.88766 14.8742C4.97766 14.882 5.06766 14.882 5.16158 14.882C6.50769 14.882 7.85381 14.882 9.19993 14.882Z" fill="#8D8E8D" stroke="#8D8E8D" stroke-width="0.308277"/>
<path d="M8.19036 11.7593C9.25081 11.7593 10.3113 11.7632 11.3717 11.7554C11.9587 11.7515 12.3383 11.1919 12.1074 10.6754C11.9548 10.331 11.673 10.1941 11.3091 10.1941C10.3152 10.1941 9.31734 10.1941 8.3234 10.1941C7.23555 10.1941 6.15161 10.1941 5.06377 10.1941C4.65289 10.1941 4.35549 10.3936 4.24201 10.7302C4.07374 11.2389 4.43766 11.7476 4.98942 11.7515C5.91291 11.7593 6.83641 11.7554 7.75991 11.7554C7.9047 11.7593 8.04948 11.7593 8.19036 11.7593Z" fill="#8D8E8D" stroke="#8D8E8D" stroke-width="0.308277"/>
<path d="M7.18852 8.63274C7.92419 8.63274 8.65594 8.63666 9.39161 8.62883C9.74379 8.62492 10.0216 8.39013 10.1116 8.04969C10.1977 7.73664 10.0803 7.38837 9.79466 7.21619C9.66161 7.13793 9.49335 7.07532 9.34074 7.07532C7.89679 7.06358 6.45285 7.06749 5.01282 7.0714C4.58629 7.0714 4.26932 7.35315 4.21063 7.75229C4.15584 8.11621 4.39063 8.48404 4.75846 8.59361C4.86021 8.62492 4.9776 8.62883 5.08717 8.62883C5.78762 8.63665 6.48807 8.63274 7.18852 8.63274Z" fill="#8D8E8D" stroke="#8D8E8D" stroke-width="0.308277"/>
</g>
<defs>
<clipPath id="clip0_614_1396">
<rect width="17.1512" height="20" fill="white" transform="translate(0.605835 -0.000488281)"/>
</clipPath>
</defs>
</svg>
