<svg width="1512" height="947" viewBox="0 0 1512 947" fill="none" xmlns="http://www.w3.org/2000/svg">
<g clip-path="url(#clip0_4_4547)">
<g opacity="0.3">
<circle cx="1327.35" cy="150.325" r="301.427" fill="#F0F7EB" fill-opacity="0.5" stroke="#11453B" stroke-width="0.496584"/>
<circle cx="1327.35" cy="150.325" r="210.428" fill="#D9EBCD" fill-opacity="0.5" stroke="#D9EBCD" stroke-width="1.24146"/>
<circle cx="1327.35" cy="150.324" r="123.525" fill="white" stroke="#D9EBCD" stroke-width="1.24146"/>
</g>
<g opacity="0.3">
<circle cx="0.00012207" cy="409.426" r="288.481" fill="#E7E8E7" stroke="#F2F1F1" stroke-width="0.186592"/>
<circle cx="-25.5166" cy="409.426" r="233.155" fill="#DCDCDC" stroke="#F2F1F1" stroke-width="0.812974"/>
</g>
<circle cx="1" cy="229" r="5" transform="rotate(-90 1 229)" fill="#11453B"/>
<circle cx="1" cy="198" r="5" transform="rotate(-90 1 198)" fill="#11453B"/>
<circle cx="1" cy="167" r="5" transform="rotate(-90 1 167)" fill="#11453B"/>
<circle cx="27" cy="229" r="5" transform="rotate(-90 27 229)" fill="#11453B"/>
<circle cx="27" cy="198" r="5" transform="rotate(-90 27 198)" fill="#11453B"/>
<circle cx="27" cy="167" r="5" transform="rotate(-90 27 167)" fill="#11453B"/>
<circle cx="53" cy="229" r="5" transform="rotate(-90 53 229)" fill="#11453B"/>
<circle cx="53" cy="198" r="5" transform="rotate(-90 53 198)" fill="#11453B"/>
<circle cx="53" cy="167" r="5" transform="rotate(-90 53 167)" fill="#11453B"/>
<circle cx="79" cy="229" r="5" transform="rotate(-90 79 229)" fill="#11453B"/>
<circle cx="79" cy="198" r="5" transform="rotate(-90 79 198)" fill="#11453B"/>
<circle cx="79" cy="167" r="5" transform="rotate(-90 79 167)" fill="#11453B"/>
<circle cx="105" cy="229" r="5" transform="rotate(-90 105 229)" fill="#11453B"/>
<circle cx="105" cy="198" r="5" transform="rotate(-90 105 198)" fill="#11453B"/>
<circle cx="105" cy="167" r="5" transform="rotate(-90 105 167)" fill="#11453B"/>
<circle cx="131" cy="229" r="5" transform="rotate(-90 131 229)" fill="#11453B"/>
<circle cx="131" cy="198" r="5" transform="rotate(-90 131 198)" fill="#11453B"/>
<circle cx="131" cy="167" r="5" transform="rotate(-90 131 167)" fill="#11453B"/>
<circle cx="157" cy="229" r="5" transform="rotate(-90 157 229)" fill="#11453B"/>
<circle cx="157" cy="198" r="5" transform="rotate(-90 157 198)" fill="#11453B"/>
<circle cx="157" cy="167" r="5" transform="rotate(-90 157 167)" fill="#11453B"/>
<circle cx="183" cy="229" r="5" transform="rotate(-90 183 229)" fill="#11453B"/>
<circle cx="183" cy="198" r="5" transform="rotate(-90 183 198)" fill="#11453B"/>
<circle cx="183" cy="167" r="5" transform="rotate(-90 183 167)" fill="#11453B"/>
<circle cx="209" cy="229" r="5" transform="rotate(-90 209 229)" fill="#11453B"/>
<circle cx="209" cy="198" r="5" transform="rotate(-90 209 198)" fill="#11453B"/>
<circle cx="209" cy="167" r="5" transform="rotate(-90 209 167)" fill="#11453B"/>
</g>
<defs>
<clipPath id="clip0_4_4547">
<rect width="1512" height="947" fill="white"/>
</clipPath>
</defs>
</svg>
