<svg width="18" height="18" viewBox="0 0 18 18" fill="none" xmlns="http://www.w3.org/2000/svg">
<path d="M1.22467 7.64849C1.24352 7.58567 1.26236 7.51971 1.28121 7.45688C1.42256 6.95117 1.73353 6.58994 2.21725 6.38891C6.49228 4.62676 10.7704 2.86461 15.0455 1.10246C15.6643 0.84803 16.3459 0.983096 16.8108 1.44798C17.2725 1.90972 17.4013 2.58191 17.1469 3.20071C15.3847 7.48201 13.6226 11.7665 11.8604 16.0478C11.6562 16.5472 11.2824 16.8519 10.7642 16.9901C10.7296 16.9995 10.6982 17.0121 10.6636 17.0246C10.4846 17.0246 10.3087 17.0246 10.1297 17.0246C10.0543 17.0027 9.98203 16.9838 9.90664 16.9618C9.46061 16.8205 9.11509 16.5535 8.93291 16.12C8.49944 15.0929 8.07539 14.0595 7.65134 13.026C7.50057 12.6554 7.68903 12.3036 8.06597 12.247C8.31411 12.2094 8.54341 12.3476 8.65335 12.6146C8.94861 13.3276 9.24387 14.0406 9.53914 14.7536C9.6585 15.0426 9.77786 15.3316 9.90036 15.6206C9.99145 15.8405 10.1642 15.9598 10.3809 15.9567C10.6165 15.9504 10.7893 15.8436 10.8804 15.6206C12.6394 11.3424 14.3984 7.06425 16.1574 2.78608C16.2485 2.56935 16.2234 2.3746 16.06 2.21126C15.8779 2.02594 15.6643 2.00709 15.4255 2.10447C13.9021 2.73583 12.3787 3.3609 10.8553 3.98912C8.11936 5.11363 5.38662 6.24128 2.65073 7.36579C2.42457 7.46003 2.29264 7.65163 2.29264 7.88721C2.29264 8.10709 2.41514 8.27043 2.65073 8.3678C4.14274 8.98031 5.63162 9.59283 7.1205 10.2085C7.22101 10.2493 7.27441 10.2367 7.34666 10.1614C8.1068 9.3918 8.87008 8.62537 9.63651 7.86209C9.94748 7.55112 10.4312 7.6642 10.5506 8.0694C10.6071 8.26729 10.5631 8.44633 10.4218 8.59082C9.536 9.47975 8.65021 10.3655 7.76128 11.2513C7.5791 11.4304 7.35608 11.4681 7.12364 11.3707C5.45572 10.6796 3.78466 9.99489 2.12302 9.29442C1.64558 9.09339 1.37544 8.69133 1.25922 8.18876C1.2498 8.15421 1.23723 8.1228 1.22467 8.08824C1.22467 7.94061 1.22467 7.79612 1.22467 7.64849Z" fill="#219653" stroke="#219653" stroke-width="0.490446"/>
</svg>
