<svg width="19" height="20" viewBox="0 0 19 20" fill="none" xmlns="http://www.w3.org/2000/svg">
<g clip-path="url(#clip0_1_1284)">
<path d="M11.4717 0.191406C11.8633 0.268188 12.2626 0.318097 12.6465 0.429431C14.9308 1.0744 16.6392 3.09377 16.9194 5.45098C17.2803 8.50691 15.3761 11.3018 12.4277 12.0427C9.12605 12.872 5.73996 10.676 5.14873 7.32063C4.63429 4.41826 6.15074 1.66178 8.87267 0.602191C9.36024 0.414074 9.89387 0.34881 10.4083 0.225958C10.4582 0.214441 10.5081 0.202924 10.5542 0.191406C10.8575 0.191406 11.1646 0.191406 11.4717 0.191406ZM15.8176 6.19961C15.8099 3.50456 13.6485 1.33162 10.9842 1.34314C8.33519 1.35082 6.18145 3.54679 6.18913 6.22265C6.19681 8.8985 8.36975 11.0791 11.0187 11.0714C13.6639 11.0638 15.8253 8.87163 15.8176 6.19961Z" fill="#2F80ED"/>
<path d="M2.95662 14.1657C2.99501 14.0083 3.01805 13.87 3.06412 13.7395C3.32901 12.9909 3.89336 12.6223 4.64583 12.4534C5.92809 12.1655 7.14893 12.296 8.32753 12.8988C8.74983 13.1137 9.19517 13.3019 9.64819 13.4554C9.92076 13.5476 10.2202 13.5821 10.512 13.5936C11.0917 13.6128 11.6752 13.5975 12.2549 13.6013C12.6772 13.6013 12.9037 13.8355 12.8922 14.2578C12.8769 14.8298 12.6964 15.3443 12.3509 15.8472C12.635 15.8472 12.8922 15.8549 13.1456 15.8433C13.1955 15.8395 13.2454 15.7704 13.2915 15.7243C13.829 15.1869 14.3626 14.6455 14.9039 14.1158C15.952 13.0907 17.599 13.06 18.6893 14.039C19.0348 14.3499 19.0463 14.6839 18.72 15.0103C17.3763 16.3578 16.0288 17.7015 14.6851 19.0452C14.1668 19.5634 13.541 19.8168 12.8116 19.8168C8.94947 19.8168 5.08733 19.8168 1.22518 19.8168C0.768329 19.8091 0.5495 19.5903 0.5495 19.1373C0.5495 17.7015 0.5495 16.2657 0.5495 14.826C0.5495 14.3768 0.76449 14.1657 1.22134 14.1657C1.79337 14.1618 2.36924 14.1657 2.95662 14.1657ZM4.11603 18.6613C4.20817 18.6613 4.27727 18.6613 4.34638 18.6613C7.14125 18.6613 9.93996 18.6574 12.7348 18.6651C13.2032 18.6651 13.5871 18.5115 13.9173 18.1775C15.0613 17.0258 16.2092 15.8817 17.3571 14.7338C17.3955 14.6955 17.4262 14.6532 17.4723 14.6033C17.4262 14.5841 17.3993 14.5649 17.3686 14.5572C16.7198 14.3538 16.1478 14.4881 15.6602 14.968C15.0805 15.5439 14.497 16.1159 13.9288 16.7033C13.7253 16.9106 13.5065 17.0028 13.2186 16.9989C11.4257 16.9912 9.62899 16.9912 7.83613 16.9912C7.5981 16.9912 7.36392 16.9951 7.12589 16.9836C6.90322 16.972 6.74198 16.8492 6.64984 16.6496C6.56154 16.4538 6.58074 16.2618 6.70743 16.0852C6.8418 15.8933 7.03759 15.8357 7.26026 15.8357C8.1087 15.8395 8.95715 15.8395 9.80943 15.8395C9.97451 15.8395 10.1434 15.8395 10.3047 15.8242C10.8921 15.7589 11.4718 15.2828 11.6176 14.7415C11.2683 14.7415 10.9266 14.7377 10.5849 14.7415C10.0436 14.7492 9.51382 14.6647 9.01473 14.4574C8.55404 14.2693 8.09719 14.0735 7.65185 13.8509C6.69591 13.3786 5.71694 13.3479 4.70725 13.6243C4.29263 13.7357 4.11603 13.9737 4.11603 14.3998C4.11603 15.4134 4.11603 16.4307 4.11603 17.4443C4.11603 17.8435 4.11603 18.239 4.11603 18.6613ZM2.95662 18.6497C2.95662 17.5326 2.95662 16.4307 2.95662 15.3251C2.53432 15.3251 2.12737 15.3251 1.70891 15.3251C1.70891 16.4384 1.70891 17.5402 1.70891 18.6497C2.12737 18.6497 2.53432 18.6497 2.95662 18.6497Z" fill="#2F80ED"/>
<g clip-path="url(#clip1_1_1284)">
<path d="M11.9493 4.48529C11.9493 4.33713 11.9529 4.18861 11.9493 4.04045C11.9464 3.96205 11.9759 3.94084 12.0503 3.94192C12.2614 3.94587 12.4729 3.94731 12.6836 3.94192C12.7735 3.9394 12.799 3.96961 12.7976 4.05699C12.7929 4.33533 12.8001 4.61403 12.794 4.89273C12.7918 4.99486 12.8159 5.03658 12.9271 5.03226C13.1694 5.02651 13.1698 5.03226 13.1698 5.28183C13.1698 5.42999 13.1666 5.57851 13.1698 5.72667C13.172 5.79859 13.1529 5.82736 13.0734 5.8288C12.7951 5.83456 12.7951 5.83815 12.7951 6.12332C12.7951 6.26249 12.7987 6.40202 12.7951 6.54119C12.7926 6.61743 12.8185 6.64045 12.8947 6.64296C13.1698 6.65087 13.1698 6.65375 13.1698 6.9267C13.1698 7.06587 13.1666 7.2054 13.1698 7.34457C13.1723 7.42008 13.1471 7.44346 13.0702 7.4449C12.7947 7.45065 12.7951 7.45389 12.7951 7.72863C12.7951 7.93972 12.7918 8.15118 12.7951 8.36191C12.7951 8.44534 12.7674 8.46979 12.6872 8.46799C12.4538 8.46332 12.2197 8.46296 11.9863 8.46799C11.9535 8.47118 11.9204 8.46423 11.8916 8.4481C11.8628 8.43197 11.8397 8.40741 11.8252 8.37773C11.6584 8.10083 11.4843 7.82824 11.3189 7.55062C11.2728 7.47295 11.2236 7.43807 11.1286 7.43986C10.8097 7.4467 10.4907 7.44526 10.1717 7.43986C10.0832 7.43986 10.0574 7.4654 10.0592 7.55314C10.0646 7.81817 10.057 8.08321 10.0631 8.34824C10.0653 8.44462 10.034 8.47051 9.94084 8.46728C9.73874 8.4608 9.53628 8.45936 9.33454 8.46728C9.22845 8.47195 9.20652 8.43131 9.20831 8.33602C9.21407 8.07997 9.2058 7.82393 9.21227 7.56788C9.21479 7.46935 9.18997 7.43591 9.08605 7.43842C8.8469 7.44418 8.84654 7.43843 8.84654 7.20216C8.84654 7.04501 8.84942 6.8875 8.84654 6.73035C8.84654 6.65843 8.87136 6.64009 8.94004 6.63757C9.21155 6.62678 9.21155 6.62426 9.21155 6.34988C9.21155 6.21071 9.2076 6.07118 9.21155 5.93201C9.21443 5.85146 9.18961 5.82413 9.10582 5.82413C8.84654 5.82161 8.84654 5.81801 8.84654 5.5537C8.84654 5.41453 8.85086 5.275 8.84654 5.13583C8.84295 5.05384 8.86884 5.02794 8.95227 5.02794C9.21227 5.02399 9.21227 5.02003 9.21227 4.7532C9.21227 4.51945 9.21479 4.28571 9.21227 4.05232C9.21227 3.97356 9.23169 3.94012 9.318 3.94228C9.54707 3.94767 9.77614 3.94695 10.0052 3.94228C10.036 3.93981 10.0669 3.94682 10.0936 3.96237C10.1204 3.97793 10.1417 4.00128 10.1548 4.0293C10.3346 4.32922 10.5223 4.62554 10.7021 4.92617C10.746 4.9981 10.7924 5.03406 10.8819 5.03406C11.2009 5.0283 11.5199 5.02902 11.8389 5.03406C11.9266 5.03406 11.9572 5.00853 11.9532 4.91934C11.9464 4.7755 11.9532 4.63165 11.9532 4.48781L11.9493 4.48529ZM11.2534 5.82664C11.4206 6.09959 11.5738 6.35096 11.7292 6.60125C11.772 6.66993 11.8436 6.63937 11.9022 6.63721C11.9741 6.63433 11.9475 6.57104 11.9478 6.53184C11.9504 6.32974 11.9478 6.12764 11.9478 5.92554C11.9478 5.87663 11.9572 5.82484 11.8784 5.82592C11.6796 5.82844 11.4793 5.82664 11.2534 5.82664ZM10.7525 6.64009L10.2764 5.86836C10.2332 5.79823 10.1631 5.827 10.1052 5.82952C10.0333 5.83312 10.0628 5.89677 10.0624 5.93489C10.0595 6.13663 10.0624 6.33837 10.0624 6.54011C10.0624 6.58758 10.0494 6.64188 10.1296 6.64081C10.3281 6.63865 10.5277 6.64009 10.7525 6.64009Z" fill="#2F80ED"/>
</g>
</g>
<defs>
<clipPath id="clip0_1_1284">
<rect width="18.4008" height="19.6178" fill="white" transform="translate(0.5495 0.191162)"/>
</clipPath>
<clipPath id="clip1_1_1284">
<rect width="4.3247" height="4.52788" fill="white" transform="translate(8.84393 3.94122)"/>
</clipPath>
</defs>
</svg>
