<svg width="20" height="20" viewBox="0 0 20 20" fill="none" xmlns="http://www.w3.org/2000/svg">
<g clip-path="url(#clip0_4_6504)">
<path d="M7.00548 4.69284L7.00559 4.69307C7.09243 4.87789 7.14803 5.01055 7.17817 5.11624C7.20733 5.21853 7.20786 5.27984 7.19795 5.32599C7.18792 5.37272 7.16153 5.43021 7.09167 5.51518C7.01998 5.60236 6.91451 5.70443 6.76077 5.84259C6.61469 5.97211 6.46984 6.10147 6.32539 6.23049C6.03757 6.48754 5.75133 6.74319 5.45999 6.99588L5.45975 6.99609C5.37965 7.06574 5.31461 7.15365 5.28795 7.26791C5.26276 7.37585 5.27904 7.47808 5.30161 7.56271L5.30152 7.56273L5.30349 7.56938C5.90951 9.6124 7.0581 11.297 8.66943 12.6611L8.6699 12.6615C9.77256 13.5903 11.0134 14.2993 12.4283 14.6911L12.4285 14.6911C12.5092 14.7134 12.6094 14.7314 12.7169 14.7087C12.8309 14.6847 12.9205 14.6221 12.9932 14.5426L12.9932 14.5426L12.9966 14.5388C13.137 14.3785 13.2826 14.2165 13.4292 14.0531C13.638 13.8207 13.8491 13.5857 14.0508 13.3499C14.2149 13.16 14.3346 13.0284 14.4372 12.9382C14.5377 12.8498 14.6048 12.8167 14.6597 12.8044C14.7138 12.7924 14.786 12.7939 14.9094 12.8319C15.0362 12.871 15.1955 12.9416 15.4188 13.0493C16.7732 13.7044 18.0461 14.5024 19.2694 15.3831C19.3584 15.4472 19.44 15.5301 19.5283 15.6307C19.5566 15.663 19.5879 15.6999 19.6209 15.7388C19.6601 15.785 19.7016 15.834 19.7433 15.8813V15.8815V15.8821V15.8826V15.8831V15.8836V15.8842V15.8847V15.8852V15.8857V15.8863V15.8868V15.8873V15.8878V15.8884V15.8889V15.8894V15.8899V15.8905V15.891V15.8915V15.892V15.8926V15.8931V15.8936V15.8941V15.8947V15.8952V15.8957V15.8962V15.8968V15.8973V15.8978V15.8983V15.8989V15.8994V15.8999V15.9004V15.901V15.9015V15.902V15.9025V15.9031V15.9036V15.9041V15.9046V15.9052V15.9057V15.9062V15.9067V15.9073V15.9078V15.9083V15.9088V15.9094V15.9099V15.9104V15.9109V15.9115V15.912V15.9125V15.913V15.9136V15.9141V15.9146V15.9151V15.9157V15.9162V15.9167V15.9172V15.9178V15.9183V15.9188V15.9193V15.9199V15.9204V15.9209V15.9214V15.922V15.9225V15.923V15.9235V15.9241V15.9246V15.9251V15.9256V15.9262V15.9267V15.9272V15.9277V15.9283V15.9288V15.9293V15.9298V15.9304V15.9309V15.9314V15.9319V15.9325V15.933V15.9335V15.934V15.9346V15.9351V15.9356V15.9361V15.9367V15.9372V15.9377V15.9382V15.9388V15.9393V15.9398V15.9403V15.9409V15.9414V15.9419V15.9424V15.943V15.9435V15.944V15.9445V15.9451V15.9456V15.9461V15.9466V15.9472V15.9477V15.9482V15.9487V15.9493V15.9498V15.9503V15.9508V15.9514V15.9519V15.9524V15.9529V15.9535V15.954V15.9545V15.955V15.9556V15.9561V15.9566V15.9571V15.9577V15.9582V15.9587V15.9592V15.9598V15.9603V15.9608V15.9613V15.9619V15.9624V15.9629V15.9634V15.964V15.9645V15.965V15.9655V15.9661V15.9666V15.9671V15.9676V15.9682V15.9687V15.9692V15.9697V15.9703V15.9708V15.9713V15.9718V15.9724V15.9729V15.9733C19.7027 16.0307 19.6651 16.0857 19.6289 16.1387C19.5319 16.2806 19.4447 16.4081 19.3342 16.5299C18.2756 17.6766 17.064 18.6546 15.7748 19.5481L15.774 19.5487C15.4703 19.7609 15.1667 19.7989 14.7852 19.7274L14.7835 19.7271C13.4467 19.486 12.1866 19.0167 10.9937 18.3653C7.31977 16.3488 4.40785 13.5262 2.19426 9.9774L2.19418 9.97727C1.32026 8.57812 0.669708 7.08631 0.31832 5.46562C0.193841 4.88881 0.237744 4.43941 0.59296 4.01226C0.910164 3.63289 1.21695 3.24466 1.52121 2.85963C1.53736 2.83918 1.55351 2.81875 1.56965 2.79832C1.8906 2.39224 2.20945 1.99011 2.53997 1.59968C2.98734 1.0749 3.44614 0.593043 4.01671 0.249969H4.01678H4.01731H4.01783H4.01836H4.01888H4.01941H4.01993H4.02046H4.02098H4.02151H4.02203H4.02256H4.02308H4.02361H4.02413H4.02466H4.02518H4.02571H4.02623H4.02676H4.02728H4.02781H4.02833H4.02886H4.02938H4.02991H4.03043H4.03096H4.03148H4.032H4.03253H4.03305H4.03358H4.0341H4.03463H4.03515H4.03568H4.0362H4.03673H4.03725H4.03778H4.0383H4.03883H4.03935H4.03988H4.0404H4.04093H4.04145H4.04198H4.0425H4.04303H4.04355H4.04408H4.0446H4.04513H4.04565H4.04618H4.0467H4.04723H4.04775H4.04828H4.0488H4.04933H4.04985H4.05038H4.0509H4.05143H4.05195H4.05248H4.053H4.05353H4.05405H4.05458H4.0551H4.05563H4.05615H4.05668H4.0572H4.05773H4.05825H4.05878H4.0593H4.05983H4.06035H4.06088H4.0614H4.06192H4.06245H4.06297H4.0635H4.06402H4.06455H4.06507H4.0656H4.06612H4.06665H4.06717H4.0677H4.06822H4.06875H4.06927H4.0698H4.07032H4.07085H4.07137H4.0719H4.07242H4.07295H4.07347H4.074H4.07452H4.07505H4.07557H4.0761H4.07662H4.07715H4.07767H4.0782H4.07872H4.07925H4.07977H4.0803H4.08082H4.08135H4.08187H4.0824H4.08292H4.08345H4.08397H4.0845H4.08502H4.08555H4.08607H4.0866H4.08712H4.08765H4.08817H4.0887H4.08922H4.08975H4.09027H4.0908H4.09132H4.09185H4.09237H4.0929H4.09342H4.09395H4.09447H4.095H4.09552H4.09604H4.09657H4.09709H4.09762H4.09814H4.09867H4.09919H4.09972H4.10024H4.10077H4.10129H4.10182H4.10234H4.10287H4.10339H4.10392H4.10444H4.10497H4.10549H4.10602H4.10654H4.10707H4.10759H4.10812H4.10864H4.10917H4.10969H4.11022H4.11074H4.11127H4.11179H4.11232H4.11284H4.11337H4.11389H4.11435C4.17554 0.30932 4.23901 0.368107 4.29969 0.424309C4.34259 0.464042 4.38409 0.502484 4.42241 0.538921C4.5442 0.654732 4.64997 0.764588 4.73431 0.883348C5.58962 2.09953 6.37797 3.35386 7.00548 4.69284Z" fill="#32A7E2" stroke="#E4F0F6" stroke-width="0.5"/>
<path d="M19.9933 9.29448C19.5275 9.29448 19.0572 9.29448 18.5689 9.29448C18.5196 7.13546 17.7806 5.27208 16.2576 3.74464C14.7346 2.21721 12.8757 1.46917 10.6943 1.4199C10.6943 0.945091 10.6943 0.470287 10.6943 -0.0045166C10.9049 -0.0045166 11.1109 -0.0045166 11.3214 -0.0045166C11.7873 0.0716312 12.2621 0.125383 12.7235 0.223927C16.2934 0.989884 19.1691 3.96413 19.8186 7.54755C19.8858 7.91934 19.9351 8.29112 19.9888 8.66738C19.9933 8.8779 19.9933 9.08843 19.9933 9.29448Z" fill="#32A7E2"/>
<path d="M16.4099 9.28552C15.9351 9.28552 15.4782 9.28552 14.9944 9.28552C14.9586 8.11643 14.5555 7.09516 13.7223 6.26201C12.8937 5.43782 11.8813 5.03021 10.7078 4.99885C10.7078 4.52405 10.7078 4.06716 10.7078 3.60579C13.3237 3.44902 16.4054 5.76481 16.4099 9.28552Z" fill="#32A7E2"/>
</g>
<defs>
<clipPath id="clip0_4_6504">
<rect width="19.9866" height="20" fill="white" transform="translate(0.00671387 -3.05176e-05)"/>
</clipPath>
</defs>
</svg>
