<svg width="25" height="24" viewBox="0 0 25 24" fill="none" xmlns="http://www.w3.org/2000/svg">
<path d="M8.8399 11.29L14.4999 5.63998C14.5929 5.54625 14.7035 5.47185 14.8253 5.42108C14.9472 5.37032 15.0779 5.34418 15.2099 5.34418C15.3419 5.34418 15.4726 5.37032 15.5945 5.42108C15.7163 5.47185 15.8269 5.54625 15.9199 5.63998C16.1062 5.82734 16.2107 6.08079 16.2107 6.34498C16.2107 6.60916 16.1062 6.86261 15.9199 7.04998L10.9699 12.05L15.9199 17C16.1062 17.1873 16.2107 17.4408 16.2107 17.705C16.2107 17.9692 16.1062 18.2226 15.9199 18.41C15.8273 18.5045 15.7168 18.5796 15.595 18.6311C15.4731 18.6826 15.3422 18.7094 15.2099 18.71C15.0776 18.7094 14.9467 18.6826 14.8248 18.6311C14.703 18.5796 14.5925 18.5045 14.4999 18.41L8.8399 12.76C8.7384 12.6663 8.65739 12.5527 8.60198 12.4262C8.54657 12.2997 8.51797 12.1631 8.51797 12.025C8.51797 11.8869 8.54657 11.7503 8.60198 11.6238C8.65739 11.4973 8.7384 11.3836 8.8399 11.29Z" fill="#8D8E8D"/>
</svg>
