<svg width="26" height="20" viewBox="0 0 26 20" fill="none" xmlns="http://www.w3.org/2000/svg">
<g clip-path="url(#clip0_4_6512)">
<path d="M0.407471 5.794C0.523752 5.38683 0.804195 5.10387 1.09832 4.82437C3.92669 2.14321 7.25781 0.51105 11.1156 0.107323C16.5603 -0.462035 21.2629 1.21153 25.1788 5.09352C25.921 5.82851 25.6303 6.98103 24.6487 7.25018C24.1768 7.37786 23.7937 7.20877 23.4346 6.89476C22.7335 6.28745 22.0529 5.64218 21.2937 5.11768C18.5679 3.23707 15.5343 2.37785 12.234 2.56074C8.50613 2.76778 5.30839 4.2205 2.6305 6.83955C1.84389 7.60905 0.821296 7.3675 0.451931 6.32886C0.438251 6.2978 0.421151 6.2702 0.407471 6.24259C0.407471 6.09421 0.407471 5.94238 0.407471 5.794Z" fill="#B548C6"/>
<path d="M13.5507 5.07617C16.3791 5.12793 19.2109 6.30806 21.5468 8.67521C21.899 9.03062 22.0461 9.45505 21.8888 9.94505C21.7314 10.4316 21.3929 10.7352 20.8935 10.8353C20.4934 10.9147 20.1445 10.787 19.8538 10.5144C19.1801 9.87603 18.4516 9.32048 17.6377 8.87879C14.0364 6.92917 9.42956 7.42262 6.41308 10.3936C5.93085 10.8664 5.44521 10.9733 4.94246 10.7387C4.13191 10.3557 3.93355 9.36189 4.556 8.70971C5.85219 7.3536 7.38779 6.36672 9.14911 5.7456C10.4214 5.29701 11.7312 5.07617 13.5507 5.07617Z" fill="#B548C6"/>
<path d="M13.1848 10.1865C15.1547 10.2244 16.7793 10.9836 18.0857 12.4363C18.5611 12.9643 18.5235 13.8131 18.0241 14.3031C17.5111 14.8069 16.8066 14.7897 16.2457 14.2548C14.7443 12.8228 12.6923 12.5364 11.0233 13.5474C10.7189 13.7338 10.4385 13.9718 10.1786 14.2237C9.60743 14.7724 8.90632 14.8242 8.37963 14.3238C7.85295 13.8235 7.81533 12.9712 8.31465 12.4191C9.62795 10.9698 11.2559 10.2175 13.1848 10.1865Z" fill="#B548C6"/>
<path d="M13.1301 20.0002C11.8066 20.0002 10.7395 18.9236 10.7395 17.5917C10.7395 16.2597 11.81 15.1797 13.1301 15.1797C14.4537 15.1797 15.5207 16.2563 15.5173 17.5917C15.5173 18.9271 14.4571 20.0002 13.1301 20.0002Z" fill="#B548C6"/>
</g>
<defs>
<clipPath id="clip0_4_6512">
<rect width="25.1852" height="20" fill="white" transform="translate(0.407471 0.000213623)"/>
</clipPath>
</defs>
</svg>
