<svg width="27" height="18" viewBox="0 0 27 18" fill="none" xmlns="http://www.w3.org/2000/svg">
<g clip-path="url(#clip0_4_6478)">
<path d="M0.996216 15.8568C0.996216 11.4696 0.996216 7.088 0.996216 2.70078C1.00749 2.68386 1.01877 2.66695 1.02441 2.65003C1.19922 1.69138 2.20298 0.975217 3.39283 1.26845C6.70298 2.09176 10.0019 1.9677 13.2669 0.958299C17.0451 -0.214633 20.8515 -0.321776 24.6861 0.676344C25.6898 0.935743 26.2086 1.58988 26.2086 2.61619C26.2086 6.69326 26.2086 10.7647 26.2086 14.8418C26.2086 14.9263 26.2086 15.0109 26.203 15.0955C26.1466 16.1839 25.1485 16.9621 24.077 16.7647C23.2425 16.6068 22.4079 16.4151 21.562 16.3136C18.9793 16.0034 16.4361 16.2515 13.9549 17.0241C10.1203 18.2196 6.25749 18.3211 2.37779 17.2609C1.90411 17.1312 1.52629 16.8775 1.27253 16.4545C1.15975 16.2741 1.08644 16.0598 0.996216 15.8568ZM2.80073 3.02221C2.79509 3.09552 2.78945 3.16883 2.78945 3.24213C2.78945 7.26281 2.79509 11.2778 2.79509 15.2985C2.79509 15.4677 2.8402 15.541 3.00937 15.5861C4.37404 15.9414 5.76125 16.1444 7.17103 16.1951C9.41539 16.2741 11.5864 15.885 13.7293 15.2365C16.5601 14.3737 19.4473 14.182 22.374 14.6162C23.0507 14.7177 23.7161 14.8587 24.4097 14.9827C24.4097 14.4019 24.4097 13.8211 24.4097 13.2459C24.4097 9.74965 24.4097 6.25905 24.4097 2.76281C24.4097 2.61619 24.4379 2.48086 24.2237 2.42446C22.8928 2.08048 21.5451 1.86619 20.1748 1.81544C17.9643 1.73086 15.8101 2.05792 13.6955 2.71206C10.78 3.60868 7.81388 3.83424 4.79697 3.38311C4.13719 3.28161 3.47742 3.14063 2.80073 3.02221Z" fill="#F59E0B"/>
<g clip-path="url(#clip1_4_6478)">
<path d="M9.91858 12.2889C9.99547 12.0674 10.0724 11.846 10.1477 11.6245C10.2261 11.3923 10.3 11.1585 10.3815 10.9279C10.3999 10.8771 10.4291 10.8248 10.4676 10.7864C11.9178 9.33313 13.3695 7.8814 14.8212 6.42814C14.832 6.41737 14.8428 6.40815 14.8489 6.40353C15.2687 6.82337 15.687 7.2432 16.1099 7.6661C16.1007 7.67687 16.0823 7.69686 16.0623 7.71685C14.6275 9.1532 13.1911 10.5895 11.7548 12.0228C11.7025 12.0751 11.6333 12.1182 11.5641 12.1412C11.1473 12.2858 10.7275 12.4227 10.3077 12.5626C10.1062 12.6303 10.0216 12.598 9.91858 12.4119C9.91858 12.3704 9.91858 12.3288 9.91858 12.2889Z" fill="#F59E0B"/>
<path d="M16.1806 5.22714C16.239 5.2702 16.3036 5.30865 16.3559 5.3594C16.6327 5.6316 16.9065 5.90841 17.1817 6.18368C17.3232 6.32516 17.3232 6.45588 17.1833 6.59429C16.948 6.82958 16.7142 7.06487 16.4851 7.29247C16.0637 6.8711 15.6454 6.4528 15.2072 6.01452C15.2179 6.00837 15.2471 5.99914 15.2671 5.98069C15.4701 5.77923 15.67 5.57469 15.8746 5.37478C15.9315 5.31941 15.9961 5.27635 16.0576 5.22714C16.0976 5.22714 16.1391 5.22714 16.1806 5.22714Z" fill="#F59E0B"/>
</g>
</g>
<defs>
<clipPath id="clip0_4_6478">
<rect width="25.2068" height="18" fill="white" transform="translate(0.996216 9.15527e-05)"/>
</clipPath>
<clipPath id="clip1_4_6478">
<rect width="7.36781" height="7.36627" fill="white" transform="translate(9.91858 5.22723)"/>
</clipPath>
</defs>
</svg>
