<svg width="22" height="22" viewBox="0 0 22 22" fill="none" xmlns="http://www.w3.org/2000/svg">
<g clip-path="url(#clip0_4_6521)">
<path d="M0.0500804 10.988C0.064441 4.93264 4.96143 0.0404433 11.0025 0.0500171C17.0627 0.0595909 21.9644 4.97093 21.9453 11.0216C21.9309 17.0722 17.0148 21.9692 10.9785 21.95C4.92792 21.9309 0.0357197 17.0243 0.0500804 10.988ZM1.5771 10.9833C1.55795 16.1722 5.74647 20.3847 10.969 20.4182C16.158 20.4565 20.3991 16.2297 20.4183 11.012C20.4374 5.80864 16.2154 1.58182 11.0025 1.57703C5.80392 1.57225 1.59624 5.77034 1.5771 10.9833Z" fill="#FF8700"/>
<path d="M10.1361 12.673C9.33188 12.673 8.54683 12.673 7.75699 12.673C7.66125 12.673 7.56552 12.673 7.46978 12.673C7.0964 12.6682 6.95279 12.4241 7.14427 12.0986C8.69522 9.43231 10.251 6.7708 11.8067 4.1045C11.912 3.9226 12.0508 3.82208 12.2567 3.89388C12.4625 3.97047 12.4912 4.1428 12.4625 4.34864C12.2614 5.92831 12.0652 7.50319 11.8641 9.08286C11.8546 9.15467 11.8546 9.22647 11.8498 9.327C11.9455 9.327 12.0269 9.327 12.1131 9.327C12.9077 9.327 13.7023 9.327 14.5017 9.327C14.9086 9.327 15.0426 9.56634 14.8368 9.92057C13.2906 12.5725 11.7445 15.2197 10.2031 17.8716C10.093 18.0583 9.95896 18.1827 9.74355 18.1014C9.52335 18.02 9.51378 17.8333 9.53771 17.6275C9.73876 16.0478 9.93502 14.4729 10.1313 12.8932C10.1409 12.831 10.1361 12.7688 10.1361 12.673Z" fill="#FF8700"/>
</g>
<defs>
<clipPath id="clip0_4_6521">
<rect width="21.9" height="21.9" fill="white" transform="translate(0.0500488 0.0500183)"/>
</clipPath>
</defs>
</svg>
