<svg width="16" height="16" viewBox="0 0 16 16" fill="none" xmlns="http://www.w3.org/2000/svg">
<path fill-rule="evenodd" clip-rule="evenodd" d="M14.04 10.25H10.44L10.44 13.85H14.04V10.25ZM10.44 8.89996H14.04C14.7856 8.89996 15.39 9.50438 15.39 10.25V13.85C15.39 14.5955 14.7856 15.2 14.04 15.2H10.44C9.69438 15.2 9.08997 14.5955 9.08997 13.85V10.25C9.08997 9.50438 9.69438 8.89996 10.44 8.89996Z" fill="#B5B6B5"/>
<path fill-rule="evenodd" clip-rule="evenodd" d="M5.93999 2.14999H2.33999L2.33999 5.74999H5.93999V2.14999ZM14.04 2.14999H10.44V5.74999H14.04V2.14999ZM5.93999 10.25H2.33999L2.33999 13.85H5.93999V10.25ZM5.93999 0.799988H2.33999C1.59441 0.799988 0.98999 1.4044 0.98999 2.14999V5.74999C0.98999 6.49557 1.59441 7.09999 2.33999 7.09999H5.93999C6.68558 7.09999 7.28999 6.49557 7.28999 5.74999V2.14999C7.28999 1.4044 6.68557 0.799988 5.93999 0.799988ZM14.04 0.799988H10.44C9.69441 0.799988 9.08999 1.4044 9.08999 2.14999V5.74999C9.08999 6.49557 9.69441 7.09999 10.44 7.09999H14.04C14.7856 7.09999 15.39 6.49557 15.39 5.74999V2.14999C15.39 1.4044 14.7856 0.799988 14.04 0.799988ZM2.33999 8.89999H5.93999C6.68557 8.89999 7.28999 9.5044 7.28999 10.25V13.85C7.28999 14.5956 6.68558 15.2 5.93999 15.2H2.33999C1.59441 15.2 0.98999 14.5956 0.98999 13.85V10.25C0.98999 9.5044 1.59441 8.89999 2.33999 8.89999Z" fill="#B5B6B5"/>
</svg>
