<svg width="19" height="18" viewBox="0 0 19 18" fill="none" xmlns="http://www.w3.org/2000/svg">
<path fill-rule="evenodd" clip-rule="evenodd" d="M1.98999 4.27498C1.98999 3.90218 2.36929 3.59998 2.83718 3.59998H15.5427C16.0106 3.59998 16.3899 3.90218 16.3899 4.27498C16.3899 4.64777 16.0106 4.94998 15.5427 4.94998H2.83718C2.36929 4.94998 1.98999 4.64777 1.98999 4.27498Z" fill="#11453B"/>
<path fill-rule="evenodd" clip-rule="evenodd" d="M1.98999 8.94722C1.98999 8.57442 2.36929 8.27222 2.83718 8.27222H15.5427C16.0106 8.27222 16.3899 8.57442 16.3899 8.94722C16.3899 9.32001 16.0106 9.62222 15.5427 9.62222H2.83718C2.36929 9.62222 1.98999 9.32001 1.98999 8.94722Z" fill="#11453B"/>
<path fill-rule="evenodd" clip-rule="evenodd" d="M1.98999 13.6194C1.98999 13.2466 2.36929 12.9444 2.83718 12.9444H15.5427C16.0106 12.9444 16.3899 13.2466 16.3899 13.6194C16.3899 13.9922 16.0106 14.2944 15.5427 14.2944H2.83718C2.36929 14.2944 1.98999 13.9922 1.98999 13.6194Z" fill="#11453B"/>
</svg>
