<svg width="24" height="24" viewBox="0 0 24 24" fill="none" xmlns="http://www.w3.org/2000/svg">
<g clip-path="url(#clip0_4_6489)">
<path d="M14.1064 0.000396729C14.5855 0.0943302 15.0739 0.155387 15.5436 0.29159C18.3381 1.08063 20.4281 3.55108 20.771 6.43484C21.2125 10.1734 18.8829 13.5926 15.2759 14.499C11.2367 15.5135 7.09426 12.827 6.37097 8.72212C5.74161 5.17143 7.5968 1.79922 10.9267 0.502941C11.5232 0.272804 12.1761 0.19296 12.8054 0.0426668C12.8665 0.0285768 12.9275 0.0144867 12.9839 0.000396729C13.3549 0.000396729 13.7307 0.000396729 14.1064 0.000396729ZM19.423 7.35069C19.4136 4.05363 16.7694 1.39531 13.5099 1.4094C10.2692 1.41879 7.63437 4.10529 7.64377 7.37887C7.65316 10.6525 10.3115 13.3202 13.5522 13.3108C16.7882 13.3014 19.4324 10.6196 19.423 7.35069Z" fill="#116487"/>
<path d="M3.6892 17.0962C3.73617 16.9036 3.76435 16.7346 3.82071 16.5749C4.14478 15.659 4.83519 15.2081 5.75573 15.0015C7.32442 14.6492 8.81797 14.8089 10.2598 15.5463C10.7765 15.8093 11.3213 16.0394 11.8755 16.2273C12.209 16.34 12.5753 16.3823 12.9323 16.3964C13.6414 16.4199 14.3553 16.4011 15.0645 16.4058C15.5812 16.4058 15.8583 16.6923 15.8442 17.2089C15.8254 17.9087 15.6047 18.5381 15.182 19.1533C15.5295 19.1533 15.8442 19.1627 16.1542 19.1486C16.2152 19.144 16.2763 19.0594 16.3326 19.0031C16.9902 18.3455 17.643 17.6833 18.3052 17.0351C19.5874 15.7811 21.6023 15.7436 22.9362 16.9412C23.3589 17.3216 23.373 17.7303 22.9737 18.1295C21.3299 19.778 19.6814 21.4218 18.0375 23.0657C17.4035 23.6997 16.6379 24.0097 15.7456 24.0097C11.0207 24.0097 6.29585 24.0097 1.571 24.0097C1.0121 24.0003 0.744385 23.7326 0.744385 23.1784C0.744385 21.4218 0.744385 19.6653 0.744385 17.904C0.744385 17.3545 1.0074 17.0962 1.5663 17.0962C2.26611 17.0915 2.97061 17.0962 3.6892 17.0962ZM5.10759 22.596C5.22031 22.596 5.30485 22.596 5.38939 22.596C8.80857 22.596 12.2324 22.5913 15.6516 22.6007C16.2246 22.6007 16.6943 22.4128 17.0982 22.0042C18.4978 20.5952 19.9021 19.1956 21.3064 17.7913C21.3534 17.7443 21.391 17.6927 21.4473 17.6316C21.391 17.6081 21.3581 17.5847 21.3205 17.5753C20.5268 17.3263 19.827 17.4907 19.2305 18.0778C18.5213 18.7823 17.8074 19.4821 17.1123 20.2007C16.8634 20.4543 16.5957 20.567 16.2434 20.5623C14.0501 20.553 11.852 20.553 9.65867 20.553C9.36748 20.553 9.08098 20.5576 8.78979 20.5436C8.51738 20.5295 8.32012 20.3792 8.2074 20.1349C8.09937 19.8954 8.12286 19.6606 8.27785 19.4445C8.44223 19.2097 8.68176 19.1393 8.95417 19.1393C9.99213 19.144 11.0301 19.144 12.0728 19.144C12.2747 19.144 12.4814 19.144 12.6786 19.1252C13.3972 19.0453 14.1064 18.4629 14.2849 17.8007C13.8575 17.8007 13.4395 17.796 13.0215 17.8007C12.3593 17.8101 11.7111 17.7068 11.1005 17.4531C10.5369 17.223 9.97804 16.9835 9.43323 16.7111C8.26376 16.1334 7.06611 16.0958 5.83088 16.434C5.32364 16.5702 5.10759 16.8614 5.10759 17.3827C5.10759 18.6226 5.10759 19.8672 5.10759 21.1072C5.10759 21.5956 5.10759 22.0794 5.10759 22.596ZM3.6892 22.5819C3.6892 21.2152 3.6892 19.8672 3.6892 18.5146C3.17256 18.5146 2.67472 18.5146 2.16278 18.5146C2.16278 19.8766 2.16278 21.2246 2.16278 22.5819C2.67472 22.5819 3.17256 22.5819 3.6892 22.5819Z" fill="#116487"/>
<g clip-path="url(#clip1_4_6489)">
<path d="M14.6904 5.25337C14.6904 5.07211 14.6948 4.89042 14.6904 4.70916C14.6869 4.61325 14.7229 4.5873 14.814 4.58862C15.0722 4.59346 15.3309 4.59522 15.5887 4.58862C15.6987 4.58554 15.7299 4.62249 15.7282 4.7294C15.7225 5.06991 15.7313 5.41087 15.7238 5.75182C15.7212 5.87676 15.7506 5.9278 15.8866 5.92252C16.1831 5.91548 16.1835 5.92252 16.1835 6.22784C16.1835 6.40909 16.1796 6.59079 16.1835 6.77204C16.1862 6.86003 16.1629 6.89523 16.0656 6.89699C15.7251 6.90403 15.7251 6.90842 15.7251 7.2573C15.7251 7.42756 15.7295 7.59825 15.7251 7.76851C15.722 7.86178 15.7537 7.88993 15.847 7.89301C16.1835 7.90269 16.1835 7.90621 16.1835 8.24013C16.1835 8.41038 16.1796 8.58108 16.1835 8.75134C16.1866 8.84372 16.1558 8.87232 16.0617 8.87408C15.7247 8.88112 15.7251 8.88508 15.7251 9.22119C15.7251 9.47944 15.7212 9.73812 15.7251 9.99593C15.7251 10.098 15.6912 10.1279 15.5931 10.1257C15.3076 10.12 15.0212 10.1196 14.7357 10.1257C14.6955 10.1296 14.6551 10.1211 14.6198 10.1014C14.5846 10.0816 14.5563 10.0516 14.5386 10.0153C14.3345 9.67653 14.1215 9.34306 13.9192 9.00342C13.8628 8.9084 13.8026 8.86572 13.6864 8.86792C13.2962 8.87628 12.906 8.87452 12.5157 8.86792C12.4075 8.86792 12.3758 8.89916 12.378 9.0065C12.3846 9.33074 12.3754 9.65498 12.3829 9.97921C12.3855 10.0971 12.3472 10.1288 12.2333 10.1248C11.9861 10.1169 11.7384 10.1152 11.4916 10.1248C11.3618 10.1306 11.3349 10.0808 11.3371 9.96425C11.3442 9.65102 11.3341 9.33778 11.342 9.02454C11.3451 8.904 11.3147 8.86308 11.1876 8.86616C10.895 8.8732 10.8946 8.86616 10.8946 8.57712C10.8946 8.38487 10.8981 8.19217 10.8946 7.99992C10.8946 7.91193 10.9249 7.88949 11.0089 7.88641C11.3411 7.87321 11.3411 7.87014 11.3411 7.53446C11.3411 7.3642 11.3363 7.19351 11.3411 7.02325C11.3446 6.9247 11.3143 6.89127 11.2118 6.89127C10.8946 6.88819 10.8946 6.88379 10.8946 6.56043C10.8946 6.39017 10.8998 6.21948 10.8946 6.04922C10.8902 5.94891 10.9218 5.91724 11.0239 5.91724C11.342 5.9124 11.342 5.90756 11.342 5.58112C11.342 5.29516 11.3451 5.0092 11.342 4.72368C11.342 4.62733 11.3657 4.58642 11.4713 4.58906C11.7516 4.59565 12.0318 4.59477 12.312 4.58906C12.3498 4.58604 12.3875 4.59461 12.4202 4.61364C12.4529 4.63267 12.479 4.66124 12.4951 4.69552C12.715 5.06243 12.9447 5.42494 13.1647 5.79273C13.2183 5.88072 13.2751 5.92472 13.3846 5.92472C13.7749 5.91768 14.1651 5.91856 14.5553 5.92472C14.6627 5.92472 14.7 5.89348 14.6952 5.78438C14.6868 5.6084 14.6952 5.43242 14.6952 5.25645L14.6904 5.25337ZM13.8391 6.89435C14.0437 7.22826 14.2311 7.53578 14.4211 7.84198C14.4735 7.92601 14.561 7.88861 14.6327 7.88597C14.7207 7.88245 14.6882 7.80502 14.6886 7.75707C14.6917 7.50982 14.6886 7.26258 14.6886 7.01533C14.6886 6.9555 14.7 6.89215 14.6037 6.89347C14.3604 6.89655 14.1154 6.89435 13.8391 6.89435ZM13.2262 7.88949L12.6438 6.94538C12.591 6.85959 12.5052 6.89479 12.4344 6.89787C12.3464 6.90227 12.3824 6.98013 12.382 7.02677C12.3785 7.27357 12.382 7.52038 12.382 7.76719C12.382 7.82526 12.3662 7.89169 12.4643 7.89037C12.7071 7.88773 12.9513 7.88949 13.2262 7.88949Z" fill="#116487"/>
</g>
</g>
<defs>
<clipPath id="clip0_4_6489">
<rect width="22.5112" height="24" fill="white" transform="translate(0.744385 0.00012207)"/>
</clipPath>
<clipPath id="clip1_4_6489">
<rect width="5.29073" height="5.5393" fill="white" transform="translate(10.8916 4.58783)"/>
</clipPath>
</defs>
</svg>
