<svg width="24" height="24" viewBox="0 0 24 24" fill="none" xmlns="http://www.w3.org/2000/svg">
<g clip-path="url(#clip0_4_6468)">
<path d="M23.9977 18.8824C23.9507 19.1172 23.9132 19.3566 23.8615 19.5914C23.3028 22.1219 21.0493 23.9763 18.4625 23.9857C14.162 23.9998 9.85683 24.0045 5.55636 23.9857C2.51881 23.9716 0.0399317 21.474 0.0164575 18.4411C0.00237301 16.5538 0.00706785 14.6618 0.0164575 12.7745C0.0211524 11.704 0.509415 10.8918 1.46716 10.413C2.42491 9.93409 3.36388 10.028 4.22303 10.6665C6.03054 12.0045 7.82397 13.3566 9.62209 14.7087C11.1244 15.8402 12.8662 15.8496 14.3827 14.7181C16.1855 13.3707 17.9789 12.0186 19.7817 10.6759C21.2653 9.57259 23.3263 10.2205 23.8803 11.9529C23.9319 12.1078 23.9648 12.2674 24.0071 12.4224C23.9977 14.5726 23.9977 16.7275 23.9977 18.8824ZM11.9789 22.1172C14.0869 22.1172 16.1949 22.1172 18.3028 22.1172C20.4765 22.1125 22.1197 20.4693 22.1244 18.2862C22.1244 16.4834 22.1197 14.6806 22.1291 12.8731C22.1291 12.5256 22.0352 12.2439 21.7066 12.0796C21.378 11.9153 21.0963 12.0186 20.8193 12.2252C19.0352 13.5679 17.2512 14.9106 15.4625 16.2439C13.3075 17.8449 10.655 17.8261 8.51411 16.2158C6.73477 14.8824 4.95073 13.5491 3.17608 12.2111C2.90378 12.0045 2.62679 11.92 2.30754 12.0796C1.99298 12.2393 1.885 12.5069 1.885 12.8496C1.8897 14.6759 1.885 16.5022 1.8897 18.3332C1.8897 18.582 1.90848 18.8355 1.96012 19.0796C2.32632 20.8824 3.83805 22.1172 5.68312 22.1172C7.77702 22.1172 9.88031 22.1172 11.9789 22.1172Z" fill="#5542CF"/>
<path d="M16.6408 -0.000244141C17.0398 0.0889577 17.453 0.149991 17.8426 0.276751C20.1525 1.01384 21.7206 3.1453 21.744 5.55844C21.7487 6.1453 21.7487 6.72745 21.744 7.31431C21.7393 7.88238 21.3356 8.29553 20.7957 8.29084C20.2699 8.28614 19.8802 7.87299 19.8708 7.31431C19.8567 6.57253 19.899 5.82605 19.8192 5.09365C19.6267 3.3237 18.0398 1.89177 16.2605 1.87769C13.4483 1.85891 10.6408 1.85422 7.82855 1.87769C5.90836 1.89647 4.26986 3.55844 4.22761 5.49271C4.21353 6.09365 4.22761 6.69459 4.22292 7.29553C4.21822 7.88238 3.81916 8.30022 3.27456 8.29553C2.73935 8.29083 2.34498 7.87299 2.34968 7.29553C2.35437 6.51619 2.3309 5.73215 2.40132 4.9575C2.61259 2.58192 4.5985 0.483324 6.95531 0.0936526C7.12433 0.0654835 7.28864 0.0326197 7.45766 -0.000244141C10.5187 -0.000244141 13.5797 -0.000244141 16.6408 -0.000244141Z" fill="#5542CF"/>
<g clip-path="url(#clip1_4_6468)">
<path d="M13.425 6.17943C13.425 5.96301 13.4303 5.74606 13.425 5.52964C13.4208 5.41512 13.4639 5.38413 13.5726 5.38571C13.881 5.39149 14.1899 5.39359 14.4977 5.38571C14.629 5.38203 14.6663 5.42616 14.6642 5.5538C14.6574 5.96038 14.6679 6.36748 14.659 6.77459C14.6558 6.92377 14.691 6.9847 14.8533 6.9784C15.2074 6.97 15.2079 6.9784 15.2079 7.34295C15.2079 7.55937 15.2032 7.77632 15.2079 7.99274C15.211 8.0978 15.1832 8.13982 15.0671 8.14193C14.6605 8.15033 14.6605 8.15558 14.6605 8.57214C14.6605 8.77543 14.6658 8.97924 14.6605 9.18253C14.6569 9.29389 14.6947 9.32751 14.806 9.33119C15.2079 9.34275 15.2079 9.34695 15.2079 9.74565C15.2079 9.94894 15.2032 10.1528 15.2079 10.356C15.2116 10.4664 15.1748 10.5005 15.0624 10.5026C14.66 10.511 14.6605 10.5157 14.6605 10.9171C14.6605 11.2254 14.6558 11.5343 14.6605 11.8421C14.6605 11.964 14.6201 11.9997 14.5029 11.9971C14.162 11.9902 13.8201 11.9897 13.4791 11.9971C13.4312 12.0017 13.3829 11.9916 13.3408 11.968C13.2988 11.9444 13.2649 11.9086 13.2438 11.8652C13.0001 11.4607 12.7458 11.0626 12.5042 10.657C12.437 10.5436 12.365 10.4926 12.2263 10.4952C11.7604 10.5052 11.2944 10.5031 10.8285 10.4952C10.6993 10.4952 10.6615 10.5325 10.6641 10.6607C10.672 11.0479 10.6609 11.435 10.6699 11.8221C10.673 11.9629 10.6273 12.0007 10.4913 11.996C10.1961 11.9866 9.90032 11.9844 9.60563 11.996C9.45067 12.0028 9.41862 11.9435 9.42125 11.8043C9.42966 11.4303 9.41757 11.0563 9.42703 10.6822C9.43071 10.5383 9.39446 10.4895 9.24265 10.4931C8.89333 10.5015 8.89281 10.4931 8.89281 10.148C8.89281 9.91847 8.89701 9.68839 8.89281 9.45884C8.89281 9.35378 8.92905 9.32699 9.02938 9.32331C9.42598 9.30755 9.42598 9.30387 9.42598 8.90308C9.42598 8.69979 9.4202 8.49597 9.42598 8.29268C9.43018 8.17502 9.39394 8.1351 9.27154 8.1351C8.89281 8.13142 8.89281 8.12617 8.89281 7.74008C8.89281 7.53679 8.89911 7.33297 8.89281 7.12968C8.88755 7.00992 8.92537 6.97209 9.04724 6.97209C9.42703 6.96632 9.42703 6.96054 9.42703 6.57077C9.42703 6.22933 9.43071 5.88789 9.42703 5.54697C9.42703 5.43193 9.45539 5.38308 9.58146 5.38623C9.91608 5.39411 10.2507 5.39306 10.5853 5.38623C10.6303 5.38263 10.6754 5.39287 10.7145 5.41559C10.7535 5.43831 10.7847 5.47242 10.8038 5.51335C11.0665 5.95145 11.3407 6.38429 11.6033 6.82344C11.6674 6.9285 11.7352 6.98103 11.866 6.98103C12.3319 6.97262 12.7978 6.97367 13.2638 6.98103C13.3919 6.98103 13.4366 6.94373 13.4308 6.81346C13.4208 6.60334 13.4308 6.39322 13.4308 6.1831L13.425 6.17943ZM12.4086 8.13877C12.6529 8.53747 12.8766 8.90465 13.1036 9.27026C13.1661 9.37059 13.2706 9.32594 13.3562 9.32278C13.4613 9.31858 13.4224 9.22613 13.4229 9.16887C13.4266 8.87366 13.4229 8.57844 13.4229 8.28323C13.4229 8.21179 13.4366 8.13615 13.3216 8.13772C13.0311 8.1414 12.7385 8.13877 12.4086 8.13877ZM11.6769 9.32699L10.9814 8.19971C10.9183 8.09728 10.8159 8.1393 10.7313 8.14298C10.6263 8.14823 10.6693 8.2412 10.6688 8.29689C10.6646 8.59158 10.6688 8.88627 10.6688 9.18096C10.6688 9.2503 10.6499 9.32961 10.7671 9.32804C11.057 9.32489 11.3486 9.32699 11.6769 9.32699Z" fill="#5542CF"/>
</g>
</g>
<defs>
<clipPath id="clip0_4_6468">
<rect width="23.9953" height="24" fill="white" transform="translate(0.00231934 6.10352e-05)"/>
</clipPath>
<clipPath id="clip1_4_6468">
<rect width="6.31718" height="6.61398" fill="white" transform="translate(8.89001 5.38574)"/>
</clipPath>
</defs>
</svg>
