<svg width="30" height="20" viewBox="0 0 30 20" fill="none" xmlns="http://www.w3.org/2000/svg">
<g clip-path="url(#clip0_4_6453)">
<path d="M0.996216 17.6189C0.996216 12.7442 0.996216 7.87574 0.996216 3.00106C1.00875 2.98226 1.02128 2.96346 1.02754 2.94467C1.22178 1.8795 2.33707 1.08376 3.65912 1.40958C7.33707 2.32437 11.0025 2.18652 14.6303 1.06497C18.8283 -0.238291 23.0576 -0.357339 27.3183 0.751684C28.4336 1.0399 29.01 1.76672 29.01 2.90707C29.01 7.43715 29.01 11.961 29.01 16.491C29.01 16.585 29.01 16.679 29.0037 16.773C28.9411 17.9823 27.8321 18.8469 26.6416 18.6276C25.7143 18.4522 24.7869 18.2391 23.8471 18.1264C20.9774 17.7818 18.1516 18.0574 15.3947 18.9158C11.1341 20.2442 6.84208 20.3569 2.5313 19.179C2.00499 19.0349 1.58519 18.7529 1.30323 18.283C1.17792 18.0825 1.09647 17.8444 0.996216 17.6189ZM3.00123 3.3582C2.99496 3.43965 2.9887 3.52111 2.9887 3.60256C2.9887 8.06998 2.99496 12.5311 2.99496 16.9985C2.99496 17.1865 3.04509 17.268 3.23306 17.3181C4.74935 17.7128 6.2907 17.9384 7.85712 17.9948C10.3509 18.0825 12.7631 17.6502 15.1441 16.9296C18.2894 15.971 21.4975 15.7579 24.7493 16.2404C25.5012 16.3532 26.2406 16.5098 27.0113 16.6477C27.0113 16.0023 27.0113 15.3569 27.0113 14.7178C27.0113 10.8331 27.0113 6.95469 27.0113 3.06998C27.0113 2.90707 27.0426 2.7567 26.8045 2.69404C25.3258 2.31183 23.8283 2.07374 22.3057 2.01735C19.8496 1.92336 17.4561 2.28677 15.1065 3.01359C11.8671 4.00983 8.5714 4.26046 5.21927 3.7592C4.48619 3.64642 3.75311 3.48978 3.00123 3.3582Z" fill="#11453B"/>
<path d="M22.5002 6.00251C22.0239 6.00251 21.5414 6.00877 21.0652 6.00251C20.4574 5.99624 20.0062 5.57641 20.0062 5.00619C20.0062 4.43597 20.4449 4.00987 21.0589 4.0036C22.0302 3.99733 22.9952 3.99733 23.9664 4.0036C24.568 4.00987 25.0192 4.44223 25.0129 5.01245C25.0066 5.57014 24.568 5.98998 23.979 5.99624C23.4777 6.00877 22.9889 6.00251 22.5002 6.00251Z" fill="#11453B"/>
<path d="M7.50015 15.9964C7.02392 15.9964 6.54142 16.0026 6.06519 15.9964C5.45111 15.9901 5.00621 15.5703 4.99994 15.0063C4.99368 14.4361 5.43858 14.0037 6.04639 13.9975C7.01765 13.9912 7.98264 13.9912 8.9539 13.9975C9.56171 13.9975 10.0066 14.4361 10.0003 15.0001C9.99408 15.564 9.54918 15.9838 8.94136 15.9901C8.45887 15.9964 7.97637 15.9964 7.50015 15.9964Z" fill="#11453B"/>
<g clip-path="url(#clip1_4_6453)">
<path d="M16.6107 7.20051C16.6107 6.94791 16.6168 6.6947 16.6107 6.4421C16.6058 6.30844 16.6561 6.27227 16.783 6.27411C17.1429 6.28085 17.5034 6.28331 17.8627 6.27411C18.0159 6.26982 18.0595 6.32132 18.057 6.4703C18.0491 6.94484 18.0613 7.42 18.0509 7.89515C18.0472 8.06928 18.0883 8.1404 18.2777 8.13304C18.691 8.12323 18.6916 8.13304 18.6916 8.55853C18.6916 8.81113 18.6861 9.06434 18.6916 9.31694C18.6953 9.43956 18.6628 9.48861 18.5273 9.49106C18.0527 9.50087 18.0527 9.507 18.0527 9.99319C18.0527 10.2305 18.0589 10.4683 18.0527 10.7056C18.0484 10.8356 18.0926 10.8748 18.2226 10.8791C18.6916 10.8926 18.6916 10.8975 18.6916 11.3629C18.6916 11.6001 18.6861 11.838 18.6916 12.0753C18.6959 12.204 18.653 12.2439 18.5218 12.2463C18.0521 12.2562 18.0527 12.2617 18.0527 12.7301C18.0527 13.09 18.0472 13.4505 18.0527 13.8098C18.0527 13.952 18.0055 13.9937 17.8688 13.9906C17.4709 13.9827 17.0718 13.982 16.6739 13.9906C16.6179 13.996 16.5615 13.9842 16.5124 13.9567C16.4633 13.9292 16.4238 13.8873 16.3992 13.8367C16.1147 13.3646 15.818 12.8999 15.5359 12.4266C15.4575 12.2942 15.3735 12.2347 15.2116 12.2378C14.6678 12.2494 14.124 12.247 13.5801 12.2378C13.4293 12.2378 13.3852 12.2813 13.3882 12.4309C13.3974 12.8827 13.3846 13.3346 13.395 13.7865C13.3987 13.9508 13.3453 13.9949 13.1865 13.9894C12.842 13.9784 12.4968 13.9759 12.1528 13.9894C11.972 13.9974 11.9346 13.9281 11.9376 13.7656C11.9475 13.3291 11.9334 12.8926 11.9444 12.456C11.9487 12.288 11.9064 12.231 11.7292 12.2353C11.3215 12.2451 11.3209 12.2353 11.3209 11.8325C11.3209 11.5646 11.3258 11.296 11.3209 11.0281C11.3209 10.9055 11.3632 10.8742 11.4803 10.8699C11.9432 10.8515 11.9432 10.8472 11.9432 10.3794C11.9432 10.1422 11.9364 9.90429 11.9432 9.66702C11.9481 9.52969 11.9058 9.48309 11.7629 9.48309C11.3209 9.4788 11.3209 9.47267 11.3209 9.02204C11.3209 8.78477 11.3282 8.54688 11.3209 8.30961C11.3147 8.16982 11.3589 8.12568 11.5011 8.12568C11.9444 8.11894 11.9444 8.11219 11.9444 7.65727C11.9444 7.25875 11.9487 6.86024 11.9444 6.46233C11.9444 6.32806 11.9775 6.27104 12.1246 6.27472C12.5152 6.28392 12.9057 6.28269 13.2963 6.27472C13.3488 6.27051 13.4014 6.28247 13.447 6.30899C13.4926 6.3355 13.529 6.37532 13.5513 6.42309C13.8579 6.93442 14.1779 7.43962 14.4845 7.95217C14.5593 8.07479 14.6384 8.1361 14.791 8.1361C15.3348 8.12629 15.8787 8.12752 16.4225 8.1361C16.5721 8.1361 16.6242 8.09257 16.6175 7.94052C16.6058 7.69528 16.6175 7.45004 16.6175 7.2048L16.6107 7.20051ZM15.4244 9.48738C15.7095 9.95273 15.9706 10.3813 16.2355 10.808C16.3085 10.9251 16.4305 10.873 16.5304 10.8693C16.653 10.8644 16.6076 10.7565 16.6083 10.6897C16.6126 10.3451 16.6083 10.0006 16.6083 9.65599C16.6083 9.57261 16.6242 9.48432 16.4899 9.48616C16.1509 9.49045 15.8094 9.48738 15.4244 9.48738ZM14.5703 10.8742L13.7586 9.5585C13.685 9.43895 13.5654 9.488 13.4667 9.49229C13.3441 9.49842 13.3944 9.60694 13.3938 9.67193C13.3889 10.0159 13.3938 10.3598 13.3938 10.7038C13.3938 10.7847 13.3717 10.8773 13.5084 10.8754C13.8468 10.8718 14.1871 10.8742 14.5703 10.8742Z" fill="#11453B"/>
</g>
</g>
<defs>
<clipPath id="clip0_4_6453">
<rect width="28.0075" height="20" fill="white" transform="translate(0.996216)"/>
</clipPath>
<clipPath id="clip1_4_6453">
<rect width="7.37318" height="7.71958" fill="white" transform="translate(11.3165 6.27335)"/>
</clipPath>
</defs>
</svg>
