<svg width="19" height="19" viewBox="0 0 19 19" fill="none" xmlns="http://www.w3.org/2000/svg">
<g clip-path="url(#clip0_614_702)">
<path d="M10.4224 18.5C9.60195 18.5 8.78153 18.5 7.96111 18.5C7.8097 18.4894 7.65829 18.4718 7.50688 18.4648C6.41885 18.4155 5.33787 18.3134 4.27449 18.0422C2.4435 17.5775 1.22871 16.4753 0.711106 14.6338C0.397726 13.5211 0.281529 12.3838 0.228712 11.2359C0.165331 9.87323 0.172374 8.50704 0.263923 7.14436C0.330824 6.19718 0.454064 5.26056 0.718148 4.34155C1.22167 2.61267 2.33435 1.51408 4.06674 1.02112C5.16885 0.711263 6.29561 0.595066 7.42942 0.542249C8.80618 0.478869 10.1794 0.485911 11.5562 0.57746C12.4153 0.633798 13.2674 0.749996 14.1055 0.961263C15.9928 1.43662 17.2041 2.59507 17.7041 4.48943C17.9365 5.36971 18.0527 6.2676 18.1196 7.17253C18.1442 7.53873 18.1689 7.90845 18.19 8.27464C18.19 9.09507 18.19 9.91549 18.19 10.7359C18.1794 10.8873 18.1618 11.0387 18.1548 11.1901C18.1055 12.2782 17.9998 13.3592 17.7322 14.4225C17.2534 16.3099 16.0984 17.5211 14.2076 18.0211C13.3273 18.2535 12.4294 18.3697 11.5245 18.4366C11.1548 18.4577 10.7886 18.4789 10.4224 18.5ZM9.19702 1.99295C8.53505 2.01408 7.87308 2.0176 7.21463 2.05633C6.24984 2.10915 5.29209 2.21831 4.35899 2.5C3.29913 2.82394 2.5773 3.48591 2.22871 4.55281C1.90477 5.53521 1.79561 6.55281 1.7428 7.57746C1.66885 9.02816 1.66885 10.4824 1.77449 11.9331C1.83435 12.75 1.94702 13.5599 2.1935 14.3486C2.5104 15.3732 3.1442 16.0845 4.17237 16.4401C5.17589 16.7852 6.21463 16.8979 7.2604 16.9507C8.71111 17.0282 10.1653 17.0246 11.616 16.919C12.44 16.8591 13.2569 16.7465 14.0491 16.4965C15.0738 16.1761 15.7815 15.5387 16.1336 14.507C16.4224 13.662 16.5421 12.7887 16.609 11.9084C16.7146 10.4683 16.7146 9.02816 16.6407 7.58802C16.5914 6.59859 16.4822 5.61619 16.1935 4.66197C15.866 3.59155 15.2005 2.85563 14.1196 2.53521C13.6231 2.38732 13.1125 2.27112 12.5984 2.19366C11.4717 2.02112 10.3343 2.00352 9.19702 1.99295Z" fill="#8D8E8D"/>
</g>
<defs>
<clipPath id="clip0_614_702">
<rect width="18" height="18" fill="white" transform="translate(0.189941 0.5)"/>
</clipPath>
</defs>
</svg>
