<svg width="22" height="22" viewBox="0 0 22 22" fill="none" xmlns="http://www.w3.org/2000/svg">
<path d="M0.998901 9.3155C1.02239 9.23721 1.04587 9.15501 1.06936 9.07672C1.24551 8.44651 1.63303 7.99635 2.23584 7.74583C7.56331 5.54987 12.8947 3.3539 18.2222 1.15794C18.9933 0.840874 19.8427 1.00919 20.422 1.58852C20.9974 2.16393 21.1579 3.00161 20.8409 3.77274C18.6449 9.10804 16.4489 14.4472 14.253 19.7825C13.9985 20.4049 13.5327 20.7846 12.8869 20.9569C12.8438 20.9686 12.8047 20.9843 12.7616 20.9999C12.5385 20.9999 12.3193 20.9999 12.0962 20.9999C12.0022 20.9725 11.9122 20.949 11.8182 20.9216C11.2624 20.7455 10.8318 20.4128 10.6048 19.8726C10.0646 18.5926 9.53615 17.3047 9.00771 16.0169C8.81982 15.555 9.05469 15.1166 9.52441 15.0461C9.83365 14.9992 10.1194 15.1714 10.2564 15.5041C10.6244 16.3927 10.9923 17.2813 11.3603 18.1698C11.509 18.5299 11.6577 18.8901 11.8104 19.2502C11.9239 19.5242 12.1392 19.6729 12.4093 19.669C12.7029 19.6612 12.9182 19.5281 13.0317 19.2502C15.2237 13.9188 17.4158 8.58742 19.6078 3.25604C19.7214 2.98595 19.69 2.74326 19.4865 2.53971C19.2595 2.30876 18.9933 2.28528 18.6958 2.40662C16.7973 3.19341 14.8988 3.97237 13.0004 4.75525C9.59095 6.1566 6.18545 7.56186 2.77603 8.9632C2.49419 9.08064 2.32979 9.31941 2.32979 9.61299C2.32979 9.887 2.48245 10.0905 2.77603 10.2119C4.63536 10.9752 6.49077 11.7385 8.34618 12.5057C8.47144 12.5566 8.53799 12.5409 8.62802 12.447C9.5753 11.488 10.5265 10.5329 11.4816 9.58168C11.8691 9.19415 12.4719 9.33507 12.6207 9.84002C12.6911 10.0866 12.6363 10.3097 12.4602 10.4898C11.3563 11.5976 10.2525 12.7014 9.14472 13.8053C8.91768 14.0284 8.63976 14.0754 8.3501 13.954C6.27156 13.0929 4.18912 12.2395 2.11841 11.3666C1.52343 11.1161 1.18679 10.6151 1.04196 9.98877C1.03022 9.94571 1.01456 9.90657 0.998901 9.86351C0.998901 9.67953 0.998901 9.49947 0.998901 9.3155Z" fill="#219653" stroke="#219653" stroke-width="0.490446"/>
</svg>
