<svg width="24" height="24" viewBox="0 0 24 24" fill="none" xmlns="http://www.w3.org/2000/svg">
<path d="M18.0001 7.5V10.5M18.0001 10.5V13.5M18.0001 10.5H21.0001M18.0001 10.5H15.0001M12.7501 6.375C12.7501 8.23896 11.2391 9.75 9.37512 9.75C7.51116 9.75 6.00012 8.23896 6.00012 6.375C6.00012 4.51104 7.51116 3 9.37512 3C11.2391 3 12.7501 4.51104 12.7501 6.375ZM3.00104 19.2343C3.00043 19.198 3.00012 19.1615 3.00012 19.125C3.00012 15.6042 5.85431 12.75 9.37512 12.75C12.8959 12.75 15.7501 15.6042 15.7501 19.125V19.1276C15.7501 19.1632 15.7498 19.1988 15.7492 19.2343C13.8875 20.3552 11.7066 21 9.37512 21C7.04365 21 4.86276 20.3552 3.00104 19.2343Z" stroke="#EA4E4B" stroke-width="1.47134" stroke-linecap="round" stroke-linejoin="round"/>
</svg>
