<svg width="8" height="12" viewBox="0 0 8 12" fill="none" xmlns="http://www.w3.org/2000/svg">
<path d="M2.59 1.01171L6.83 5.30171C6.92372 5.39467 6.99812 5.50527 7.04889 5.62713C7.09966 5.74899 7.12579 5.8797 7.12579 6.01171C7.12579 6.14372 7.09966 6.27443 7.04889 6.39629C6.99812 6.51815 6.92372 6.62875 6.83 6.72171L2.59 10.9617C2.49703 11.0554 2.38643 11.1298 2.26457 11.1806C2.14271 11.2314 2.01201 11.2575 1.88 11.2575C1.74798 11.2575 1.61728 11.2314 1.49542 11.1806C1.37356 11.1298 1.26296 11.0554 1.17 10.9617C0.983744 10.7743 0.879203 10.5209 0.879203 10.2567C0.879203 9.99252 0.983744 9.73907 1.17 9.55171L4.71 6.01171L1.17 2.47171C0.985251 2.28545 0.8811 2.03405 0.879995 1.77171C0.879234 1.6401 0.904459 1.50964 0.954224 1.3878C1.00399 1.26596 1.07731 1.15515 1.17 1.06171C1.25961 0.964634 1.36758 0.88628 1.48765 0.831173C1.60773 0.776066 1.73754 0.745299 1.86957 0.74065C2.00161 0.736001 2.13325 0.757562 2.25691 0.804087C2.38056 0.850612 2.49377 0.921178 2.59 1.01171Z" fill="#898989"/>
</svg>
