<svg width="30" height="28" viewBox="0 0 30 28" fill="none" xmlns="http://www.w3.org/2000/svg">
<path d="M18 17.2163V14.0363C17.9986 12.6194 17.4958 11.2487 16.5806 10.167C15.6655 9.08534 14.3971 8.3624 13 8.12626V7.03625C13 6.77104 12.8946 6.51668 12.7071 6.32915C12.5196 6.14161 12.2652 6.03625 12 6.03625C11.7348 6.03625 11.4804 6.14161 11.2929 6.32915C11.1054 6.51668 11 6.77104 11 7.03625V8.12626C9.60294 8.3624 8.33452 9.08534 7.41939 10.167C6.50425 11.2487 6.00144 12.6194 6 14.0363V17.2163C5.41645 17.4226 4.911 17.8043 4.55294 18.3092C4.19488 18.8141 4.00174 19.4173 4 20.0363V22.0363C4 22.3015 4.10536 22.5558 4.29289 22.7434C4.48043 22.9309 4.73478 23.0363 5 23.0363H8.14C8.37028 23.8836 8.873 24.6317 9.5706 25.165C10.2682 25.6983 11.1219 25.9873 12 25.9873C12.8781 25.9873 13.7318 25.6983 14.4294 25.165C15.127 24.6317 15.6297 23.8836 15.86 23.0363H19C19.2652 23.0363 19.5196 22.9309 19.7071 22.7434C19.8946 22.5558 20 22.3015 20 22.0363V20.0363C19.9983 19.4173 19.8051 18.8141 19.4471 18.3092C19.089 17.8043 18.5835 17.4226 18 17.2163ZM8 14.0363C8 12.9754 8.42143 11.958 9.17157 11.2078C9.92172 10.4577 10.9391 10.0363 12 10.0363C13.0609 10.0363 14.0783 10.4577 14.8284 11.2078C15.5786 11.958 16 12.9754 16 14.0363V17.0363H8V14.0363ZM12 24.0363C11.651 24.0341 11.3086 23.9407 11.0068 23.7653C10.7051 23.5899 10.4545 23.3385 10.28 23.0363H13.72C13.5455 23.3385 13.2949 23.5899 12.9932 23.7653C12.6914 23.9407 12.349 24.0341 12 24.0363ZM18 21.0363H6V20.0363C6 19.771 6.10536 19.5167 6.29289 19.3291C6.48043 19.1416 6.73478 19.0363 7 19.0363H17C17.2652 19.0363 17.5196 19.1416 17.7071 19.3291C17.8946 19.5167 18 19.771 18 20.0363V21.0363Z" fill="#8B8B8B"/>
<rect x="14" y="0.0362549" width="16" height="16" rx="8" fill="#C92F02"/>
<path d="M19.11 5.03625H24.24V5.96625L21.16 12.0363H19.6L22.66 6.25625H19.11V5.03625Z" fill="white"/>
</svg>
