<svg width="301" height="1049" viewBox="0 0 301 1049" fill="none" xmlns="http://www.w3.org/2000/svg">
<g clip-path="url(#clip0_1_1315)" filter="url(#filter0_d_1_1315)">
<rect width="272" height="1024" fill="white"/>
<path d="M271.998 0H-0.000274658V73.3507C-8.22234 75.6406 -16.19 78.5945 -23.8467 82.3398L-13.2657 150.702C34.634 127.272 94.7048 134.812 153.092 142.14C204.715 148.62 255.021 154.934 294.435 139.532L283.854 71.1703C280.003 72.6751 276.048 73.9727 271.998 75.083V0Z" fill="#11453B"/>
<mask id="mask0_1_1315" style="mask-type:alpha" maskUnits="userSpaceOnUse" x="-24" y="0" width="319" height="151">
<path d="M271.998 0H-0.000274658V73.3507C-8.22234 75.6406 -16.19 78.5945 -23.8467 82.3398L-13.2657 150.702C34.634 127.272 94.7048 134.812 153.092 142.14C204.715 148.62 255.021 154.934 294.435 139.532L283.854 71.1703C280.003 72.6751 276.048 73.9727 271.998 75.083V0Z" fill="#11453B"/>
</mask>
<g mask="url(#mask0_1_1315)">
<path opacity="0.5" fill-rule="evenodd" clip-rule="evenodd" d="M272.413 88.8573C193.995 106.307 85.4687 30.2438 0 56.8105V118.436C85.4687 91.8697 193.995 167.933 272.413 150.483V88.8573ZM272.413 -12.2182C193.995 5.23125 85.4687 -70.8799 0 -44.3131V17.3129C85.4687 -9.2539 193.995 66.8572 272.413 49.4077V-12.2182ZM272.413 190.574C193.995 208.023 85.4687 131.96 0 158.527V220.153C85.4687 193.586 193.995 269.649 272.413 252.2V190.574Z" fill="#175B4E"/>
</g>
<g clip-path="url(#clip1_1_1315)">
<mask id="path-4-inside-1_1_1315" fill="white">
<path d="M0 188H272V244H0V188Z"/>
</mask>
<path d="M0 188H272V244H0V188Z" fill="#F0F7EB" fill-opacity="0.5"/>
<path d="M40.3677 213.26C40.2906 213.486 40.2329 213.722 40.1317 213.929C39.7225 214.743 39.0532 215.2 38.148 215.219C36.5543 215.248 34.9605 215.243 33.3716 215.224C32.1679 215.21 31.1712 214.208 31.1567 213.009C31.1375 211.415 31.1375 209.822 31.1567 208.228C31.1712 207.029 32.1727 206.028 33.3716 206.013C34.9653 205.994 36.5591 205.999 38.148 206.013C39.1976 206.023 40.0836 206.784 40.3195 207.824C40.3292 207.877 40.3532 207.925 40.3725 207.978C40.3677 209.735 40.3677 211.497 40.3677 213.26Z" fill="#11453B"/>
<path d="M22.3551 225.99C22.2251 225.952 22.0999 225.918 21.9699 225.875C21.0647 225.581 20.4003 224.724 20.3906 223.766C20.3762 222.172 20.3714 220.578 20.3906 218.984C20.4051 217.786 21.4066 216.784 22.6055 216.77C24.1992 216.75 25.793 216.75 27.3819 216.77C28.5856 216.784 29.5823 217.781 29.5968 218.984C29.616 220.578 29.616 222.172 29.5968 223.766C29.5871 224.815 28.8168 225.716 27.7864 225.937C27.7334 225.947 27.6852 225.971 27.6323 225.985C25.8748 225.99 24.1174 225.99 22.3551 225.99Z" fill="#11453B"/>
<path d="M35.2783 225.991C34.792 225.846 34.2816 225.755 33.8194 225.552C31.9512 224.719 30.9112 222.75 31.2 220.675C31.4697 218.744 33.0779 217.126 35.0279 216.823C37.5991 216.423 39.9825 218.195 40.3243 220.766C40.3291 220.81 40.3532 220.853 40.3677 220.901C40.3677 221.224 40.3677 221.542 40.3677 221.864C40.3532 221.907 40.334 221.951 40.3243 221.999C40.0017 223.92 38.9136 225.186 37.0694 225.803C36.7998 225.894 36.5157 225.933 36.2365 226C35.9187 225.991 35.5961 225.991 35.2783 225.991Z" fill="#11453B"/>
<path d="M29.6064 210.64C29.6064 211.377 29.6112 212.114 29.6064 212.85C29.6016 214.237 28.6145 215.224 27.2278 215.229C25.74 215.234 24.2522 215.234 22.7596 215.229C21.3825 215.224 20.3906 214.232 20.3858 212.85C20.381 211.363 20.381 209.87 20.3858 208.382C20.3906 206.995 21.3825 206.004 22.7644 206.004C24.2522 205.999 25.74 205.999 27.2326 206.004C28.6145 206.008 29.6064 206.995 29.6112 208.382C29.6112 209.133 29.6064 209.884 29.6064 210.64Z" fill="#11453B"/>
<path d="M53.3966 210.8H56.9646C58.1006 210.8 59.0926 211.04 59.9566 211.504C60.8046 211.984 61.4606 212.64 61.9246 213.472C62.3726 214.32 62.6126 215.296 62.6126 216.4C62.6126 217.504 62.3726 218.48 61.9246 219.328C61.4606 220.176 60.8046 220.832 59.9566 221.296C59.0926 221.776 58.1006 222 56.9646 222H53.3966V210.8ZM56.9646 220.4C58.1646 220.4 59.0926 220.048 59.7486 219.328C60.3886 218.608 60.7246 217.632 60.7246 216.4C60.7246 215.184 60.3886 214.208 59.7486 213.488C59.0926 212.768 58.1646 212.4 56.9646 212.4H55.2366V220.4H56.9646ZM71.8887 220.496V222H70.9767C70.4327 222 70.0487 221.888 69.8247 221.664C69.5847 221.44 69.4727 221.12 69.4727 220.688C68.8487 221.632 67.9527 222.096 66.7687 222.096C65.8407 222.096 65.1047 221.888 64.5607 221.456C64.0007 221.04 63.7287 220.448 63.7287 219.696C63.7287 218.864 64.0167 218.208 64.6247 217.76C65.2167 217.312 66.0807 217.072 67.2327 217.072H69.2967V216.576C69.2967 216.128 69.1367 215.76 68.8167 215.504C68.4967 215.248 68.0487 215.104 67.4887 215.104C66.9767 215.104 66.5607 215.216 66.2407 215.44C65.9207 215.664 65.7287 215.952 65.6647 216.304H63.9687C64.0487 215.488 64.4167 214.848 65.0567 214.4C65.6967 213.952 66.5287 213.712 67.5687 213.712C68.6567 213.712 69.5047 213.968 70.1127 214.48C70.7047 214.992 71.0087 215.728 71.0087 216.688V219.92C71.0087 220.304 71.1847 220.496 71.5527 220.496H71.8887ZM69.2967 218.352H67.1527C66.6087 218.352 66.2087 218.464 65.9207 218.672C65.6327 218.88 65.4887 219.184 65.4887 219.584C65.4887 219.936 65.6167 220.224 65.8887 220.432C66.1607 220.656 66.5287 220.752 67.0087 220.752C67.7127 220.752 68.2727 220.56 68.6727 220.176C69.0727 219.792 69.2807 219.28 69.2967 218.64V218.352ZM74.2059 219.296C74.2379 219.728 74.4299 220.08 74.7979 220.352C75.1659 220.624 75.6459 220.752 76.2379 220.752C76.7499 220.752 77.1819 220.656 77.5019 220.464C77.8219 220.272 77.9979 220 77.9979 219.664C77.9979 219.392 77.9179 219.184 77.7739 219.04C77.6139 218.912 77.4219 218.816 77.1659 218.752C76.9099 218.688 76.5259 218.624 76.0139 218.56C75.2939 218.48 74.7019 218.368 74.2379 218.224C73.7739 218.08 73.4059 217.856 73.1179 217.536C72.8299 217.216 72.7019 216.8 72.7019 216.256C72.7019 215.76 72.8299 215.312 73.1179 214.928C73.4059 214.544 73.7899 214.24 74.2859 214.016C74.7819 213.808 75.3419 213.696 75.9819 213.696C77.0059 213.696 77.8539 213.936 78.4939 214.384C79.1339 214.848 79.4859 215.488 79.5499 216.32H77.8699C77.8219 215.952 77.6299 215.648 77.3099 215.408C76.9739 215.168 76.5579 215.04 76.0619 215.04C75.5499 215.04 75.1499 215.136 74.8459 215.328C74.5259 215.52 74.3819 215.792 74.3819 216.112C74.3819 216.368 74.4459 216.544 74.6059 216.672C74.7659 216.8 74.9579 216.88 75.1979 216.928C75.4219 216.976 75.8059 217.024 76.3339 217.088C77.0379 217.168 77.6299 217.28 78.1099 217.44C78.5899 217.6 78.9739 217.84 79.2619 218.176C79.5499 218.512 79.6939 218.96 79.6939 219.536C79.6939 220.048 79.5339 220.512 79.2459 220.896C78.9419 221.28 78.5259 221.584 78.0139 221.792C77.4859 222 76.8939 222.096 76.2539 222.096C75.1499 222.096 74.2539 221.856 73.5819 221.36C72.9099 220.864 72.5579 220.176 72.5419 219.296H74.2059ZM87.7836 214.608C88.3916 215.216 88.7116 216.176 88.7116 217.488V222H86.9836V217.584C86.9836 216.816 86.8076 216.224 86.4716 215.808C86.1356 215.408 85.6556 215.2 85.0156 215.2C84.3276 215.2 83.7836 215.44 83.3996 215.92C83.0156 216.4 82.8236 217.04 82.8236 217.856V222H81.0956V210.8H82.8236V214.992C83.4316 214.144 84.2956 213.712 85.3996 213.712C86.3756 213.712 87.1756 214.016 87.7836 214.608ZM96.6671 214.224C97.2431 214.56 97.7071 215.04 98.0431 215.664C98.3631 216.304 98.5391 217.04 98.5391 217.904C98.5391 218.736 98.3631 219.456 98.0431 220.096C97.7071 220.736 97.2431 221.216 96.6671 221.568C96.0751 221.92 95.4031 222.096 94.6671 222.096C94.0591 222.096 93.5311 221.984 93.0831 221.76C92.6351 221.536 92.2671 221.216 91.9951 220.816L91.7871 222H90.2831V210.8H92.0111V215.024C92.6511 214.16 93.5471 213.712 94.6671 213.712C95.4031 213.712 96.0751 213.888 96.6671 214.224ZM96.1071 219.888C96.5551 219.376 96.7791 218.72 96.7791 217.904C96.7791 217.104 96.5551 216.464 96.1071 215.952C95.6591 215.44 95.0831 215.184 94.3791 215.184C93.6591 215.184 93.0831 215.44 92.6511 215.936C92.2031 216.448 91.9951 217.088 91.9951 217.888C91.9951 218.704 92.2031 219.36 92.6511 219.872C93.0831 220.384 93.6591 220.64 94.3791 220.64C95.0831 220.64 95.6591 220.4 96.1071 219.888ZM101.604 221.584C100.964 221.232 100.484 220.752 100.132 220.112C99.7797 219.472 99.6197 218.736 99.6197 217.904C99.6197 217.088 99.7797 216.368 100.132 215.728C100.484 215.088 100.964 214.592 101.604 214.24C102.244 213.888 102.964 213.712 103.796 213.712C104.612 213.712 105.332 213.888 105.972 214.24C106.612 214.592 107.092 215.088 107.444 215.728C107.796 216.368 107.972 217.088 107.972 217.904C107.972 218.736 107.796 219.472 107.444 220.112C107.092 220.752 106.612 221.232 105.972 221.584C105.332 221.936 104.612 222.096 103.796 222.096C102.964 222.096 102.244 221.936 101.604 221.584ZM105.54 219.872C105.988 219.36 106.212 218.704 106.212 217.904C106.212 217.104 105.988 216.464 105.54 215.952C105.092 215.44 104.516 215.184 103.796 215.184C103.06 215.184 102.484 215.44 102.052 215.952C101.604 216.464 101.396 217.104 101.396 217.904C101.396 218.704 101.604 219.36 102.052 219.872C102.484 220.384 103.06 220.624 103.796 220.624C104.516 220.624 105.092 220.384 105.54 219.872ZM117.201 220.496V222H116.289C115.745 222 115.361 221.888 115.137 221.664C114.897 221.44 114.785 221.12 114.785 220.688C114.161 221.632 113.265 222.096 112.081 222.096C111.153 222.096 110.417 221.888 109.873 221.456C109.313 221.04 109.041 220.448 109.041 219.696C109.041 218.864 109.329 218.208 109.937 217.76C110.529 217.312 111.393 217.072 112.545 217.072H114.609V216.576C114.609 216.128 114.449 215.76 114.129 215.504C113.809 215.248 113.361 215.104 112.801 215.104C112.289 215.104 111.873 215.216 111.553 215.44C111.233 215.664 111.041 215.952 110.977 216.304H109.281C109.361 215.488 109.729 214.848 110.369 214.4C111.009 213.952 111.841 213.712 112.881 213.712C113.969 213.712 114.817 213.968 115.425 214.48C116.017 214.992 116.321 215.728 116.321 216.688V219.92C116.321 220.304 116.497 220.496 116.865 220.496H117.201ZM114.609 218.352H112.465C111.921 218.352 111.521 218.464 111.233 218.672C110.945 218.88 110.801 219.184 110.801 219.584C110.801 219.936 110.929 220.224 111.201 220.432C111.473 220.656 111.841 220.752 112.321 220.752C113.025 220.752 113.585 220.56 113.985 220.176C114.385 219.792 114.593 219.28 114.609 218.64V218.352ZM122.67 213.808V215.424H121.902C121.182 215.424 120.67 215.664 120.35 216.128C120.03 216.592 119.87 217.184 119.87 217.888V222H118.142V213.808H119.678L119.87 215.04C120.094 214.656 120.398 214.368 120.782 214.144C121.15 213.92 121.646 213.808 122.286 213.808H122.67ZM131.329 210.8V222H129.825L129.617 220.768C128.961 221.664 128.065 222.096 126.945 222.096C126.193 222.096 125.521 221.936 124.945 221.6C124.353 221.264 123.889 220.784 123.569 220.144C123.233 219.504 123.073 218.768 123.073 217.904C123.073 217.072 123.233 216.352 123.569 215.712C123.905 215.072 124.369 214.592 124.961 214.24C125.537 213.888 126.209 213.712 126.945 213.712C127.537 213.712 128.065 213.824 128.513 214.048C128.961 214.272 129.313 214.56 129.601 214.944V210.8H131.329ZM128.961 219.888C129.393 219.392 129.617 218.736 129.617 217.936C129.617 217.12 129.393 216.464 128.961 215.952C128.513 215.44 127.937 215.184 127.233 215.184C126.513 215.184 125.937 215.44 125.505 215.952C125.057 216.464 124.849 217.104 124.849 217.904C124.849 218.72 125.057 219.376 125.505 219.888C125.937 220.4 126.513 220.64 127.233 220.64C127.937 220.64 128.513 220.4 128.961 219.888Z" fill="#11453B"/>
<path d="M0 188H2C3.10457 188 4 188.895 4 190V242C4 243.105 3.10457 244 2 244H0V188Z" fill="#11453B"/>
<path d="M272 243.2H0V244.8H272V243.2Z" fill="#E7E8E7" mask="url(#path-4-inside-1_1_1315)"/>
<mask id="path-12-inside-2_1_1315" fill="white">
<path d="M0 244H272V300H0V244Z"/>
</mask>
<path d="M0 244H272V300H0V244Z" fill="white"/>
<path d="M30.023 262C30.1521 262 30.2851 262 30.4142 262C31.0872 262.145 31.4511 262.587 31.6311 263.225C31.7133 263.518 31.8424 263.796 31.9363 264.09C31.9793 264.223 32.042 264.266 32.1867 264.266C33.3449 264.258 34.5031 264.262 35.6613 264.262C36.569 264.262 37.1325 264.829 37.1325 265.737C37.1325 266.18 37.1325 266.618 37.1325 267.06C37.1677 267.068 37.1834 267.076 37.2029 267.08C38.4198 267.221 39.2024 268.093 39.2024 269.314C39.2024 269.999 39.2024 270.68 39.2024 271.365C39.2024 271.436 39.2024 271.502 39.2024 271.565C39.2454 271.58 39.261 271.592 39.2806 271.596C39.9888 271.784 40.3723 272.281 40.3762 273.013C40.3762 274.022 40.3801 275.028 40.3762 276.038C40.3723 276.699 39.9575 277.224 39.3197 277.388C39.2845 277.396 39.2493 277.412 39.218 277.419C39.2102 277.443 39.2063 277.459 39.2063 277.47C39.2063 278.233 39.2102 278.993 39.2024 279.756C39.2024 279.948 39.1867 280.147 39.1437 280.335C38.9089 281.329 38.0637 281.994 37.0308 281.998C32.2024 282.002 27.374 281.998 22.5495 281.998C22.5182 281.998 22.483 281.998 22.4517 281.994C21.6848 281.943 21.0783 281.603 20.691 280.938C20.5423 280.687 20.4797 280.394 20.3779 280.124C20.3779 276.402 20.3779 272.676 20.3779 268.954C20.3897 268.919 20.4053 268.884 20.4131 268.845C20.6049 267.953 21.1409 267.389 22.0174 267.138C22.1348 267.107 22.2561 267.092 22.3852 267.064C22.303 266.841 22.2287 266.634 22.1543 266.426C21.8452 265.577 22.1856 264.845 23.0347 264.536C25.3628 263.691 27.6948 262.845 30.023 262ZM38.0285 271.565C38.0285 270.782 38.0285 270.027 38.0285 269.271C38.0285 268.657 37.6177 268.246 36.9955 268.246C32.1906 268.246 27.3896 268.246 22.5847 268.246C21.9548 268.246 21.5518 268.653 21.5518 269.283C21.5518 272.778 21.5518 276.273 21.5518 279.771C21.5518 280.413 21.9587 280.824 22.6004 280.824C27.3975 280.824 32.1946 280.824 36.9916 280.824C37.6177 280.824 38.0324 280.413 38.0324 279.787C38.0324 279.059 38.0324 278.327 38.0324 277.599C38.0324 277.545 38.0246 277.49 38.0207 277.427C37.4299 277.427 36.8547 277.431 36.2834 277.427C36.0291 277.427 35.7748 277.427 35.5243 277.396C34.1392 277.228 33.0671 276.097 32.9615 274.715C32.8597 273.326 33.7479 272.054 35.0978 271.682C35.3756 271.608 35.673 271.58 35.9626 271.573C36.6395 271.557 37.3242 271.565 38.0285 271.565ZM29.1269 267.076C29.1269 266.571 29.123 266.09 29.1269 265.608C29.1348 264.966 29.5769 264.43 30.2029 264.297C30.3712 264.262 30.5512 264.262 30.7507 264.242C30.6294 263.918 30.5238 263.593 30.3868 263.28C30.3634 263.229 30.2186 263.19 30.1442 263.205C29.9877 263.237 29.8391 263.307 29.6865 263.366C27.6048 264.121 25.5232 264.88 23.4416 265.636C23.1991 265.726 23.1717 265.784 23.2617 266.031C23.3634 266.313 23.4769 266.591 23.5669 266.872C23.6138 267.025 23.6881 267.08 23.8525 267.08C25.5389 267.072 27.2214 267.076 28.9078 267.076C28.9665 267.076 29.033 267.076 29.1269 267.076ZM37.3673 272.739C36.8782 272.739 36.393 272.735 35.9039 272.739C34.9061 272.751 34.1314 273.514 34.1275 274.484C34.1236 275.463 34.9022 276.245 35.9039 276.253C36.9055 276.261 37.9072 276.257 38.9089 276.253C39.1398 276.253 39.2024 276.194 39.2024 275.967C39.2024 274.985 39.2024 274.003 39.2024 273.021C39.2024 272.79 39.1476 272.739 38.9089 272.739C38.3924 272.739 37.8798 272.739 37.3673 272.739ZM35.9587 267.072C35.9587 266.575 35.9626 266.097 35.9547 265.616C35.9508 265.471 35.8374 265.432 35.7043 265.432C33.9866 265.432 32.2728 265.432 30.5551 265.432C30.3751 265.432 30.2929 265.51 30.2968 265.69C30.3008 266.007 30.2968 266.328 30.2968 266.645C30.2968 266.786 30.2968 266.923 30.2968 267.068C32.1946 267.072 34.061 267.072 35.9587 267.072Z" fill="#515251" stroke="#515251" stroke-width="0.4"/>
<path d="M35.8831 274.583C35.8699 274.582 35.8492 274.576 35.8287 274.555C35.8066 274.532 35.8005 274.51 35.8005 274.496C35.8005 274.477 35.8082 274.456 35.8268 274.438C35.8455 274.42 35.8673 274.412 35.8874 274.413L35.8994 273.913C36.2165 273.921 36.4749 274.187 36.471 274.508M35.8831 274.583L35.8871 274.413C35.9068 274.413 35.9279 274.422 35.9455 274.44C35.962 274.457 35.9703 274.477 35.971 274.498M35.8831 274.583C35.8985 274.583 35.9203 274.575 35.9412 274.555C35.9622 274.534 35.9698 274.513 35.971 274.498M35.8831 274.583L35.971 274.498M36.471 274.508L35.9711 274.495C35.9711 274.496 35.971 274.497 35.971 274.498M36.471 274.508L35.971 274.502C35.971 274.501 35.971 274.5 35.971 274.498M36.471 274.508L35.971 274.498" fill="#515251" stroke="#515251"/>
<path d="M52.6819 266.8L54.6019 266.784L56.9859 275.664L59.4819 266.8H61.2259L63.6419 275.664L66.0579 266.8H67.9299L64.7299 278H62.5699L60.2819 269.76L58.0419 278H55.8819L52.6819 266.8ZM76.0816 276.496V278H75.1696C74.6256 278 74.2416 277.888 74.0176 277.664C73.7776 277.44 73.6656 277.12 73.6656 276.688C73.0416 277.632 72.1456 278.096 70.9616 278.096C70.0336 278.096 69.2976 277.888 68.7536 277.456C68.1936 277.04 67.9216 276.448 67.9216 275.696C67.9216 274.864 68.2096 274.208 68.8176 273.76C69.4096 273.312 70.2736 273.072 71.4256 273.072H73.4896V272.576C73.4896 272.128 73.3296 271.76 73.0096 271.504C72.6896 271.248 72.2416 271.104 71.6816 271.104C71.1696 271.104 70.7536 271.216 70.4336 271.44C70.1136 271.664 69.9216 271.952 69.8576 272.304H68.1616C68.2416 271.488 68.6096 270.848 69.2496 270.4C69.8896 269.952 70.7216 269.712 71.7616 269.712C72.8496 269.712 73.6976 269.968 74.3056 270.48C74.8976 270.992 75.2016 271.728 75.2016 272.688V275.92C75.2016 276.304 75.3776 276.496 75.7456 276.496H76.0816ZM73.4896 274.352H71.3456C70.8016 274.352 70.4016 274.464 70.1136 274.672C69.8256 274.88 69.6816 275.184 69.6816 275.584C69.6816 275.936 69.8096 276.224 70.0816 276.432C70.3536 276.656 70.7216 276.752 71.2016 276.752C71.9056 276.752 72.4656 276.56 72.8656 276.176C73.2656 275.792 73.4736 275.28 73.4896 274.64V274.352ZM77.0228 266.8H78.7508V278H77.0228V266.8ZM80.4447 266.8H82.1727V278H80.4447V266.8ZM84.0586 271.712C84.3946 271.072 84.8586 270.592 85.4666 270.24C86.0746 269.888 86.7626 269.712 87.5466 269.712C88.3306 269.712 89.0186 269.872 89.6266 270.192C90.2346 270.512 90.6986 270.976 91.0506 271.552C91.4026 272.144 91.5786 272.832 91.5946 273.616C91.5946 273.84 91.5786 274.048 91.5466 274.272H85.3706V274.368C85.4026 275.088 85.6266 275.648 86.0426 276.064C86.4426 276.48 86.9866 276.688 87.6586 276.688C88.1866 276.688 88.6346 276.576 89.0026 276.32C89.3546 276.064 89.5946 275.712 89.7226 275.248H91.4506C91.2906 276.08 90.8906 276.768 90.2346 277.296C89.5786 277.84 88.7626 278.096 87.7866 278.096C86.9226 278.096 86.1866 277.936 85.5466 277.584C84.9066 277.232 84.4266 276.752 84.0746 276.112C83.7226 275.488 83.5626 274.752 83.5626 273.92C83.5626 273.088 83.7226 272.352 84.0586 271.712ZM89.8346 273.008C89.7546 272.416 89.5146 271.952 89.1146 271.616C88.7146 271.28 88.2186 271.104 87.6106 271.104C87.0346 271.104 86.5546 271.28 86.1386 271.632C85.7226 271.984 85.4986 272.432 85.4346 273.008H89.8346ZM93.4571 271.328H92.0331V269.808H93.4571V267.52H95.2011V269.808H97.1691V271.328H95.2011V275.6C95.2011 275.92 95.2651 276.16 95.3931 276.288C95.5211 276.416 95.7291 276.48 96.0491 276.48H97.3611V278H95.6971C94.9131 278 94.3371 277.824 93.9851 277.456C93.6331 277.104 93.4571 276.544 93.4571 275.776V271.328Z" fill="#515251"/>
<path d="M272 299.2H0V300.8H272V299.2Z" fill="#E7E8E7" mask="url(#path-12-inside-2_1_1315)"/>
<mask id="path-17-inside-3_1_1315" fill="white">
<path d="M0 300H272V356H0V300Z"/>
</mask>
<path d="M0 300H272V356H0V300Z" fill="white"/>
<path d="M35.3778 324.25V326.75M35.3778 326.75V329.25M35.3778 326.75H37.8778M35.3778 326.75H32.8778M31.0028 323.312C31.0028 324.866 29.7436 326.125 28.1903 326.125C26.637 326.125 25.3778 324.866 25.3778 323.312C25.3778 321.759 26.637 320.5 28.1903 320.5C29.7436 320.5 31.0028 321.759 31.0028 323.312ZM22.8786 334.029C22.8781 333.998 22.8778 333.968 22.8778 333.938C22.8778 331.003 25.2563 328.625 28.1903 328.625C31.1243 328.625 33.5028 331.003 33.5028 333.938V333.94C33.5028 333.969 33.5025 333.999 33.502 334.029C31.9506 334.963 30.1332 335.5 28.1903 335.5C26.2474 335.5 24.43 334.963 22.8786 334.029Z" stroke="#515251" stroke-width="1.6" stroke-linecap="round" stroke-linejoin="round"/>
<path d="M53.4019 322.8H60.7139V324.432H55.2419V327.536H59.7539V329.12H55.2419V332.368H60.9059V334H53.4019V322.8ZM73.8896 326.592C74.4496 327.168 74.7376 328.096 74.7376 329.376V334H73.0096V329.392C73.0096 328.688 72.8656 328.144 72.5776 327.76C72.2896 327.392 71.8576 327.2 71.2976 327.2C70.6896 327.2 70.2256 327.424 69.8736 327.84C69.5216 328.256 69.3616 328.832 69.3616 329.568V334H67.6176V329.392C67.6176 328.672 67.4576 328.128 67.1696 327.76C66.8816 327.392 66.4496 327.2 65.8896 327.2C65.2976 327.2 64.8336 327.424 64.4816 327.856C64.1296 328.304 63.9696 328.88 63.9696 329.616V334H62.2416V325.808H63.7456L63.9376 326.88C64.5136 326.112 65.3136 325.728 66.3376 325.712C66.9136 325.712 67.4096 325.84 67.8576 326.08C68.2896 326.336 68.6256 326.704 68.8656 327.2C69.1536 326.736 69.5216 326.368 70.0016 326.112C70.4656 325.856 71.0256 325.712 71.6976 325.712C72.5936 325.712 73.3136 326.016 73.8896 326.592ZM82.6881 326.224C83.2641 326.56 83.7281 327.04 84.0641 327.68C84.3841 328.32 84.5601 329.056 84.5601 329.904C84.5601 330.736 84.3841 331.472 84.0641 332.112C83.7281 332.752 83.2641 333.232 82.6881 333.584C82.0961 333.936 81.4241 334.096 80.6881 334.096C80.0801 334.096 79.5521 333.984 79.1041 333.76C78.6561 333.536 78.2881 333.232 78.0321 332.848V337.2H76.3041V325.808H77.8081L78.0161 327.024C78.6721 326.16 79.5681 325.712 80.6881 325.712C81.4241 325.712 82.0961 325.888 82.6881 326.224ZM82.1281 331.872C82.5761 331.36 82.8001 330.704 82.8001 329.904C82.8001 329.104 82.5761 328.448 82.1281 327.936C81.6801 327.44 81.1041 327.184 80.4001 327.184C79.6801 327.184 79.1041 327.44 78.6721 327.936C78.2241 328.432 78.0161 329.072 78.0161 329.872C78.0161 330.704 78.2241 331.36 78.6721 331.872C79.1041 332.384 79.6801 332.64 80.4001 332.64C81.1041 332.64 81.6801 332.384 82.1281 331.872ZM85.9447 322.8H87.6727V334H85.9447V322.8ZM91.0466 333.584C90.4066 333.232 89.9266 332.752 89.5746 332.112C89.2226 331.472 89.0626 330.736 89.0626 329.904C89.0626 329.088 89.2226 328.368 89.5746 327.728C89.9266 327.088 90.4066 326.592 91.0466 326.24C91.6866 325.888 92.4066 325.712 93.2386 325.712C94.0546 325.712 94.7746 325.888 95.4146 326.24C96.0546 326.592 96.5346 327.088 96.8866 327.728C97.2386 328.368 97.4146 329.088 97.4146 329.904C97.4146 330.736 97.2386 331.472 96.8866 332.112C96.5346 332.752 96.0546 333.232 95.4146 333.584C94.7746 333.936 94.0546 334.096 93.2386 334.096C92.4066 334.096 91.6866 333.936 91.0466 333.584ZM94.9826 331.872C95.4306 331.36 95.6546 330.704 95.6546 329.904C95.6546 329.104 95.4306 328.464 94.9826 327.952C94.5346 327.44 93.9586 327.184 93.2386 327.184C92.5026 327.184 91.9266 327.44 91.4946 327.952C91.0466 328.464 90.8386 329.104 90.8386 329.904C90.8386 330.704 91.0466 331.36 91.4946 331.872C91.9266 332.384 92.5026 332.624 93.2386 332.624C93.9586 332.624 94.5346 332.384 94.9826 331.872ZM99.5156 325.808L101.804 332.128L104.028 325.808H105.868L102.156 335.28C101.964 335.776 101.788 336.16 101.628 336.416C101.468 336.672 101.26 336.88 101.036 337.008C100.796 337.136 100.476 337.2 100.092 337.2H98.2356V335.68H99.4516C99.7716 335.68 100.012 335.632 100.14 335.536C100.268 335.44 100.396 335.2 100.54 334.848L100.876 334.064L97.6756 325.808H99.5156ZM106.621 327.712C106.957 327.072 107.421 326.592 108.029 326.24C108.637 325.888 109.325 325.712 110.109 325.712C110.893 325.712 111.581 325.872 112.189 326.192C112.797 326.512 113.261 326.976 113.613 327.552C113.965 328.144 114.141 328.832 114.157 329.616C114.157 329.84 114.141 330.048 114.109 330.272H107.933V330.368C107.965 331.088 108.189 331.648 108.605 332.064C109.005 332.48 109.549 332.688 110.221 332.688C110.749 332.688 111.197 332.576 111.565 332.32C111.917 332.064 112.157 331.712 112.285 331.248H114.013C113.853 332.08 113.453 332.768 112.797 333.296C112.141 333.84 111.325 334.096 110.349 334.096C109.485 334.096 108.749 333.936 108.109 333.584C107.469 333.232 106.989 332.752 106.637 332.112C106.285 331.488 106.125 330.752 106.125 329.92C106.125 329.088 106.285 328.352 106.621 327.712ZM112.397 329.008C112.317 328.416 112.077 327.952 111.677 327.616C111.277 327.28 110.781 327.104 110.173 327.104C109.597 327.104 109.117 327.28 108.701 327.632C108.285 327.984 108.061 328.432 107.997 329.008H112.397ZM115.746 327.712C116.082 327.072 116.546 326.592 117.154 326.24C117.762 325.888 118.45 325.712 119.234 325.712C120.018 325.712 120.706 325.872 121.314 326.192C121.922 326.512 122.386 326.976 122.738 327.552C123.09 328.144 123.266 328.832 123.282 329.616C123.282 329.84 123.266 330.048 123.234 330.272H117.058V330.368C117.09 331.088 117.314 331.648 117.73 332.064C118.13 332.48 118.674 332.688 119.346 332.688C119.874 332.688 120.322 332.576 120.69 332.32C121.042 332.064 121.282 331.712 121.41 331.248H123.138C122.978 332.08 122.578 332.768 121.922 333.296C121.266 333.84 120.45 334.096 119.474 334.096C118.61 334.096 117.874 333.936 117.234 333.584C116.594 333.232 116.114 332.752 115.762 332.112C115.41 331.488 115.25 330.752 115.25 329.92C115.25 329.088 115.41 328.352 115.746 327.712ZM121.522 329.008C121.442 328.416 121.202 327.952 120.802 327.616C120.402 327.28 119.906 327.104 119.298 327.104C118.722 327.104 118.242 327.28 117.826 327.632C117.41 327.984 117.186 328.432 117.122 329.008H121.522ZM128.949 322.8H131.333L134.917 331.616L138.437 322.8H140.773V334H138.997V325.76L135.637 334H134.085L130.725 325.76V334H128.949V322.8ZM150.488 332.496V334H149.576C149.032 334 148.648 333.888 148.424 333.664C148.184 333.44 148.072 333.12 148.072 332.688C147.448 333.632 146.552 334.096 145.368 334.096C144.44 334.096 143.704 333.888 143.16 333.456C142.6 333.04 142.328 332.448 142.328 331.696C142.328 330.864 142.616 330.208 143.224 329.76C143.816 329.312 144.68 329.072 145.832 329.072H147.896V328.576C147.896 328.128 147.736 327.76 147.416 327.504C147.096 327.248 146.648 327.104 146.088 327.104C145.576 327.104 145.16 327.216 144.84 327.44C144.52 327.664 144.328 327.952 144.264 328.304H142.568C142.648 327.488 143.016 326.848 143.656 326.4C144.296 325.952 145.128 325.712 146.168 325.712C147.256 325.712 148.104 325.968 148.712 326.48C149.304 326.992 149.608 327.728 149.608 328.688V331.92C149.608 332.304 149.784 332.496 150.152 332.496H150.488ZM147.896 330.352H145.752C145.208 330.352 144.808 330.464 144.52 330.672C144.232 330.88 144.088 331.184 144.088 331.584C144.088 331.936 144.216 332.224 144.488 332.432C144.76 332.656 145.128 332.752 145.608 332.752C146.312 332.752 146.872 332.56 147.272 332.176C147.672 331.792 147.88 331.28 147.896 330.64V330.352ZM158.117 326.608C158.725 327.216 159.045 328.176 159.045 329.488V334H157.301V329.584C157.301 328.816 157.125 328.224 156.805 327.808C156.469 327.408 155.989 327.2 155.349 327.2C154.661 327.2 154.117 327.44 153.733 327.92C153.349 328.4 153.157 329.04 153.157 329.872V334H151.429V325.808H152.933L153.125 326.88C153.733 326.112 154.613 325.712 155.749 325.712C156.709 325.712 157.509 326.016 158.117 326.608ZM168.457 332.496V334H167.545C167.001 334 166.617 333.888 166.393 333.664C166.153 333.44 166.041 333.12 166.041 332.688C165.417 333.632 164.521 334.096 163.337 334.096C162.409 334.096 161.673 333.888 161.129 333.456C160.569 333.04 160.297 332.448 160.297 331.696C160.297 330.864 160.585 330.208 161.193 329.76C161.785 329.312 162.649 329.072 163.801 329.072H165.865V328.576C165.865 328.128 165.705 327.76 165.385 327.504C165.065 327.248 164.617 327.104 164.057 327.104C163.545 327.104 163.129 327.216 162.809 327.44C162.489 327.664 162.297 327.952 162.233 328.304H160.537C160.617 327.488 160.985 326.848 161.625 326.4C162.265 325.952 163.097 325.712 164.137 325.712C165.225 325.712 166.073 325.968 166.681 326.48C167.273 326.992 167.577 327.728 167.577 328.688V331.92C167.577 332.304 167.753 332.496 168.121 332.496H168.457ZM165.865 330.352H163.721C163.177 330.352 162.777 330.464 162.489 330.672C162.201 330.88 162.057 331.184 162.057 331.584C162.057 331.936 162.185 332.224 162.457 332.432C162.729 332.656 163.097 332.752 163.577 332.752C164.281 332.752 164.841 332.56 165.241 332.176C165.641 331.792 165.849 331.28 165.865 330.64V330.352ZM177.35 325.808V333.664C177.35 334.816 176.998 335.712 176.326 336.352C175.638 336.992 174.582 337.296 173.158 337.296C172.038 337.296 171.142 337.056 170.454 336.56C169.75 336.064 169.366 335.36 169.302 334.448H171.062C171.158 334.912 171.414 335.264 171.798 335.52C172.182 335.776 172.678 335.888 173.286 335.888C174.854 335.888 175.638 335.136 175.638 333.6V332.688C175.03 333.584 174.15 334.032 172.966 334.032C172.214 334.032 171.542 333.872 170.966 333.536C170.374 333.2 169.91 332.72 169.59 332.096C169.254 331.472 169.094 330.736 169.094 329.872C169.094 329.056 169.254 328.336 169.59 327.696C169.926 327.072 170.39 326.592 170.982 326.24C171.558 325.888 172.23 325.712 172.966 325.712C173.574 325.712 174.118 325.84 174.566 326.08C175.014 326.336 175.366 326.672 175.654 327.088L175.846 325.808H177.35ZM174.982 331.84C175.414 331.344 175.638 330.704 175.638 329.904C175.638 329.104 175.414 328.448 174.982 327.936C174.534 327.424 173.958 327.168 173.254 327.168C172.534 327.168 171.958 327.424 171.526 327.92C171.078 328.432 170.87 329.072 170.87 329.872C170.87 330.672 171.078 331.328 171.526 331.824C171.958 332.336 172.534 332.576 173.254 332.576C173.958 332.576 174.534 332.336 174.982 331.84ZM179.23 327.712C179.566 327.072 180.03 326.592 180.638 326.24C181.246 325.888 181.934 325.712 182.718 325.712C183.502 325.712 184.19 325.872 184.798 326.192C185.406 326.512 185.87 326.976 186.222 327.552C186.574 328.144 186.75 328.832 186.766 329.616C186.766 329.84 186.75 330.048 186.718 330.272H180.542V330.368C180.574 331.088 180.798 331.648 181.214 332.064C181.614 332.48 182.158 332.688 182.83 332.688C183.358 332.688 183.806 332.576 184.174 332.32C184.526 332.064 184.766 331.712 184.894 331.248H186.622C186.462 332.08 186.062 332.768 185.406 333.296C184.75 333.84 183.934 334.096 182.958 334.096C182.094 334.096 181.358 333.936 180.718 333.584C180.078 333.232 179.598 332.752 179.246 332.112C178.894 331.488 178.734 330.752 178.734 329.92C178.734 329.088 178.894 328.352 179.23 327.712ZM185.006 329.008C184.926 328.416 184.686 327.952 184.286 327.616C183.886 327.28 183.39 327.104 182.782 327.104C182.206 327.104 181.726 327.28 181.31 327.632C180.894 327.984 180.67 328.432 180.606 329.008H185.006ZM199.811 326.592C200.371 327.168 200.659 328.096 200.659 329.376V334H198.931V329.392C198.931 328.688 198.787 328.144 198.499 327.76C198.211 327.392 197.779 327.2 197.219 327.2C196.611 327.2 196.147 327.424 195.795 327.84C195.443 328.256 195.283 328.832 195.283 329.568V334H193.539V329.392C193.539 328.672 193.379 328.128 193.091 327.76C192.803 327.392 192.371 327.2 191.811 327.2C191.219 327.2 190.755 327.424 190.403 327.856C190.051 328.304 189.891 328.88 189.891 329.616V334H188.163V325.808H189.667L189.859 326.88C190.435 326.112 191.235 325.728 192.259 325.712C192.835 325.712 193.331 325.84 193.779 326.08C194.211 326.336 194.547 326.704 194.787 327.2C195.075 326.736 195.443 326.368 195.923 326.112C196.387 325.856 196.947 325.712 197.619 325.712C198.515 325.712 199.235 326.016 199.811 326.592ZM202.418 327.712C202.754 327.072 203.218 326.592 203.826 326.24C204.434 325.888 205.122 325.712 205.906 325.712C206.69 325.712 207.378 325.872 207.986 326.192C208.594 326.512 209.058 326.976 209.41 327.552C209.762 328.144 209.938 328.832 209.954 329.616C209.954 329.84 209.938 330.048 209.906 330.272H203.73V330.368C203.762 331.088 203.986 331.648 204.402 332.064C204.802 332.48 205.346 332.688 206.018 332.688C206.546 332.688 206.994 332.576 207.362 332.32C207.714 332.064 207.954 331.712 208.082 331.248H209.81C209.65 332.08 209.25 332.768 208.594 333.296C207.938 333.84 207.122 334.096 206.146 334.096C205.282 334.096 204.546 333.936 203.906 333.584C203.266 333.232 202.786 332.752 202.434 332.112C202.082 331.488 201.922 330.752 201.922 329.92C201.922 329.088 202.082 328.352 202.418 327.712ZM208.194 329.008C208.114 328.416 207.874 327.952 207.474 327.616C207.074 327.28 206.578 327.104 205.97 327.104C205.394 327.104 204.914 327.28 204.498 327.632C204.082 327.984 203.858 328.432 203.794 329.008H208.194ZM218.039 326.608C218.647 327.216 218.967 328.176 218.967 329.488V334H217.223V329.584C217.223 328.816 217.047 328.224 216.727 327.808C216.391 327.408 215.911 327.2 215.271 327.2C214.583 327.2 214.039 327.44 213.655 327.92C213.271 328.4 213.079 329.04 213.079 329.872V334H211.351V325.808H212.855L213.047 326.88C213.655 326.112 214.535 325.712 215.671 325.712C216.631 325.712 217.431 326.016 218.039 326.608ZM221.066 327.328H219.642V325.808H221.066V323.52H222.81V325.808H224.778V327.328H222.81V331.6C222.81 331.92 222.874 332.16 223.002 332.288C223.13 332.416 223.338 332.48 223.658 332.48H224.97V334H223.306C222.522 334 221.946 333.824 221.594 333.456C221.242 333.104 221.066 332.544 221.066 331.776V327.328Z" fill="#515251"/>
<path d="M247.5 328L244 332L240.5 328" stroke="#515251" stroke-width="1.6" stroke-linecap="round" stroke-linejoin="round"/>
<path d="M272 355.2H0V356.8H272V355.2Z" fill="#E7E8E7" mask="url(#path-17-inside-3_1_1315)"/>
<mask id="path-22-inside-4_1_1315" fill="white">
<path d="M0 356H272V412H0V356Z"/>
</mask>
<path d="M0 356H272V412H0V356Z" fill="white"/>
<g clip-path="url(#clip2_1_1315)">
<path d="M33.5094 391.047C29.6349 391.047 25.757 391.047 21.8825 391.047C21.8625 391.037 21.8425 391.027 21.8226 391.021C20.9272 390.849 20.3779 390.204 20.3779 389.311C20.3779 384.83 20.3779 380.346 20.3779 375.865C20.3779 374.85 21.0936 374.146 22.1155 374.146C24.6119 374.149 27.1084 374.162 29.6049 374.165C30.0143 374.165 30.3538 374.308 30.6468 374.592C31.9316 375.835 33.2198 377.075 34.5146 378.309C34.8242 378.603 34.964 378.941 34.964 379.364C34.9573 381.669 34.9607 383.974 34.9607 386.279C34.9607 387.297 34.964 388.312 34.9607 389.331C34.9573 390.111 34.518 390.743 33.8256 390.965C33.7224 390.994 33.6159 391.017 33.5094 391.047ZM29.2487 375.495C29.1755 375.491 29.1222 375.485 29.069 375.485C26.7889 375.478 24.5054 375.468 22.2253 375.462C21.7926 375.462 21.7061 375.548 21.7061 375.968C21.7061 380.376 21.7061 384.781 21.7061 389.189C21.7061 389.245 21.7061 389.298 21.7061 389.354C21.7127 389.559 21.8492 389.701 22.0589 389.718C22.1088 389.721 22.1587 389.718 22.2087 389.718C25.8635 389.718 29.5184 389.718 33.1732 389.718C33.5393 389.718 33.6325 389.622 33.6325 389.258C33.6325 386.126 33.6325 382.998 33.6325 379.866C33.6325 379.807 33.6325 379.751 33.6325 379.681C33.546 379.681 33.4861 379.681 33.4262 379.681C32.6106 379.681 31.7985 379.681 30.9829 379.681C29.9644 379.678 29.2487 378.967 29.2454 377.958C29.2421 377.198 29.2454 376.441 29.2454 375.68C29.2487 375.627 29.2487 375.567 29.2487 375.495ZM30.5769 376.361C30.5769 376.923 30.5769 377.439 30.5769 377.955C30.5769 378.236 30.7067 378.365 30.9929 378.365C31.5022 378.368 32.0115 378.365 32.5208 378.365C32.5541 378.365 32.5873 378.355 32.6439 378.345C31.9549 377.684 31.2859 377.042 30.5769 376.361Z" fill="#515251"/>
<path d="M27.6696 387.85C29.0514 387.85 30.4294 387.85 31.8112 387.85C32.3041 387.85 32.6457 387.511 32.6302 387.052C32.6185 386.721 32.3779 386.42 32.0518 386.343C31.9587 386.32 31.8616 386.312 31.7646 386.312C29.0359 386.312 26.3072 386.312 23.5785 386.312C23.1282 386.312 22.8255 386.536 22.7362 386.925C22.6353 387.353 22.9536 387.796 23.3922 387.843C23.4815 387.85 23.5707 387.85 23.6639 387.85C24.9991 387.85 26.3344 387.85 27.6696 387.85Z" fill="#515251"/>
<path d="M26.6687 384.773C27.7206 384.773 28.7725 384.777 29.8244 384.769C30.4066 384.765 30.7831 384.214 30.5541 383.705C30.4027 383.366 30.1233 383.231 29.7623 383.231C28.7764 383.231 27.7866 383.231 26.8007 383.231C25.7216 383.231 24.6465 383.231 23.5674 383.231C23.1598 383.231 22.8649 383.427 22.7523 383.759C22.5854 384.26 22.9464 384.762 23.4937 384.765C24.4097 384.773 25.3257 384.769 26.2418 384.769C26.3854 384.773 26.529 384.773 26.6687 384.773Z" fill="#515251"/>
<path d="M25.6749 381.692C26.4046 381.692 27.1305 381.696 27.8602 381.688C28.2095 381.684 28.4851 381.453 28.5744 381.118C28.6598 380.809 28.5433 380.466 28.26 380.296C28.128 380.219 27.9611 380.157 27.8097 380.157C26.3774 380.146 24.9452 380.15 23.5168 380.153C23.0937 380.153 22.7793 380.431 22.7211 380.824C22.6667 381.183 22.8996 381.546 23.2645 381.654C23.3654 381.684 23.4818 381.688 23.5905 381.688C24.2853 381.696 24.9801 381.692 25.6749 381.692Z" fill="#515251"/>
</g>
<path d="M54.8306 378.8C55.5986 378.8 56.2706 378.96 56.8626 379.248C57.4386 379.536 57.9026 379.952 58.2226 380.496C58.5426 381.04 58.7026 381.664 58.7026 382.368C58.7026 383.088 58.5426 383.712 58.2226 384.256C57.9026 384.8 57.4386 385.216 56.8626 385.504C56.2706 385.792 55.5986 385.936 54.8306 385.936H52.2546V390H50.4146V378.8H54.8306ZM52.2546 384.336H54.6706C55.3266 384.336 55.8546 384.16 56.2386 383.808C56.6226 383.456 56.8306 382.976 56.8306 382.368C56.8306 381.76 56.6386 381.28 56.2546 380.928C55.8706 380.576 55.3426 380.4 54.6866 380.4H52.2546V384.336ZM67.2973 388.496V390H66.3853C65.8413 390 65.4573 389.888 65.2333 389.664C64.9933 389.44 64.8813 389.12 64.8813 388.688C64.2573 389.632 63.3613 390.096 62.1773 390.096C61.2493 390.096 60.5133 389.888 59.9693 389.456C59.4093 389.04 59.1373 388.448 59.1373 387.696C59.1373 386.864 59.4253 386.208 60.0333 385.76C60.6253 385.312 61.4893 385.072 62.6413 385.072H64.7053V384.576C64.7053 384.128 64.5453 383.76 64.2253 383.504C63.9053 383.248 63.4573 383.104 62.8973 383.104C62.3853 383.104 61.9693 383.216 61.6493 383.44C61.3293 383.664 61.1373 383.952 61.0733 384.304H59.3773C59.4573 383.488 59.8253 382.848 60.4653 382.4C61.1053 381.952 61.9373 381.712 62.9773 381.712C64.0653 381.712 64.9133 381.968 65.5213 382.48C66.1133 382.992 66.4173 383.728 66.4173 384.688V387.92C66.4173 388.304 66.5933 388.496 66.9613 388.496H67.2973ZM64.7053 386.352H62.5613C62.0173 386.352 61.6173 386.464 61.3293 386.672C61.0413 386.88 60.8973 387.184 60.8973 387.584C60.8973 387.936 61.0253 388.224 61.2973 388.432C61.5693 388.656 61.9373 388.752 62.4173 388.752C63.1213 388.752 63.6813 388.56 64.0813 388.176C64.4813 387.792 64.6893 387.28 64.7053 386.64V386.352ZM69.0126 381.808L71.3006 388.128L73.5246 381.808H75.3646L71.6526 391.28C71.4606 391.776 71.2846 392.16 71.1246 392.416C70.9646 392.672 70.7566 392.88 70.5326 393.008C70.2926 393.136 69.9726 393.2 69.5886 393.2H67.7326V391.68H68.9486C69.2686 391.68 69.5086 391.632 69.6366 391.536C69.7646 391.44 69.8926 391.2 70.0366 390.848L70.3726 390.064L67.1726 381.808H69.0126ZM80.7666 381.808V383.424H79.9986C79.2786 383.424 78.7666 383.664 78.4466 384.128C78.1266 384.592 77.9666 385.184 77.9666 385.888V390H76.2386V381.808H77.7746L77.9666 383.04C78.1906 382.656 78.4946 382.368 78.8786 382.144C79.2466 381.92 79.7426 381.808 80.3826 381.808H80.7666ZM83.1529 389.584C82.5129 389.232 82.0329 388.752 81.6809 388.112C81.3289 387.472 81.1689 386.736 81.1689 385.904C81.1689 385.088 81.3289 384.368 81.6809 383.728C82.0329 383.088 82.5129 382.592 83.1529 382.24C83.7929 381.888 84.5129 381.712 85.3449 381.712C86.1609 381.712 86.8809 381.888 87.5209 382.24C88.1609 382.592 88.6409 383.088 88.9929 383.728C89.3449 384.368 89.5209 385.088 89.5209 385.904C89.5209 386.736 89.3449 387.472 88.9929 388.112C88.6409 388.752 88.1609 389.232 87.5209 389.584C86.8809 389.936 86.1609 390.096 85.3449 390.096C84.5129 390.096 83.7929 389.936 83.1529 389.584ZM87.0889 387.872C87.5369 387.36 87.7609 386.704 87.7609 385.904C87.7609 385.104 87.5369 384.464 87.0889 383.952C86.6409 383.44 86.0649 383.184 85.3449 383.184C84.6089 383.184 84.0329 383.44 83.6009 383.952C83.1529 384.464 82.9449 385.104 82.9449 385.904C82.9449 386.704 83.1529 387.36 83.6009 387.872C84.0329 388.384 84.6089 388.624 85.3449 388.624C86.0649 388.624 86.6409 388.384 87.0889 387.872ZM90.9104 378.8H92.6384V390H90.9104V378.8ZM94.3323 378.8H96.0603V390H94.3323V378.8Z" fill="#515251"/>
<path d="M247.5 382L244 386L240.5 382" stroke="#515251" stroke-width="1.6" stroke-linecap="round" stroke-linejoin="round"/>
<path d="M272 411.2H0V412.8H272V411.2Z" fill="#E7E8E7" mask="url(#path-22-inside-4_1_1315)"/>
<mask id="path-30-inside-5_1_1315" fill="white">
<path d="M0 412H272V468H0V412Z"/>
</mask>
<path d="M0 412H272V468H0V412Z" fill="white"/>
<path d="M29.8359 433.197C29.782 433.372 29.7529 433.557 29.7529 433.75C29.7529 434.095 30.0328 434.375 30.3779 434.375H34.1279C34.4731 434.375 34.7529 434.095 34.7529 433.75C34.7529 433.557 34.7239 433.372 34.67 433.197M29.8359 433.197C30.0719 432.431 30.7849 431.875 31.6279 431.875H32.8779C33.7209 431.875 34.434 432.431 34.67 433.197M29.8359 433.197C29.5228 433.215 29.2107 433.238 28.8997 433.264C27.9571 433.342 27.2529 434.144 27.2529 435.09V436.875M34.67 433.197C34.983 433.215 35.2951 433.238 35.6062 433.264C36.5488 433.342 37.2529 434.144 37.2529 435.09V443.75C37.2529 444.786 36.4135 445.625 35.3779 445.625H33.5029M27.2529 436.875H24.4404C23.9227 436.875 23.5029 437.295 23.5029 437.812V447.188C23.5029 447.705 23.9227 448.125 24.4404 448.125H32.5654C33.0832 448.125 33.5029 447.705 33.5029 447.188V445.625M27.2529 436.875H32.5654C33.0832 436.875 33.5029 437.295 33.5029 437.812V445.625M26.6279 443.125L27.8779 444.375L30.3779 441.25" stroke="#515251" stroke-width="1.3" stroke-linecap="round" stroke-linejoin="round"/>
<path d="M53.6259 437.424C54.0739 436.56 54.6979 435.904 55.5139 435.424C56.3299 434.944 57.2899 434.704 58.3779 434.704C59.2099 434.704 59.9779 434.864 60.6499 435.184C61.3219 435.504 61.8819 435.968 62.3139 436.56C62.7299 437.152 63.0019 437.84 63.1299 438.608H61.2899C61.0979 437.904 60.7459 437.344 60.2339 436.928C59.7059 436.528 59.0659 436.32 58.2979 436.32C57.5939 436.32 56.9859 436.496 56.4739 436.848C55.9459 437.2 55.5459 437.68 55.2739 438.288C54.9859 438.896 54.8579 439.6 54.8579 440.4C54.8579 441.2 54.9859 441.904 55.2739 442.512C55.5459 443.136 55.9459 443.616 56.4739 443.968C56.9859 444.32 57.5939 444.48 58.2979 444.48C59.0659 444.48 59.7059 444.288 60.2179 443.872C60.7299 443.472 61.0819 442.912 61.2739 442.192H63.1139C62.9859 442.992 62.7139 443.68 62.2979 444.256C61.8819 444.848 61.3379 445.296 60.6659 445.616C59.9939 445.936 59.2259 446.096 58.3779 446.096C57.2899 446.096 56.3299 445.872 55.5139 445.392C54.6979 444.928 54.0739 444.272 53.6259 443.408C53.1779 442.544 52.9699 441.552 52.9699 440.4C52.9699 439.28 53.1779 438.288 53.6259 437.424ZM66.2028 445.584C65.5628 445.232 65.0828 444.752 64.7308 444.112C64.3788 443.472 64.2188 442.736 64.2188 441.904C64.2188 441.088 64.3788 440.368 64.7308 439.728C65.0828 439.088 65.5628 438.592 66.2028 438.24C66.8428 437.888 67.5628 437.712 68.3948 437.712C69.2108 437.712 69.9308 437.888 70.5708 438.24C71.2108 438.592 71.6908 439.088 72.0428 439.728C72.3948 440.368 72.5708 441.088 72.5708 441.904C72.5708 442.736 72.3948 443.472 72.0428 444.112C71.6908 444.752 71.2108 445.232 70.5708 445.584C69.9308 445.936 69.2108 446.096 68.3948 446.096C67.5628 446.096 66.8428 445.936 66.2028 445.584ZM70.1388 443.872C70.5868 443.36 70.8108 442.704 70.8108 441.904C70.8108 441.104 70.5868 440.464 70.1388 439.952C69.6908 439.44 69.1148 439.184 68.3948 439.184C67.6588 439.184 67.0828 439.44 66.6508 439.952C66.2028 440.464 65.9948 441.104 65.9948 441.904C65.9948 442.704 66.2028 443.36 66.6508 443.872C67.0828 444.384 67.6588 444.624 68.3948 444.624C69.1148 444.624 69.6908 444.384 70.1388 443.872ZM85.6083 438.592C86.1683 439.168 86.4563 440.096 86.4563 441.376V446H84.7283V441.392C84.7283 440.688 84.5843 440.144 84.2963 439.76C84.0083 439.392 83.5763 439.2 83.0163 439.2C82.4083 439.2 81.9443 439.424 81.5923 439.84C81.2403 440.256 81.0803 440.832 81.0803 441.568V446H79.3363V441.392C79.3363 440.672 79.1763 440.128 78.8883 439.76C78.6003 439.392 78.1683 439.2 77.6083 439.2C77.0163 439.2 76.5523 439.424 76.2003 439.856C75.8483 440.304 75.6883 440.88 75.6883 441.616V446H73.9603V437.808H75.4643L75.6563 438.88C76.2323 438.112 77.0323 437.728 78.0563 437.712C78.6323 437.712 79.1283 437.84 79.5763 438.08C80.0083 438.336 80.3443 438.704 80.5843 439.2C80.8723 438.736 81.2403 438.368 81.7203 438.112C82.1843 437.856 82.7443 437.712 83.4163 437.712C84.3123 437.712 85.0323 438.016 85.6083 438.592ZM94.4068 438.224C94.9828 438.56 95.4468 439.04 95.7828 439.68C96.1028 440.32 96.2788 441.056 96.2788 441.904C96.2788 442.736 96.1028 443.472 95.7828 444.112C95.4468 444.752 94.9828 445.232 94.4068 445.584C93.8148 445.936 93.1428 446.096 92.4068 446.096C91.7988 446.096 91.2708 445.984 90.8228 445.76C90.3748 445.536 90.0068 445.232 89.7508 444.848V449.2H88.0228V437.808H89.5268L89.7348 439.024C90.3908 438.16 91.2868 437.712 92.4068 437.712C93.1428 437.712 93.8148 437.888 94.4068 438.224ZM93.8468 443.872C94.2948 443.36 94.5188 442.704 94.5188 441.904C94.5188 441.104 94.2948 440.448 93.8468 439.936C93.3988 439.44 92.8228 439.184 92.1188 439.184C91.3988 439.184 90.8228 439.44 90.3908 439.936C89.9428 440.432 89.7348 441.072 89.7348 441.872C89.7348 442.704 89.9428 443.36 90.3908 443.872C90.8228 444.384 91.3988 444.64 92.1188 444.64C92.8228 444.64 93.3988 444.384 93.8468 443.872ZM97.6634 434.8H99.3914V446H97.6634V434.8ZM102.701 434.832C102.893 435.024 103.005 435.28 103.005 435.568C103.005 435.872 102.893 436.128 102.701 436.32C102.493 436.512 102.237 436.608 101.949 436.608C101.645 436.608 101.389 436.512 101.197 436.32C100.989 436.128 100.893 435.872 100.893 435.568C100.893 435.28 100.989 435.024 101.197 434.832C101.389 434.64 101.645 434.528 101.949 434.528C102.237 434.528 102.493 434.64 102.701 434.832ZM101.085 437.808H102.813V446H101.085V437.808ZM112.347 444.496V446H111.435C110.891 446 110.507 445.888 110.283 445.664C110.043 445.44 109.931 445.12 109.931 444.688C109.307 445.632 108.411 446.096 107.227 446.096C106.299 446.096 105.563 445.888 105.019 445.456C104.459 445.04 104.187 444.448 104.187 443.696C104.187 442.864 104.475 442.208 105.083 441.76C105.675 441.312 106.539 441.072 107.691 441.072H109.755V440.576C109.755 440.128 109.595 439.76 109.275 439.504C108.955 439.248 108.507 439.104 107.947 439.104C107.435 439.104 107.019 439.216 106.699 439.44C106.379 439.664 106.187 439.952 106.123 440.304H104.427C104.507 439.488 104.875 438.848 105.515 438.4C106.155 437.952 106.987 437.712 108.027 437.712C109.115 437.712 109.963 437.968 110.571 438.48C111.163 438.992 111.467 439.728 111.467 440.688V443.92C111.467 444.304 111.643 444.496 112.011 444.496H112.347ZM109.755 442.352H107.611C107.067 442.352 106.667 442.464 106.379 442.672C106.091 442.88 105.947 443.184 105.947 443.584C105.947 443.936 106.075 444.224 106.347 444.432C106.619 444.656 106.987 444.752 107.467 444.752C108.171 444.752 108.731 444.56 109.131 444.176C109.531 443.792 109.739 443.28 109.755 442.64V442.352ZM119.976 438.608C120.584 439.216 120.904 440.176 120.904 441.488V446H119.16V441.584C119.16 440.816 118.984 440.224 118.664 439.808C118.328 439.408 117.848 439.2 117.208 439.2C116.52 439.2 115.976 439.44 115.592 439.92C115.208 440.4 115.016 441.04 115.016 441.872V446H113.288V437.808H114.792L114.984 438.88C115.592 438.112 116.472 437.712 117.608 437.712C118.568 437.712 119.368 438.016 119.976 438.608ZM128.796 445.296C128.124 445.84 127.276 446.096 126.252 446.096C125.436 446.096 124.716 445.936 124.108 445.584C123.484 445.232 123.004 444.736 122.668 444.096C122.332 443.456 122.172 442.72 122.172 441.888C122.172 441.056 122.332 440.336 122.684 439.696C123.02 439.072 123.5 438.592 124.124 438.24C124.748 437.888 125.468 437.712 126.3 437.712C127.324 437.712 128.156 437.984 128.812 438.528C129.452 439.072 129.868 439.792 130.028 440.72H128.252C128.124 440.256 127.9 439.888 127.548 439.6C127.196 439.328 126.764 439.184 126.252 439.184C125.548 439.184 124.988 439.44 124.572 439.936C124.156 440.448 123.948 441.088 123.948 441.888C123.948 442.704 124.156 443.36 124.572 443.872C124.988 444.384 125.548 444.624 126.252 444.624C126.78 444.624 127.228 444.496 127.58 444.208C127.932 443.92 128.156 443.536 128.268 443.056H130.028C129.868 444.016 129.452 444.752 128.796 445.296ZM131.465 439.712C131.801 439.072 132.265 438.592 132.873 438.24C133.481 437.888 134.169 437.712 134.953 437.712C135.737 437.712 136.425 437.872 137.033 438.192C137.641 438.512 138.105 438.976 138.457 439.552C138.809 440.144 138.985 440.832 139.001 441.616C139.001 441.84 138.985 442.048 138.953 442.272H132.777V442.368C132.809 443.088 133.033 443.648 133.449 444.064C133.849 444.48 134.393 444.688 135.065 444.688C135.593 444.688 136.041 444.576 136.409 444.32C136.761 444.064 137.001 443.712 137.129 443.248H138.857C138.697 444.08 138.297 444.768 137.641 445.296C136.985 445.84 136.169 446.096 135.193 446.096C134.329 446.096 133.593 445.936 132.953 445.584C132.313 445.232 131.833 444.752 131.481 444.112C131.129 443.488 130.969 442.752 130.969 441.92C130.969 441.088 131.129 440.352 131.465 439.712ZM137.241 441.008C137.161 440.416 136.921 439.952 136.521 439.616C136.121 439.28 135.625 439.104 135.017 439.104C134.441 439.104 133.961 439.28 133.545 439.632C133.129 439.984 132.905 440.432 132.841 441.008H137.241Z" fill="#515251"/>
<path d="M247.5 438L244 442L240.5 438" stroke="#8D8E8D" stroke-width="1.6" stroke-linecap="round" stroke-linejoin="round"/>
<path d="M272 467.2H0V468.8H272V467.2Z" fill="#E7E8E7" mask="url(#path-30-inside-5_1_1315)"/>
<mask id="path-35-inside-6_1_1315" fill="white">
<path d="M0 468H272V524H0V468Z"/>
</mask>
<path d="M0 468H272V524H0V468Z" fill="white"/>
<g clip-path="url(#clip3_1_1315)">
<path d="M32.2494 485.339C32.675 485.422 33.109 485.476 33.5262 485.597C36.009 486.298 37.8659 488.493 38.1705 491.055C38.5628 494.377 36.4931 497.415 33.2884 498.22C29.6998 499.121 26.0195 496.734 25.3769 493.087C24.8177 489.933 26.466 486.937 29.4244 485.785C29.9544 485.581 30.5344 485.51 31.0935 485.376C31.1478 485.364 31.202 485.351 31.2521 485.339C31.5817 485.339 31.9156 485.339 32.2494 485.339ZM36.9729 491.869C36.9646 488.94 34.6153 486.578 31.7194 486.59C28.8402 486.599 26.4993 488.986 26.5077 491.894C26.516 494.802 28.8778 497.173 31.757 497.164C34.632 497.156 36.9813 494.773 36.9729 491.869Z" fill="#515251"/>
<path d="M22.9942 500.527C23.036 500.356 23.061 500.206 23.1111 500.064C23.399 499.25 24.0124 498.85 24.8303 498.666C26.224 498.353 27.5509 498.495 28.8319 499.15C29.2909 499.384 29.775 499.588 30.2674 499.755C30.5636 499.855 30.8891 499.893 31.2062 499.906C31.8363 499.926 32.4706 499.91 33.1006 499.914C33.5597 499.914 33.8058 500.168 33.7933 500.627C33.7766 501.249 33.5805 501.808 33.205 502.355C33.5138 502.355 33.7933 502.363 34.0687 502.351C34.123 502.347 34.1772 502.271 34.2273 502.221C34.8115 501.637 35.3915 501.049 35.9798 500.473C37.119 499.359 38.9091 499.326 40.0942 500.39C40.4697 500.728 40.4822 501.091 40.1276 501.445C38.6671 502.91 37.2025 504.37 35.742 505.831C35.1787 506.394 34.4985 506.67 33.7057 506.67C29.5079 506.67 25.3101 506.67 21.1123 506.67C20.6158 506.661 20.3779 506.423 20.3779 505.931C20.3779 504.37 20.3779 502.81 20.3779 501.245C20.3779 500.757 20.6116 500.527 21.1082 500.527C21.7299 500.523 22.3558 500.527 22.9942 500.527ZM24.2544 505.414C24.3546 505.414 24.4297 505.414 24.5048 505.414C27.5425 505.414 30.5845 505.409 33.6222 505.418C34.1313 505.418 34.5486 505.251 34.9075 504.888C36.1509 503.636 37.3986 502.392 38.6462 501.145C38.688 501.103 38.7213 501.057 38.7714 501.003C38.7213 500.982 38.6921 500.961 38.6588 500.953C37.9536 500.732 37.3318 500.878 36.8019 501.399C36.1718 502.025 35.5375 502.647 34.92 503.285C34.6988 503.511 34.461 503.611 34.148 503.607C32.1993 503.598 30.2465 503.598 28.2978 503.598C28.0391 503.598 27.7846 503.603 27.5259 503.59C27.2838 503.578 27.1086 503.444 27.0084 503.227C26.9125 503.014 26.9333 502.806 27.071 502.614C27.2171 502.405 27.4299 502.342 27.6719 502.342C28.5941 502.347 29.5163 502.347 30.4426 502.347C30.622 502.347 30.8056 502.347 30.9809 502.33C31.6193 502.259 32.2494 501.742 32.408 501.153C32.0283 501.153 31.6569 501.149 31.2855 501.153C30.6971 501.162 30.1213 501.07 29.5788 500.844C29.0781 500.64 28.5816 500.427 28.0975 500.185C27.0585 499.672 25.9945 499.638 24.897 499.939C24.4464 500.06 24.2544 500.319 24.2544 500.782C24.2544 501.883 24.2544 502.989 24.2544 504.091C24.2544 504.525 24.2544 504.955 24.2544 505.414ZM22.9942 505.401C22.9942 504.187 22.9942 502.989 22.9942 501.787C22.5352 501.787 22.0929 501.787 21.6381 501.787C21.6381 502.998 21.6381 504.195 21.6381 505.401C22.0929 505.401 22.5352 505.401 22.9942 505.401Z" fill="#515251"/>
<g clip-path="url(#clip4_1_1315)">
<path d="M32.7684 490.005C32.7684 489.844 32.7723 489.683 32.7684 489.522C32.7653 489.436 32.7973 489.413 32.8783 489.415C33.1077 489.419 33.3375 489.42 33.5666 489.415C33.6643 489.412 33.692 489.445 33.6905 489.54C33.6854 489.842 33.6932 490.145 33.6866 490.448C33.6842 490.559 33.7104 490.604 33.8312 490.6C34.0946 490.593 34.095 490.6 34.095 490.871C34.095 491.032 34.0915 491.193 34.095 491.354C34.0974 491.433 34.0766 491.464 33.9903 491.465C33.6877 491.472 33.6877 491.476 33.6877 491.786C33.6877 491.937 33.6916 492.088 33.6877 492.24C33.685 492.323 33.7131 492.348 33.796 492.35C34.095 492.359 34.095 492.362 34.095 492.659C34.095 492.81 34.0915 492.962 34.095 493.113C34.0978 493.195 34.0704 493.22 33.9867 493.222C33.6873 493.228 33.6877 493.232 33.6877 493.53C33.6877 493.76 33.6842 493.99 33.6877 494.219C33.6877 494.309 33.6576 494.336 33.5705 494.334C33.3168 494.329 33.0624 494.329 32.8087 494.334C32.773 494.337 32.7371 494.33 32.7058 494.312C32.6745 494.295 32.6493 494.268 32.6336 494.236C32.4522 493.935 32.263 493.639 32.0832 493.337C32.0332 493.252 31.9797 493.215 31.8765 493.217C31.5298 493.224 31.1831 493.222 30.8364 493.217C30.7402 493.217 30.7121 493.244 30.714 493.34C30.7199 493.628 30.7117 493.916 30.7183 494.204C30.7207 494.309 30.6867 494.337 30.5854 494.333C30.3658 494.326 30.1457 494.325 29.9264 494.333C29.8111 494.338 29.7873 494.294 29.7893 494.191C29.7955 493.912 29.7865 493.634 29.7936 493.356C29.7963 493.249 29.7693 493.212 29.6564 493.215C29.3964 493.221 29.396 493.215 29.396 492.958C29.396 492.787 29.3992 492.616 29.396 492.445C29.396 492.367 29.423 492.347 29.4977 492.345C29.7928 492.333 29.7928 492.33 29.7928 492.032C29.7928 491.881 29.7885 491.729 29.7928 491.578C29.7959 491.49 29.7689 491.46 29.6779 491.46C29.396 491.458 29.396 491.454 29.396 491.166C29.396 491.015 29.4007 490.864 29.396 490.712C29.3921 490.623 29.4203 490.595 29.511 490.595C29.7936 490.591 29.7936 490.586 29.7936 490.296C29.7936 490.042 29.7963 489.788 29.7936 489.535C29.7936 489.449 29.8147 489.413 29.9085 489.415C30.1574 489.421 30.4064 489.42 30.6554 489.415C30.6889 489.412 30.7225 489.42 30.7515 489.437C30.7806 489.454 30.8038 489.479 30.818 489.51C31.0134 489.836 31.2175 490.158 31.4129 490.484C31.4606 490.563 31.511 490.602 31.6083 490.602C31.955 490.595 32.3017 490.596 32.6484 490.602C32.7438 490.602 32.777 490.574 32.7727 490.477C32.7653 490.321 32.7727 490.164 32.7727 490.008L32.7684 490.005ZM32.0121 491.463C32.1939 491.76 32.3604 492.033 32.5292 492.305C32.5757 492.38 32.6535 492.346 32.7172 492.344C32.7954 492.341 32.7665 492.272 32.7669 492.23C32.7696 492.01 32.7669 491.79 32.7669 491.571C32.7669 491.517 32.777 491.461 32.6914 491.462C32.4753 491.465 32.2576 491.463 32.0121 491.463ZM31.4676 492.347L30.9501 491.508C30.9032 491.432 30.827 491.463 30.7641 491.466C30.6859 491.47 30.7179 491.539 30.7176 491.581C30.7144 491.8 30.7176 492.019 30.7176 492.239C30.7176 492.29 30.7035 492.349 30.7906 492.348C31.0064 492.346 31.2233 492.347 31.4676 492.347Z" fill="#515251"/>
</g>
</g>
<path d="M64.4259 500.384V502H63.3379C62.8899 502 62.5539 501.952 62.2979 501.824C62.0419 501.696 61.8179 501.504 61.6099 501.216L61.5619 501.152C60.6659 501.792 59.6099 502.096 58.4099 502.096C57.3539 502.096 56.4099 501.856 55.5779 501.36C54.7459 500.88 54.1059 500.192 53.6579 499.328C53.1939 498.464 52.9699 497.488 52.9699 496.4C52.9699 495.312 53.1939 494.336 53.6579 493.472C54.1059 492.608 54.7459 491.936 55.5779 491.44C56.4099 490.96 57.3539 490.704 58.4099 490.704C59.4659 490.704 60.3939 490.96 61.2259 491.44C62.0579 491.936 62.6979 492.608 63.1619 493.472C63.6099 494.336 63.8499 495.312 63.8499 496.4C63.8499 497.104 63.7379 497.776 63.5459 498.4C63.3379 499.024 63.0499 499.584 62.6819 500.08C62.8739 500.288 63.1299 500.384 63.4499 500.384H64.4259ZM60.5059 499.792L60.2659 499.472C60.1219 499.28 59.9779 499.152 59.8499 499.056C59.7059 498.976 59.5459 498.928 59.3699 498.928H58.3779V497.328H59.5779C59.9619 497.328 60.2819 497.392 60.5059 497.52C60.7299 497.648 60.9539 497.84 61.1619 498.112L61.4979 498.544C61.8019 497.936 61.9619 497.216 61.9619 496.4C61.9619 495.632 61.8019 494.928 61.5139 494.304C61.2099 493.68 60.7939 493.2 60.2499 492.848C59.7059 492.496 59.0979 492.32 58.4099 492.32C57.7059 492.32 57.0979 492.496 56.5539 492.848C56.0099 493.2 55.5939 493.68 55.3059 494.304C55.0019 494.928 54.8579 495.632 54.8579 496.4C54.8579 497.184 55.0019 497.888 55.3059 498.512C55.5939 499.136 56.0099 499.616 56.5539 499.968C57.0979 500.32 57.7059 500.48 58.4099 500.48C59.2099 500.48 59.8979 500.256 60.5059 499.792ZM72.7106 493.808V502H71.1906L70.9986 500.96C70.3746 501.728 69.5266 502.096 68.4706 502.096C67.5106 502.096 66.7266 501.808 66.1346 501.2C65.5266 500.608 65.2386 499.648 65.2386 498.32V493.808H66.9666V498.144C66.9666 498.944 67.1266 499.552 67.4466 499.968C67.7666 500.384 68.2306 500.592 68.8706 500.592C69.5266 500.592 70.0386 500.352 70.4226 499.872C70.7906 499.392 70.9826 498.72 70.9826 497.872V493.808H72.7106ZM76.0294 490.832C76.2214 491.024 76.3334 491.28 76.3334 491.568C76.3334 491.872 76.2214 492.128 76.0294 492.32C75.8214 492.512 75.5654 492.608 75.2774 492.608C74.9734 492.608 74.7174 492.512 74.5254 492.32C74.3174 492.128 74.2214 491.872 74.2214 491.568C74.2214 491.28 74.3174 491.024 74.5254 490.832C74.7174 490.64 74.9734 490.528 75.2774 490.528C75.5654 490.528 75.8214 490.64 76.0294 490.832ZM74.4134 493.808H76.1414V502H74.4134V493.808ZM84.1553 501.296C83.4833 501.84 82.6353 502.096 81.6113 502.096C80.7953 502.096 80.0753 501.936 79.4673 501.584C78.8433 501.232 78.3633 500.736 78.0273 500.096C77.6913 499.456 77.5313 498.72 77.5313 497.888C77.5313 497.056 77.6913 496.336 78.0433 495.696C78.3793 495.072 78.8593 494.592 79.4833 494.24C80.1073 493.888 80.8273 493.712 81.6593 493.712C82.6833 493.712 83.5153 493.984 84.1713 494.528C84.8113 495.072 85.2273 495.792 85.3873 496.72H83.6113C83.4833 496.256 83.2593 495.888 82.9073 495.6C82.5553 495.328 82.1233 495.184 81.6113 495.184C80.9073 495.184 80.3473 495.44 79.9313 495.936C79.5153 496.448 79.3073 497.088 79.3073 497.888C79.3073 498.704 79.5153 499.36 79.9313 499.872C80.3473 500.384 80.9073 500.624 81.6113 500.624C82.1393 500.624 82.5873 500.496 82.9393 500.208C83.2913 499.92 83.5153 499.536 83.6273 499.056H85.3873C85.2273 500.016 84.8113 500.752 84.1553 501.296ZM86.7728 490.8H88.5008V497.808L92.2448 493.808H94.2448L91.1888 497.104L94.4368 502H92.3888L89.9568 498.368L88.5008 499.904V502H86.7728V490.8ZM99.6363 502V490.8H101.476V500.368H106.292V502H99.6363ZM108.843 501.584C108.203 501.232 107.723 500.752 107.371 500.112C107.019 499.472 106.859 498.736 106.859 497.904C106.859 497.088 107.019 496.368 107.371 495.728C107.723 495.088 108.203 494.592 108.843 494.24C109.483 493.888 110.203 493.712 111.035 493.712C111.851 493.712 112.571 493.888 113.211 494.24C113.851 494.592 114.331 495.088 114.683 495.728C115.035 496.368 115.211 497.088 115.211 497.904C115.211 498.736 115.035 499.472 114.683 500.112C114.331 500.752 113.851 501.232 113.211 501.584C112.571 501.936 111.851 502.096 111.035 502.096C110.203 502.096 109.483 501.936 108.843 501.584ZM112.779 499.872C113.227 499.36 113.451 498.704 113.451 497.904C113.451 497.104 113.227 496.464 112.779 495.952C112.331 495.44 111.755 495.184 111.035 495.184C110.299 495.184 109.723 495.44 109.291 495.952C108.843 496.464 108.635 497.104 108.635 497.904C108.635 498.704 108.843 499.36 109.291 499.872C109.723 500.384 110.299 500.624 111.035 500.624C111.755 500.624 112.331 500.384 112.779 499.872ZM124.441 500.496V502H123.529C122.985 502 122.601 501.888 122.377 501.664C122.137 501.44 122.025 501.12 122.025 500.688C121.401 501.632 120.505 502.096 119.321 502.096C118.393 502.096 117.657 501.888 117.113 501.456C116.553 501.04 116.281 500.448 116.281 499.696C116.281 498.864 116.569 498.208 117.177 497.76C117.769 497.312 118.633 497.072 119.785 497.072H121.849V496.576C121.849 496.128 121.689 495.76 121.369 495.504C121.049 495.248 120.601 495.104 120.041 495.104C119.529 495.104 119.113 495.216 118.793 495.44C118.473 495.664 118.281 495.952 118.217 496.304H116.521C116.601 495.488 116.969 494.848 117.609 494.4C118.249 493.952 119.081 493.712 120.121 493.712C121.209 493.712 122.057 493.968 122.665 494.48C123.257 494.992 123.561 495.728 123.561 496.688V499.92C123.561 500.304 123.737 500.496 124.105 500.496H124.441ZM121.849 498.352H119.705C119.161 498.352 118.761 498.464 118.473 498.672C118.185 498.88 118.041 499.184 118.041 499.584C118.041 499.936 118.169 500.224 118.441 500.432C118.713 500.656 119.081 500.752 119.561 500.752C120.265 500.752 120.825 500.56 121.225 500.176C121.625 499.792 121.833 499.28 121.849 498.64V498.352ZM132.07 494.608C132.678 495.216 132.998 496.176 132.998 497.488V502H131.254V497.584C131.254 496.816 131.078 496.224 130.758 495.808C130.422 495.408 129.942 495.2 129.302 495.2C128.614 495.2 128.07 495.44 127.686 495.92C127.302 496.4 127.11 497.04 127.11 497.872V502H125.382V493.808H126.886L127.078 494.88C127.686 494.112 128.566 493.712 129.702 493.712C130.662 493.712 131.462 494.016 132.07 494.608Z" fill="#515251"/>
<path d="M247.5 494L244 498L240.5 494" stroke="#515251" stroke-width="1.6" stroke-linecap="round" stroke-linejoin="round"/>
<path d="M272 523.2H0V524.8H272V523.2Z" fill="#E7E8E7" mask="url(#path-35-inside-6_1_1315)"/>
<rect width="272" height="56" transform="translate(0 524)" fill="white"/>
<path d="M38.0196 543.717C37.4223 543.614 36.8174 543.561 36.2113 543.558C34.1433 543.557 32.1184 544.15 30.378 545.267C28.6331 544.164 26.6085 543.586 24.5446 543.6C23.9385 543.603 23.3336 543.655 22.7363 543.758C22.5406 543.792 22.3634 543.895 22.2366 544.047C22.1098 544.2 22.0417 544.393 22.0446 544.592V554.592C22.0428 554.714 22.0681 554.835 22.1185 554.947C22.1689 555.059 22.2433 555.158 22.3364 555.237C22.4295 555.317 22.539 555.375 22.6571 555.407C22.7752 555.44 22.899 555.446 23.0196 555.425C24.2138 555.218 25.4373 555.253 26.618 555.526C27.7987 555.799 28.9128 556.306 29.8946 557.017L29.9946 557.075H30.0863C30.1787 557.114 30.2778 557.133 30.378 557.133C30.4781 557.133 30.5772 557.114 30.6696 557.075H30.7613L30.8613 557.017C31.8363 556.29 32.9471 555.767 34.1281 555.478C35.309 555.189 36.536 555.14 37.7363 555.333C37.857 555.354 37.9807 555.348 38.0988 555.316C38.2169 555.283 38.3264 555.225 38.4195 555.146C38.5126 555.066 38.587 554.967 38.6374 554.855C38.6879 554.744 38.7131 554.622 38.7113 554.5V544.5C38.7026 544.31 38.6293 544.129 38.5035 543.986C38.3777 543.844 38.207 543.749 38.0196 543.717ZM29.5446 554.792C28.0029 553.981 26.2867 553.557 24.5446 553.558C24.2696 553.558 23.9946 553.558 23.7113 553.558V545.225C23.9888 545.209 24.2671 545.209 24.5446 545.225C26.3224 545.223 28.0615 545.745 29.5446 546.725V554.792ZM37.0446 553.592C36.7613 553.592 36.4863 553.592 36.2113 553.592C34.4692 553.591 32.7531 554.014 31.2113 554.825V546.725C32.6944 545.745 34.4335 545.223 36.2113 545.225C36.4888 545.209 36.7671 545.209 37.0446 545.225V553.592ZM38.0196 557.05C37.4223 556.947 36.8174 556.894 36.2113 556.892C34.1433 556.89 32.1184 557.483 30.378 558.6C28.6376 557.483 26.6127 556.89 24.5446 556.892C23.9385 556.894 23.3336 556.947 22.7363 557.05C22.6278 557.067 22.5238 557.106 22.4303 557.163C22.3367 557.221 22.2555 557.296 22.1912 557.385C22.1269 557.474 22.0809 557.575 22.0557 557.682C22.0306 557.789 22.0268 557.9 22.0446 558.008C22.087 558.225 22.2134 558.416 22.3961 558.539C22.5789 558.662 22.8031 558.708 23.0196 558.667C24.2138 558.46 25.4373 558.494 26.618 558.768C27.7987 559.041 28.9128 559.548 29.8946 560.258C30.0358 560.359 30.2047 560.413 30.378 560.413C30.5512 560.413 30.7202 560.359 30.8613 560.258C31.8431 559.548 32.9572 559.041 34.1379 558.768C35.3186 558.494 36.5421 558.46 37.7363 558.667C37.9528 558.708 38.177 558.662 38.3598 558.539C38.5426 558.416 38.6689 558.225 38.7113 558.008C38.7291 557.9 38.7254 557.789 38.7002 557.682C38.6751 557.575 38.629 557.474 38.5647 557.385C38.5005 557.296 38.4192 557.221 38.3257 557.163C38.2321 557.106 38.1281 557.067 38.0196 557.05Z" fill="#515251"/>
<path d="M57.5139 546.8C58.7299 546.8 59.6899 547.056 60.3619 547.568C61.0339 548.08 61.3859 548.8 61.3859 549.712C61.3859 550.384 61.1939 550.944 60.8419 551.376C60.4899 551.808 59.9779 552.096 59.3059 552.24C60.9699 552.528 61.8179 553.408 61.8179 554.88C61.8179 555.856 61.4499 556.624 60.7299 557.168C60.0099 557.728 58.9859 558 57.6579 558H53.4019V546.8H57.5139ZM55.2419 551.552H57.5619C58.1859 551.552 58.6659 551.408 59.0179 551.12C59.3699 550.832 59.5459 550.448 59.5459 549.936C59.5459 549.44 59.3699 549.056 59.0179 548.768C58.6659 548.48 58.1859 548.336 57.5619 548.336H55.2419V551.552ZM55.2419 556.448H57.6739C58.3939 556.448 58.9539 556.304 59.3379 556.016C59.7219 555.728 59.9299 555.312 59.9299 554.784C59.9299 554.24 59.7219 553.824 59.3379 553.52C58.9379 553.232 58.3779 553.072 57.6739 553.072H55.2419V556.448ZM65.0309 557.584C64.3909 557.232 63.9109 556.752 63.5589 556.112C63.2069 555.472 63.0469 554.736 63.0469 553.904C63.0469 553.088 63.2069 552.368 63.5589 551.728C63.9109 551.088 64.3909 550.592 65.0309 550.24C65.6709 549.888 66.3909 549.712 67.2229 549.712C68.0389 549.712 68.7589 549.888 69.3989 550.24C70.0389 550.592 70.5189 551.088 70.8709 551.728C71.2229 552.368 71.3989 553.088 71.3989 553.904C71.3989 554.736 71.2229 555.472 70.8709 556.112C70.5189 556.752 70.0389 557.232 69.3989 557.584C68.7589 557.936 68.0389 558.096 67.2229 558.096C66.3909 558.096 65.6709 557.936 65.0309 557.584ZM68.9669 555.872C69.4149 555.36 69.6389 554.704 69.6389 553.904C69.6389 553.104 69.4149 552.464 68.9669 551.952C68.5189 551.44 67.9429 551.184 67.2229 551.184C66.4869 551.184 65.9109 551.44 65.4789 551.952C65.0309 552.464 64.8229 553.104 64.8229 553.904C64.8229 554.704 65.0309 555.36 65.4789 555.872C65.9109 556.384 66.4869 556.624 67.2229 556.624C67.9429 556.624 68.5189 556.384 68.9669 555.872ZM74.4684 557.584C73.8284 557.232 73.3484 556.752 72.9964 556.112C72.6444 555.472 72.4844 554.736 72.4844 553.904C72.4844 553.088 72.6444 552.368 72.9964 551.728C73.3484 551.088 73.8284 550.592 74.4684 550.24C75.1084 549.888 75.8284 549.712 76.6604 549.712C77.4764 549.712 78.1964 549.888 78.8364 550.24C79.4764 550.592 79.9564 551.088 80.3084 551.728C80.6604 552.368 80.8364 553.088 80.8364 553.904C80.8364 554.736 80.6604 555.472 80.3084 556.112C79.9564 556.752 79.4764 557.232 78.8364 557.584C78.1964 557.936 77.4764 558.096 76.6604 558.096C75.8284 558.096 75.1084 557.936 74.4684 557.584ZM78.4044 555.872C78.8524 555.36 79.0764 554.704 79.0764 553.904C79.0764 553.104 78.8524 552.464 78.4044 551.952C77.9564 551.44 77.3804 551.184 76.6604 551.184C75.9244 551.184 75.3484 551.44 74.9164 551.952C74.4684 552.464 74.2604 553.104 74.2604 553.904C74.2604 554.704 74.4684 555.36 74.9164 555.872C75.3484 556.384 75.9244 556.624 76.6604 556.624C77.3804 556.624 77.9564 556.384 78.4044 555.872ZM82.2259 546.8H83.9539V553.808L87.6979 549.808H89.6979L86.6419 553.104L89.8899 558H87.8419L85.4099 554.368L83.9539 555.904V558H82.2259V546.8ZM95.0894 546.8H96.9294V552.576L102.065 546.8H104.305L100.193 551.472L104.609 558H102.385L98.8814 552.88L96.9294 555.072V558H95.0894V546.8ZM105.355 551.712C105.691 551.072 106.155 550.592 106.763 550.24C107.371 549.888 108.059 549.712 108.843 549.712C109.627 549.712 110.315 549.872 110.923 550.192C111.531 550.512 111.995 550.976 112.347 551.552C112.699 552.144 112.875 552.832 112.891 553.616C112.891 553.84 112.875 554.048 112.843 554.272H106.667V554.368C106.699 555.088 106.923 555.648 107.339 556.064C107.739 556.48 108.283 556.688 108.955 556.688C109.483 556.688 109.931 556.576 110.299 556.32C110.651 556.064 110.891 555.712 111.019 555.248H112.747C112.587 556.08 112.187 556.768 111.531 557.296C110.875 557.84 110.059 558.096 109.083 558.096C108.219 558.096 107.483 557.936 106.843 557.584C106.203 557.232 105.723 556.752 105.371 556.112C105.019 555.488 104.859 554.752 104.859 553.92C104.859 553.088 105.019 552.352 105.355 551.712ZM111.131 553.008C111.051 552.416 110.811 551.952 110.411 551.616C110.011 551.28 109.515 551.104 108.907 551.104C108.331 551.104 107.851 551.28 107.435 551.632C107.019 551.984 106.795 552.432 106.731 553.008H111.131ZM114.48 551.712C114.816 551.072 115.28 550.592 115.888 550.24C116.496 549.888 117.184 549.712 117.968 549.712C118.752 549.712 119.44 549.872 120.048 550.192C120.656 550.512 121.12 550.976 121.472 551.552C121.824 552.144 122 552.832 122.016 553.616C122.016 553.84 122 554.048 121.968 554.272H115.792V554.368C115.824 555.088 116.048 555.648 116.464 556.064C116.864 556.48 117.408 556.688 118.08 556.688C118.608 556.688 119.056 556.576 119.424 556.32C119.776 556.064 120.016 555.712 120.144 555.248H121.872C121.712 556.08 121.312 556.768 120.656 557.296C120 557.84 119.184 558.096 118.208 558.096C117.344 558.096 116.608 557.936 115.968 557.584C115.328 557.232 114.848 556.752 114.496 556.112C114.144 555.488 113.984 554.752 113.984 553.92C113.984 553.088 114.144 552.352 114.48 551.712ZM120.256 553.008C120.176 552.416 119.936 551.952 119.536 551.616C119.136 551.28 118.64 551.104 118.032 551.104C117.456 551.104 116.976 551.28 116.56 551.632C116.144 551.984 115.92 552.432 115.856 553.008H120.256ZM129.797 550.224C130.373 550.56 130.837 551.04 131.173 551.68C131.493 552.32 131.669 553.056 131.669 553.904C131.669 554.736 131.493 555.472 131.173 556.112C130.837 556.752 130.373 557.232 129.797 557.584C129.205 557.936 128.533 558.096 127.797 558.096C127.189 558.096 126.661 557.984 126.213 557.76C125.765 557.536 125.397 557.232 125.141 556.848V561.2H123.413V549.808H124.917L125.125 551.024C125.781 550.16 126.677 549.712 127.797 549.712C128.533 549.712 129.205 549.888 129.797 550.224ZM129.237 555.872C129.685 555.36 129.909 554.704 129.909 553.904C129.909 553.104 129.685 552.448 129.237 551.936C128.789 551.44 128.213 551.184 127.509 551.184C126.789 551.184 126.213 551.44 125.781 551.936C125.333 552.432 125.125 553.072 125.125 553.872C125.125 554.704 125.333 555.36 125.781 555.872C126.213 556.384 126.789 556.64 127.509 556.64C128.213 556.64 128.789 556.384 129.237 555.872ZM134.67 546.832C134.862 547.024 134.974 547.28 134.974 547.568C134.974 547.872 134.862 548.128 134.67 548.32C134.462 548.512 134.206 548.608 133.918 548.608C133.614 548.608 133.358 548.512 133.166 548.32C132.958 548.128 132.862 547.872 132.862 547.568C132.862 547.28 132.958 547.024 133.166 546.832C133.358 546.64 133.614 546.528 133.918 546.528C134.206 546.528 134.462 546.64 134.67 546.832ZM133.054 549.808H134.782V558H133.054V549.808ZM143.164 550.608C143.772 551.216 144.092 552.176 144.092 553.488V558H142.348V553.584C142.348 552.816 142.172 552.224 141.852 551.808C141.516 551.408 141.036 551.2 140.396 551.2C139.708 551.2 139.164 551.44 138.78 551.92C138.396 552.4 138.204 553.04 138.204 553.872V558H136.476V549.808H137.98L138.172 550.88C138.78 550.112 139.66 549.712 140.796 549.712C141.756 549.712 142.556 550.016 143.164 550.608ZM153.615 549.808V557.664C153.615 558.816 153.263 559.712 152.591 560.352C151.903 560.992 150.847 561.296 149.423 561.296C148.303 561.296 147.407 561.056 146.719 560.56C146.015 560.064 145.631 559.36 145.567 558.448H147.327C147.423 558.912 147.679 559.264 148.063 559.52C148.447 559.776 148.943 559.888 149.551 559.888C151.119 559.888 151.903 559.136 151.903 557.6V556.688C151.295 557.584 150.415 558.032 149.231 558.032C148.479 558.032 147.807 557.872 147.231 557.536C146.639 557.2 146.175 556.72 145.855 556.096C145.519 555.472 145.359 554.736 145.359 553.872C145.359 553.056 145.519 552.336 145.855 551.696C146.191 551.072 146.655 550.592 147.247 550.24C147.823 549.888 148.495 549.712 149.231 549.712C149.839 549.712 150.383 549.84 150.831 550.08C151.279 550.336 151.631 550.672 151.919 551.088L152.111 549.808H153.615ZM151.247 555.84C151.679 555.344 151.903 554.704 151.903 553.904C151.903 553.104 151.679 552.448 151.247 551.936C150.799 551.424 150.223 551.168 149.519 551.168C148.799 551.168 148.223 551.424 147.791 551.92C147.343 552.432 147.135 553.072 147.135 553.872C147.135 554.672 147.343 555.328 147.791 555.824C148.223 556.336 148.799 556.576 149.519 556.576C150.223 556.576 150.799 556.336 151.247 555.84Z" fill="#515251"/>
<path d="M247.5 550L244 554L240.5 550" stroke="#515251" stroke-width="1.6" stroke-linecap="round" stroke-linejoin="round"/>
<line x1="18.189" y1="603.5" x2="253.811" y2="603.5" stroke="#E7E8E7"/>
<mask id="path-46-inside-7_1_1315" fill="white">
<path d="M0 628H272V684H0V628Z"/>
</mask>
<path d="M0 628H272V684H0V628Z" fill="white"/>
<path d="M36.578 656.833C36.3946 656.833 36.203 656.775 36.0196 656.733C35.6484 656.652 35.2835 656.543 34.928 656.408C34.5414 656.268 34.1164 656.275 33.7349 656.429C33.3533 656.583 33.0422 656.872 32.8613 657.242L32.678 657.617C31.8663 657.165 31.1204 656.604 30.4613 655.95C29.8069 655.291 29.2461 654.545 28.7946 653.733L29.1446 653.5C29.5141 653.319 29.8036 653.008 29.9574 652.626C30.1113 652.245 30.1186 651.82 29.978 651.433C29.8456 651.077 29.7371 650.712 29.653 650.342C29.6113 650.158 29.578 649.967 29.553 649.775C29.4518 649.188 29.1443 648.656 28.686 648.276C28.2276 647.896 27.6485 647.691 27.053 647.7H24.553C24.1938 647.697 23.8382 647.771 23.5102 647.917C23.1823 648.064 22.8897 648.279 22.6525 648.549C22.4152 648.818 22.2389 649.136 22.1354 649.48C22.032 649.824 22.0039 650.186 22.053 650.542C22.4969 654.033 24.0913 657.277 26.5843 659.761C29.0773 662.245 32.3269 663.827 35.8196 664.258H36.1363C36.7508 664.259 37.3441 664.034 37.803 663.625C38.0666 663.389 38.2772 663.1 38.4208 662.777C38.5645 662.454 38.6379 662.104 38.6363 661.75V659.25C38.6261 658.671 38.4153 658.114 38.0399 657.673C37.6645 657.232 37.1478 656.936 36.578 656.833ZM36.9946 661.833C36.9945 661.952 36.9691 662.069 36.9203 662.176C36.8714 662.284 36.8002 662.38 36.7113 662.458C36.6182 662.539 36.5093 662.599 36.3916 662.635C36.2739 662.671 36.1501 662.681 36.028 662.667C32.907 662.267 30.0081 660.839 27.7885 658.609C25.5689 656.378 24.155 653.473 23.7696 650.35C23.7564 650.228 23.768 650.104 23.8038 649.987C23.8396 649.87 23.8988 649.761 23.978 649.667C24.056 649.578 24.1522 649.507 24.2599 649.458C24.3677 649.409 24.4846 649.384 24.603 649.383H27.103C27.2967 649.379 27.486 649.442 27.6381 649.563C27.7902 649.683 27.8956 649.852 27.9363 650.042C27.9696 650.269 28.0113 650.494 28.0613 650.717C28.1576 651.156 28.2857 651.588 28.4446 652.008L27.278 652.55C27.1782 652.596 27.0885 652.661 27.0139 652.741C26.9394 652.822 26.8815 652.916 26.8435 653.019C26.8056 653.122 26.7883 653.232 26.7928 653.341C26.7973 653.451 26.8234 653.559 26.8696 653.658C28.069 656.227 30.134 658.292 32.703 659.492C32.9058 659.575 33.1334 659.575 33.3363 659.492C33.4402 659.455 33.5357 659.397 33.6173 659.323C33.6988 659.248 33.7648 659.158 33.8113 659.058L34.328 657.892C34.7588 658.046 35.1984 658.174 35.6446 658.275C35.8668 658.325 36.0918 658.367 36.3196 658.4C36.5091 658.441 36.6786 658.546 36.7987 658.698C36.9189 658.85 36.9823 659.04 36.978 659.233L36.9946 661.833Z" fill="#515251"/>
<path d="M54.7939 658.352C54.8419 659.024 55.1139 659.552 55.5939 659.952C56.0739 660.352 56.7139 660.544 57.4979 660.544C58.1699 660.544 58.7299 660.4 59.1459 660.112C59.5619 659.824 59.7859 659.408 59.7859 658.88C59.7859 658.512 59.6579 658.224 59.4339 658C59.2099 657.776 58.8899 657.616 58.5059 657.488C58.1059 657.376 57.5459 657.248 56.8419 657.12C56.1059 656.992 55.4819 656.832 54.9699 656.624C54.4579 656.416 54.0259 656.096 53.7059 655.664C53.3859 655.248 53.2259 654.688 53.2259 653.984C53.2259 653.344 53.3859 652.784 53.7219 652.272C54.0579 651.776 54.5219 651.392 55.1299 651.104C55.7379 650.832 56.4259 650.688 57.2099 650.688C58.0099 650.688 58.7139 650.848 59.3539 651.136C59.9779 651.44 60.4739 651.856 60.8419 652.368C61.1939 652.896 61.4019 653.488 61.4339 654.16H59.6259C59.5619 653.584 59.3059 653.12 58.8739 652.768C58.4259 652.416 57.8819 652.24 57.2099 652.24C56.5539 652.24 56.0259 652.384 55.6419 652.672C55.2579 652.96 55.0659 653.344 55.0659 653.856C55.0659 654.224 55.1779 654.512 55.4019 654.72C55.6259 654.944 55.9459 655.104 56.3299 655.2C56.7139 655.312 57.2579 655.424 57.9779 655.552C58.6979 655.68 59.3219 655.856 59.8499 656.064C60.3619 656.288 60.7939 656.592 61.1299 657.008C61.4499 657.424 61.6259 657.984 61.6259 658.656C61.6259 659.328 61.4499 659.92 61.0979 660.432C60.7459 660.96 60.2499 661.376 59.6259 661.664C58.9859 661.952 58.2819 662.096 57.4819 662.096C56.5859 662.096 55.8179 661.936 55.1459 661.616C54.4739 661.296 53.9459 660.864 53.5619 660.288C53.1779 659.712 52.9859 659.056 52.9859 658.32L54.7939 658.352ZM70.4137 653.808V662H68.8937L68.7017 660.96C68.0777 661.728 67.2297 662.096 66.1737 662.096C65.2137 662.096 64.4297 661.808 63.8377 661.2C63.2297 660.608 62.9417 659.648 62.9417 658.32V653.808H64.6697V658.144C64.6697 658.944 64.8297 659.552 65.1497 659.968C65.4697 660.384 65.9337 660.592 66.5737 660.592C67.2297 660.592 67.7417 660.352 68.1257 659.872C68.4937 659.392 68.6857 658.72 68.6857 657.872V653.808H70.4137ZM78.5006 654.224C79.0766 654.56 79.5406 655.04 79.8766 655.68C80.1966 656.32 80.3726 657.056 80.3726 657.904C80.3726 658.736 80.1966 659.472 79.8766 660.112C79.5406 660.752 79.0766 661.232 78.5006 661.584C77.9086 661.936 77.2366 662.096 76.5006 662.096C75.8926 662.096 75.3646 661.984 74.9166 661.76C74.4686 661.536 74.1006 661.232 73.8446 660.848V665.2H72.1166V653.808H73.6206L73.8286 655.024C74.4846 654.16 75.3806 653.712 76.5006 653.712C77.2366 653.712 77.9086 653.888 78.5006 654.224ZM77.9406 659.872C78.3886 659.36 78.6126 658.704 78.6126 657.904C78.6126 657.104 78.3886 656.448 77.9406 655.936C77.4926 655.44 76.9166 655.184 76.2126 655.184C75.4926 655.184 74.9166 655.44 74.4846 655.936C74.0366 656.432 73.8286 657.072 73.8286 657.872C73.8286 658.704 74.0366 659.36 74.4846 659.872C74.9166 660.384 75.4926 660.64 76.2126 660.64C76.9166 660.64 77.4926 660.384 77.9406 659.872ZM88.1412 654.224C88.7172 654.56 89.1812 655.04 89.5172 655.68C89.8372 656.32 90.0132 657.056 90.0132 657.904C90.0132 658.736 89.8372 659.472 89.5172 660.112C89.1812 660.752 88.7172 661.232 88.1412 661.584C87.5492 661.936 86.8772 662.096 86.1412 662.096C85.5332 662.096 85.0052 661.984 84.5572 661.76C84.1092 661.536 83.7412 661.232 83.4852 660.848V665.2H81.7572V653.808H83.2612L83.4692 655.024C84.1252 654.16 85.0212 653.712 86.1412 653.712C86.8772 653.712 87.5492 653.888 88.1412 654.224ZM87.5812 659.872C88.0292 659.36 88.2532 658.704 88.2532 657.904C88.2532 657.104 88.0292 656.448 87.5812 655.936C87.1332 655.44 86.5572 655.184 85.8532 655.184C85.1332 655.184 84.5572 655.44 84.1252 655.936C83.6772 656.432 83.4692 657.072 83.4692 657.872C83.4692 658.704 83.6772 659.36 84.1252 659.872C84.5572 660.384 85.1332 660.64 85.8532 660.64C86.5572 660.64 87.1332 660.384 87.5812 659.872ZM93.0778 661.584C92.4378 661.232 91.9578 660.752 91.6058 660.112C91.2538 659.472 91.0938 658.736 91.0938 657.904C91.0938 657.088 91.2538 656.368 91.6058 655.728C91.9578 655.088 92.4378 654.592 93.0778 654.24C93.7178 653.888 94.4378 653.712 95.2698 653.712C96.0858 653.712 96.8058 653.888 97.4458 654.24C98.0858 654.592 98.5658 655.088 98.9178 655.728C99.2698 656.368 99.4458 657.088 99.4458 657.904C99.4458 658.736 99.2698 659.472 98.9178 660.112C98.5658 660.752 98.0858 661.232 97.4458 661.584C96.8058 661.936 96.0858 662.096 95.2698 662.096C94.4378 662.096 93.7178 661.936 93.0778 661.584ZM97.0138 659.872C97.4618 659.36 97.6858 658.704 97.6858 657.904C97.6858 657.104 97.4618 656.464 97.0138 655.952C96.5658 655.44 95.9898 655.184 95.2698 655.184C94.5338 655.184 93.9578 655.44 93.5258 655.952C93.0778 656.464 92.8698 657.104 92.8698 657.904C92.8698 658.704 93.0778 659.36 93.5258 659.872C93.9578 660.384 94.5338 660.624 95.2698 660.624C95.9898 660.624 96.5658 660.384 97.0138 659.872ZM105.363 653.808V655.424H104.595C103.875 655.424 103.363 655.664 103.043 656.128C102.723 656.592 102.563 657.184 102.563 657.888V662H100.835V653.808H102.371L102.563 655.04C102.787 654.656 103.091 654.368 103.475 654.144C103.843 653.92 104.339 653.808 104.979 653.808H105.363ZM106.46 651.52H108.188V653.808H110.172V655.328H108.188V659.6C108.188 659.92 108.252 660.16 108.38 660.288C108.508 660.416 108.716 660.48 109.036 660.48H110.348V662H108.684C107.9 662 107.34 661.824 106.988 661.456C106.636 661.104 106.46 660.544 106.46 659.776V651.52Z" fill="#515251"/>
<path d="M272 683.2H0V684.8H272V683.2Z" fill="#E7E8E7" mask="url(#path-46-inside-7_1_1315)"/>
<rect width="272" height="56" transform="translate(0 684)" fill="white"/>
<path d="M28.0863 720.333L27.7529 717.667C27.5724 717.597 27.4021 717.514 27.2421 717.417C27.0821 717.319 26.926 717.215 26.7738 717.104L24.2946 718.146L22.0029 714.188L24.1488 712.563C24.1349 712.465 24.1279 712.371 24.1279 712.281V711.719C24.1279 711.629 24.1349 711.535 24.1488 711.438L22.0029 709.813L24.2946 705.854L26.7738 706.896C26.9265 706.785 27.0863 706.681 27.2529 706.583C27.4196 706.486 27.5863 706.403 27.7529 706.333L28.0863 703.667H32.6696L33.0029 706.333C33.1835 706.403 33.3538 706.486 33.5138 706.583C33.6738 706.681 33.8299 706.785 33.9821 706.896L36.4613 705.854L38.7529 709.813L36.6071 711.438C36.621 711.535 36.6279 711.629 36.6279 711.719V712.281C36.6279 712.371 36.614 712.465 36.5863 712.563L38.7321 714.188L36.4404 718.146L33.9821 717.104C33.8293 717.215 33.6696 717.319 33.5029 717.417C33.3363 717.514 33.1696 717.597 33.0029 717.667L32.6696 720.333H28.0863ZM30.4196 714.917C31.2252 714.917 31.9127 714.632 32.4821 714.063C33.0515 713.493 33.3363 712.806 33.3363 712C33.3363 711.194 33.0515 710.507 32.4821 709.938C31.9127 709.368 31.2252 709.083 30.4196 709.083C29.6002 709.083 28.909 709.368 28.3463 709.938C27.7835 710.507 27.5024 711.194 27.5029 712C27.5029 712.806 27.784 713.493 28.3463 714.063C28.9085 714.632 29.5996 714.917 30.4196 714.917ZM30.4196 713.25C30.0724 713.25 29.7771 713.128 29.5338 712.885C29.2904 712.642 29.169 712.347 29.1696 712C29.1696 711.653 29.2913 711.358 29.5346 711.114C29.7779 710.871 30.0729 710.749 30.4196 710.75C30.7668 710.75 31.0621 710.872 31.3054 711.115C31.5488 711.358 31.6702 711.653 31.6696 712C31.6696 712.347 31.5479 712.643 31.3046 712.886C31.0613 713.129 30.7663 713.251 30.4196 713.25ZM29.5446 718.667H31.1904L31.4821 716.458C31.9127 716.347 32.3121 716.184 32.6804 715.968C33.0488 715.753 33.3854 715.493 33.6904 715.188L35.7529 716.042L36.5654 714.625L34.7738 713.271C34.8432 713.076 34.8918 712.872 34.9196 712.657C34.9474 712.442 34.9613 712.223 34.9613 712C34.9613 711.778 34.9474 711.559 34.9196 711.344C34.8918 711.129 34.8432 710.924 34.7738 710.729L36.5654 709.375L35.7529 707.958L33.6904 708.833C33.3849 708.514 33.0482 708.247 32.6804 708.032C32.3127 707.817 31.9132 707.653 31.4821 707.542L31.2113 705.333H29.5654L29.2738 707.542C28.8432 707.653 28.444 707.816 28.0763 708.032C27.7085 708.247 27.3715 708.508 27.0654 708.813L25.0029 707.958L24.1904 709.375L25.9821 710.708C25.9127 710.917 25.864 711.125 25.8363 711.333C25.8085 711.542 25.7946 711.764 25.7946 712C25.7946 712.222 25.8085 712.438 25.8363 712.646C25.864 712.854 25.9127 713.063 25.9821 713.271L24.1904 714.625L25.0029 716.042L27.0654 715.167C27.371 715.486 27.7079 715.754 28.0763 715.969C28.4446 716.185 28.8438 716.348 29.2738 716.458L29.5446 718.667Z" fill="#515251"/>
<path d="M54.7939 714.352C54.8419 715.024 55.1139 715.552 55.5939 715.952C56.0739 716.352 56.7139 716.544 57.4979 716.544C58.1699 716.544 58.7299 716.4 59.1459 716.112C59.5619 715.824 59.7859 715.408 59.7859 714.88C59.7859 714.512 59.6579 714.224 59.4339 714C59.2099 713.776 58.8899 713.616 58.5059 713.488C58.1059 713.376 57.5459 713.248 56.8419 713.12C56.1059 712.992 55.4819 712.832 54.9699 712.624C54.4579 712.416 54.0259 712.096 53.7059 711.664C53.3859 711.248 53.2259 710.688 53.2259 709.984C53.2259 709.344 53.3859 708.784 53.7219 708.272C54.0579 707.776 54.5219 707.392 55.1299 707.104C55.7379 706.832 56.4259 706.688 57.2099 706.688C58.0099 706.688 58.7139 706.848 59.3539 707.136C59.9779 707.44 60.4739 707.856 60.8419 708.368C61.1939 708.896 61.4019 709.488 61.4339 710.16H59.6259C59.5619 709.584 59.3059 709.12 58.8739 708.768C58.4259 708.416 57.8819 708.24 57.2099 708.24C56.5539 708.24 56.0259 708.384 55.6419 708.672C55.2579 708.96 55.0659 709.344 55.0659 709.856C55.0659 710.224 55.1779 710.512 55.4019 710.72C55.6259 710.944 55.9459 711.104 56.3299 711.2C56.7139 711.312 57.2579 711.424 57.9779 711.552C58.6979 711.68 59.3219 711.856 59.8499 712.064C60.3619 712.288 60.7939 712.592 61.1299 713.008C61.4499 713.424 61.6259 713.984 61.6259 714.656C61.6259 715.328 61.4499 715.92 61.0979 716.432C60.7459 716.96 60.2499 717.376 59.6259 717.664C58.9859 717.952 58.2819 718.096 57.4819 718.096C56.5859 718.096 55.8179 717.936 55.1459 717.616C54.4739 717.296 53.9459 716.864 53.5619 716.288C53.1779 715.712 52.9859 715.056 52.9859 714.32L54.7939 714.352ZM63.2617 711.712C63.5977 711.072 64.0617 710.592 64.6697 710.24C65.2777 709.888 65.9657 709.712 66.7497 709.712C67.5337 709.712 68.2217 709.872 68.8297 710.192C69.4377 710.512 69.9017 710.976 70.2537 711.552C70.6057 712.144 70.7817 712.832 70.7977 713.616C70.7977 713.84 70.7817 714.048 70.7497 714.272H64.5737V714.368C64.6057 715.088 64.8297 715.648 65.2457 716.064C65.6457 716.48 66.1897 716.688 66.8617 716.688C67.3897 716.688 67.8377 716.576 68.2057 716.32C68.5577 716.064 68.7977 715.712 68.9257 715.248H70.6537C70.4937 716.08 70.0937 716.768 69.4377 717.296C68.7817 717.84 67.9657 718.096 66.9897 718.096C66.1257 718.096 65.3897 717.936 64.7497 717.584C64.1097 717.232 63.6297 716.752 63.2777 716.112C62.9257 715.488 62.7657 714.752 62.7657 713.92C62.7657 713.088 62.9257 712.352 63.2617 711.712ZM69.0377 713.008C68.9577 712.416 68.7177 711.952 68.3177 711.616C67.9177 711.28 67.4217 711.104 66.8137 711.104C66.2377 711.104 65.7577 711.28 65.3417 711.632C64.9257 711.984 64.7017 712.432 64.6377 713.008H69.0377ZM72.6602 711.328H71.2362V709.808H72.6602V707.52H74.4042V709.808H76.3722V711.328H74.4042V715.6C74.4042 715.92 74.4682 716.16 74.5962 716.288C74.7242 716.416 74.9322 716.48 75.2522 716.48H76.5642V718H74.9002C74.1162 718 73.5402 717.824 73.1882 717.456C72.8362 717.104 72.6602 716.544 72.6602 715.776V711.328ZM77.4916 707.52H79.2196V709.808H81.2036V711.328H79.2196V715.6C79.2196 715.92 79.2836 716.16 79.4116 716.288C79.5396 716.416 79.7476 716.48 80.0676 716.48H81.3796V718H79.7156C78.9316 718 78.3716 717.824 78.0196 717.456C77.6676 717.104 77.4916 716.544 77.4916 715.776V707.52ZM83.9357 706.832C84.1277 707.024 84.2397 707.28 84.2397 707.568C84.2397 707.872 84.1277 708.128 83.9357 708.32C83.7277 708.512 83.4717 708.608 83.1837 708.608C82.8797 708.608 82.6237 708.512 82.4317 708.32C82.2237 708.128 82.1277 707.872 82.1277 707.568C82.1277 707.28 82.2237 707.024 82.4317 706.832C82.6237 706.64 82.8797 706.528 83.1837 706.528C83.4717 706.528 83.7277 706.64 83.9357 706.832ZM82.3197 709.808H84.0477V718H82.3197V709.808ZM92.4296 710.608C93.0376 711.216 93.3576 712.176 93.3576 713.488V718H91.6136V713.584C91.6136 712.816 91.4376 712.224 91.1176 711.808C90.7816 711.408 90.3016 711.2 89.6616 711.2C88.9736 711.2 88.4296 711.44 88.0456 711.92C87.6616 712.4 87.4696 713.04 87.4696 713.872V718H85.7416V709.808H87.2456L87.4376 710.88C88.0456 710.112 88.9256 709.712 90.0616 709.712C91.0216 709.712 91.8216 710.016 92.4296 710.608ZM102.881 709.808V717.664C102.881 718.816 102.529 719.712 101.857 720.352C101.169 720.992 100.113 721.296 98.6891 721.296C97.5691 721.296 96.6731 721.056 95.9851 720.56C95.2811 720.064 94.8971 719.36 94.8331 718.448H96.5931C96.6891 718.912 96.9451 719.264 97.3291 719.52C97.7131 719.776 98.2091 719.888 98.8171 719.888C100.385 719.888 101.169 719.136 101.169 717.6V716.688C100.561 717.584 99.6811 718.032 98.4971 718.032C97.7451 718.032 97.0731 717.872 96.4971 717.536C95.9051 717.2 95.4411 716.72 95.1211 716.096C94.7851 715.472 94.6251 714.736 94.6251 713.872C94.6251 713.056 94.7851 712.336 95.1211 711.696C95.4571 711.072 95.9211 710.592 96.5131 710.24C97.0891 709.888 97.7611 709.712 98.4971 709.712C99.1051 709.712 99.6491 709.84 100.097 710.08C100.545 710.336 100.897 710.672 101.185 711.088L101.377 709.808H102.881ZM100.513 715.84C100.945 715.344 101.169 714.704 101.169 713.904C101.169 713.104 100.945 712.448 100.513 711.936C100.065 711.424 99.4891 711.168 98.7851 711.168C98.0651 711.168 97.4891 711.424 97.0571 711.92C96.6091 712.432 96.4011 713.072 96.4011 713.872C96.4011 714.672 96.6091 715.328 97.0571 715.824C97.4891 716.336 98.0651 716.576 98.7851 716.576C99.4891 716.576 100.065 716.336 100.513 715.84ZM105.946 715.296C105.978 715.728 106.17 716.08 106.538 716.352C106.906 716.624 107.386 716.752 107.978 716.752C108.49 716.752 108.922 716.656 109.242 716.464C109.562 716.272 109.738 716 109.738 715.664C109.738 715.392 109.658 715.184 109.514 715.04C109.354 714.912 109.162 714.816 108.906 714.752C108.65 714.688 108.266 714.624 107.754 714.56C107.034 714.48 106.442 714.368 105.978 714.224C105.514 714.08 105.146 713.856 104.858 713.536C104.57 713.216 104.442 712.8 104.442 712.256C104.442 711.76 104.57 711.312 104.858 710.928C105.146 710.544 105.53 710.24 106.026 710.016C106.522 709.808 107.082 709.696 107.722 709.696C108.746 709.696 109.594 709.936 110.234 710.384C110.874 710.848 111.226 711.488 111.29 712.32H109.61C109.562 711.952 109.37 711.648 109.05 711.408C108.714 711.168 108.298 711.04 107.802 711.04C107.29 711.04 106.89 711.136 106.586 711.328C106.266 711.52 106.122 711.792 106.122 712.112C106.122 712.368 106.186 712.544 106.346 712.672C106.506 712.8 106.698 712.88 106.938 712.928C107.162 712.976 107.546 713.024 108.074 713.088C108.778 713.168 109.37 713.28 109.85 713.44C110.33 713.6 110.714 713.84 111.002 714.176C111.29 714.512 111.434 714.96 111.434 715.536C111.434 716.048 111.274 716.512 110.986 716.896C110.682 717.28 110.266 717.584 109.754 717.792C109.226 718 108.634 718.096 107.994 718.096C106.89 718.096 105.994 717.856 105.322 717.36C104.65 716.864 104.298 716.176 104.282 715.296H105.946Z" fill="#515251"/>
<path d="M247.5 710L244 714L240.5 710" stroke="#515251" stroke-width="1.6" stroke-linecap="round" stroke-linejoin="round"/>
</g>
</g>
<defs>
<filter id="filter0_d_1_1315" x="-21" y="-25" width="322" height="1074" filterUnits="userSpaceOnUse" color-interpolation-filters="sRGB">
<feFlood flood-opacity="0" result="BackgroundImageFix"/>
<feColorMatrix in="SourceAlpha" type="matrix" values="0 0 0 0 0 0 0 0 0 0 0 0 0 0 0 0 0 0 127 0" result="hardAlpha"/>
<feOffset dx="4"/>
<feGaussianBlur stdDeviation="12.5"/>
<feComposite in2="hardAlpha" operator="out"/>
<feColorMatrix type="matrix" values="0 0 0 0 0.666667 0 0 0 0 0.666667 0 0 0 0 0.666667 0 0 0 0.08 0"/>
<feBlend mode="normal" in2="BackgroundImageFix" result="effect1_dropShadow_1_1315"/>
<feBlend mode="normal" in="SourceGraphic" in2="effect1_dropShadow_1_1315" result="shape"/>
</filter>
<clipPath id="clip0_1_1315">
<rect width="272" height="1024" fill="white"/>
</clipPath>
<clipPath id="clip1_1_1315">
<rect width="272" height="852" fill="white" transform="translate(0 172)"/>
</clipPath>
<clipPath id="clip2_1_1315">
<rect width="17.0126" height="19.709" fill="white" transform="translate(20.3779 374.146)"/>
</clipPath>
<clipPath id="clip3_1_1315">
<rect width="20" height="21.3228" fill="white" transform="translate(20.3779 485.339)"/>
</clipPath>
<clipPath id="clip4_1_1315">
<rect width="4.70054" height="4.92138" fill="white" transform="translate(29.3932 489.414)"/>
</clipPath>
</defs>
</svg>
